<svg width="24" height="24" viewBox="0 0 24 24" fill="none" xmlns="http://www.w3.org/2000/svg">
<path d="M12 24C18.6274 24 24 18.6274 24 12C24 5.37258 18.6274 0 12 0C5.37258 0 0 5.37258 0 12C0 18.6274 5.37258 24 12 24Z" fill="#1111FF"/>
<path fill-rule="evenodd" clip-rule="evenodd" d="M6.3999 8.58769C6.3999 8.58769 11.2297 11.3265 12.1671 11.3265C13.1497 11.3265 17.9271 8.64001 17.9271 8.64001L17.9348 8.16001C17.9348 7.63009 17.5047 7.20001 16.9733 7.20001H7.36086C6.82998 7.20001 6.3999 7.63009 6.3999 8.16001V8.58769ZM17.9271 10.08C17.9271 10.08 13.1948 12.6465 12.1671 12.6465C11.2297 12.6465 6.4071 10.08 6.40758 10.08L6.3999 15.84C6.3999 16.3699 6.83046 16.8 7.36086 16.8H16.9733C17.5047 16.8 17.9348 16.3699 17.9348 15.84L17.9271 10.08Z" fill="white"/>
</svg>
