<svg width="24" height="24" viewBox="0 0 24 24" fill="none" xmlns="http://www.w3.org/2000/svg">
<path d="M0 12C0 5.37258 5.37258 0 12 0C18.6274 0 24 5.37258 24 12C24 18.6274 18.6274 24 12 24C5.37258 24 0 18.6274 0 12Z" fill="#4C6C91"/>
<path d="M12.6278 15.938C12.6278 15.938 12.8588 15.9128 12.9772 15.7881C13.0855 15.6738 13.0817 15.4581 13.0817 15.4581C13.0817 15.4581 13.0673 14.4509 13.5437 14.3022C14.0133 14.1559 14.6162 15.2762 15.256 15.707C15.7393 16.0327 16.1062 15.9614 16.1062 15.9614L17.8159 15.938C17.8159 15.938 18.7099 15.8839 18.2861 15.1938C18.251 15.1373 18.0388 14.6832 17.0152 13.7503C15.9428 12.7738 16.0867 12.9318 17.3777 11.2424C18.164 10.2137 18.4783 9.58566 18.38 9.31711C18.2867 9.06024 17.7082 9.12845 17.7082 9.12845L15.7837 9.14013C15.7837 9.14013 15.641 9.12108 15.5352 9.18315C15.4319 9.24398 15.3649 9.38594 15.3649 9.38594C15.3649 9.38594 15.0607 10.1818 14.6543 10.859C13.7973 12.2871 13.4548 12.3627 13.3146 12.2742C12.9884 12.0671 13.0698 11.4434 13.0698 11.0003C13.0698 9.61577 13.2839 9.03873 12.6535 8.8894C12.4444 8.83963 12.2904 8.80706 11.7551 8.80153C11.0683 8.79477 10.4874 8.80398 10.1581 8.96192C9.93895 9.067 9.76992 9.30175 9.87322 9.31527C10.0003 9.33186 10.2883 9.39147 10.441 9.59549C10.6382 9.85913 10.6314 10.4503 10.6314 10.4503C10.6314 10.4503 10.7447 12.08 10.3665 12.2822C10.1074 12.4211 9.75176 12.1378 8.98736 10.8418C8.59608 10.1781 8.30058 9.44432 8.30058 9.44432C8.30058 9.44432 8.24361 9.30728 8.14157 9.23354C8.01823 9.14443 7.84607 9.11678 7.84607 9.11678L6.01738 9.12845C6.01738 9.12845 5.74255 9.13583 5.64175 9.2532C5.55223 9.35706 5.63487 9.57276 5.63487 9.57276C5.63487 9.57276 7.06664 12.8611 8.68811 14.5185C10.175 16.0376 11.8628 15.938 11.8628 15.938H12.6278Z" fill="white"/>
</svg>
