<svg width="36" height="36" viewBox="0 0 36 36" fill="none" xmlns="http://www.w3.org/2000/svg">
<path d="M17.7001 25.9375L10.2001 17.1875C9.72508 16.6325 8.77508 16.6325 8.30008 17.1875L0.800083 25.9375C0.644762 26.1191 0.544745 26.3414 0.51188 26.5781C0.479015 26.8148 0.51468 27.0559 0.614649 27.2729C0.714619 27.49 0.874703 27.6738 1.07594 27.8027C1.27717 27.9315 1.51113 28 1.75008 28H4.25008V34.25C4.25008 34.5815 4.38178 34.8995 4.6162 35.1339C4.85062 35.3683 5.16856 35.5 5.50008 35.5H13.0001C13.3316 35.5 13.6495 35.3683 13.884 35.1339C14.1184 34.8995 14.2501 34.5815 14.2501 34.25V28H16.7501C16.9888 27.9995 17.2224 27.9307 17.4233 27.8017C17.6242 27.6728 17.7841 27.4891 17.8839 27.2722C17.9838 27.0554 18.0196 26.8145 17.987 26.578C17.9544 26.3415 17.8549 26.1192 17.7001 25.9375Z" fill="white"/>
<path d="M35.2263 13.4688L25.2263 0.96875C24.7513 0.375 23.7501 0.375 23.2738 0.96875L13.2738 13.4688C13.1271 13.6528 13.0353 13.8744 13.0089 14.1083C12.9825 14.3421 13.0225 14.5787 13.1245 14.7908C13.2264 15.0029 13.3861 15.1819 13.5852 15.3074C13.7843 15.4328 14.0148 15.4996 14.2501 15.5H16.7501V20.9875L19.5963 24.31C20.5476 25.4175 20.7676 26.99 20.1576 28.3175C19.8566 28.9681 19.3759 29.5192 18.7722 29.9058C18.1686 30.2925 17.467 30.4986 16.7501 30.5V34.25C16.7501 34.5815 16.8818 34.8995 17.1162 35.1339C17.3506 35.3683 17.6686 35.5 18.0001 35.5H30.5001C30.8316 35.5 31.1496 35.3683 31.384 35.1339C31.6184 34.8995 31.7501 34.5815 31.7501 34.25V15.5H34.2501C34.4854 15.4996 34.7159 15.4328 34.915 15.3074C35.1141 15.1819 35.2738 15.0029 35.3757 14.7908C35.4777 14.5787 35.5177 14.3421 35.4913 14.1083C35.4649 13.8744 35.3731 13.6528 35.2263 13.4688ZM25.5001 25.34V25.5C25.5001 25.8315 25.3684 26.1495 25.134 26.3839C24.8996 26.6183 24.5816 26.75 24.2501 26.75C23.9186 26.75 23.6006 26.6183 23.3662 26.3839C23.1318 26.1495 23.0001 25.8315 23.0001 25.5H22.6876C22.3561 25.5 22.0381 25.3683 21.8037 25.1339C21.5693 24.8995 21.4376 24.5815 21.4376 24.25C21.4376 23.9185 21.5693 23.6005 21.8037 23.3661C22.0381 23.1317 22.3561 23 22.6876 23H24.5626C24.7215 22.9899 24.8707 22.9197 24.9796 22.8036C25.0886 22.6875 25.1493 22.5342 25.1493 22.375C25.1493 22.2158 25.0886 22.0625 24.9796 21.9464C24.8707 21.8303 24.7215 21.7601 24.5626 21.75H23.9376C23.109 21.7493 22.3145 21.4199 21.7286 20.834C21.1427 20.2481 20.8133 19.4536 20.8126 18.625C20.8126 17.23 21.7376 16.06 23.0001 15.66V15.5C23.0001 15.1685 23.1318 14.8505 23.3662 14.6161C23.6006 14.3817 23.9186 14.25 24.2501 14.25C24.5816 14.25 24.8996 14.3817 25.134 14.6161C25.3684 14.8505 25.5001 15.1685 25.5001 15.5C25.8316 15.5 26.1496 15.6317 26.384 15.8661C26.6184 16.1005 26.7501 16.4185 26.7501 16.75C26.7501 17.0815 26.6184 17.3995 26.384 17.6339C26.1496 17.8683 25.8316 18 25.5001 18H23.9376C23.7787 18.0101 23.6295 18.0803 23.5206 18.1964C23.4116 18.3125 23.3509 18.4658 23.3509 18.625C23.3509 18.7842 23.4116 18.9375 23.5206 19.0536C23.6295 19.1697 23.7787 19.2399 23.9376 19.25H24.5626C26.2863 19.25 27.6876 20.6513 27.6876 22.375C27.6876 23.77 26.7626 24.94 25.5001 25.34Z" fill="white"/>
</svg>
