<svg width="23" height="36" viewBox="0 0 23 36" fill="none" xmlns="http://www.w3.org/2000/svg">
<path d="M17.5 30.5H2.50001L0.25001 33.5C0.110726 33.6857 0.0259083 33.9066 0.00506081 34.1378C-0.0157867 34.369 0.0281597 34.6014 0.131976 34.809C0.235792 35.0167 0.395376 35.1913 0.592846 35.3133C0.790316 35.4354 1.01787 35.5 1.25001 35.5H18.75C18.9821 35.5 19.2097 35.4354 19.4072 35.3133C19.6046 35.1913 19.7642 35.0167 19.868 34.809C19.9719 34.6014 20.0158 34.369 19.995 34.1378C19.9741 33.9066 19.8893 33.6857 19.75 33.5L17.5 30.5ZM22.1338 12.1163L14.6338 4.61627C14.3994 4.38183 14.0815 4.25009 13.75 4.25002H10.4838L11.1863 2.14502C11.2637 1.91229 11.271 1.66193 11.2071 1.42512C11.1433 1.1883 11.0112 0.975489 10.8274 0.813189C10.6435 0.650889 10.4159 0.546272 10.173 0.512368C9.93008 0.478463 9.68256 0.516769 9.46126 0.622515L5.05626 2.72502C5.00258 2.75046 4.95078 2.7797 4.90126 2.81252C3.39178 3.81654 2.15425 5.17854 1.29906 6.77705C0.443858 8.37556 -0.00242551 10.1609 9.91452e-06 11.9738V25.5C8.07113e-05 25.8315 0.131823 26.1494 0.36626 26.3838L1.98251 28H5.00001V15.5C5.00001 15.1685 5.13171 14.8506 5.36613 14.6161C5.60055 14.3817 5.91849 14.25 6.25001 14.25C6.58153 14.25 6.89947 14.3817 7.13389 14.6161C7.36831 14.8506 7.50001 15.1685 7.50001 15.5V28H18.0175L19.6338 26.3838C19.8193 26.1984 19.9419 25.9593 19.984 25.7004C20.0262 25.4416 19.9859 25.176 19.8688 24.9413L15.6138 16.4338C16.82 16.6213 17.855 17.6225 17.8663 17.6338C17.996 17.7661 18.1541 17.8672 18.3286 17.9296C18.5031 17.9919 18.6895 18.0139 18.8738 17.9938C19.0577 17.9756 19.2352 17.9168 19.3937 17.8217C19.5521 17.7266 19.6875 17.5975 19.79 17.4438L22.29 13.6938C22.4504 13.4533 22.5224 13.1647 22.4939 12.8771C22.4654 12.5895 22.3382 12.3206 22.1338 12.1163Z" fill="white"/>
</svg>
