<svg width="34" height="36" viewBox="0 0 34 36" fill="none" xmlns="http://www.w3.org/2000/svg">
<path d="M31.4487 7.36004L18.5074 0.857543C18.0394 0.622674 17.523 0.500366 16.9993 0.500366C16.4757 0.500366 15.9592 0.622674 15.4912 0.857543L2.55119 7.36004C1.98234 7.64597 1.50644 8.08764 1.17892 8.63359C0.851389 9.17955 0.685714 9.80732 0.701188 10.4438C0.818688 15.8113 2.35494 29.6638 14.6912 35.0213C15.4203 35.3373 16.2065 35.5004 17.0012 35.5004C17.7959 35.5004 18.5821 35.3373 19.3112 35.0213C31.6462 29.6638 33.1824 15.8113 33.3012 10.4438C33.3287 9.14254 32.6112 7.94379 31.4487 7.36004ZM18.1199 23.52V24.25C18.1199 24.5484 18.0014 24.8346 17.7904 25.0455C17.5795 25.2565 17.2933 25.375 16.9949 25.375C16.6966 25.375 16.4104 25.2565 16.1994 25.0455C15.9885 24.8346 15.8699 24.5484 15.8699 24.25V23.8325L15.7862 23.8338C15.1587 23.8338 14.5462 23.5888 14.0949 23.1525C13.8605 22.9281 13.6741 22.6583 13.5471 22.3597C13.4201 22.061 13.3552 21.7396 13.3562 21.415C13.356 21.1167 13.4744 20.8305 13.6853 20.6194C13.8961 20.4083 14.1822 20.2896 14.4806 20.2894C14.7789 20.2893 15.0651 20.4076 15.2762 20.6185C15.4873 20.8293 15.606 21.1154 15.6062 21.4138C15.6062 21.46 15.6237 21.5 15.6562 21.5338C15.6824 21.5588 15.7312 21.5875 15.7887 21.5838C16.5012 21.5575 18.8337 21.3888 18.8637 20.2538C18.8749 19.8338 18.0812 19.4025 16.7412 19.0988C14.0687 18.49 12.7737 17.3063 12.8912 15.5825C12.9562 14.6225 13.4749 13.1338 15.8687 12.4838V11.75C15.8687 11.4517 15.9872 11.1655 16.1982 10.9545C16.4092 10.7436 16.6953 10.625 16.9937 10.625C17.2921 10.625 17.5782 10.7436 17.7892 10.9545C18.0002 11.1655 18.1187 11.4517 18.1187 11.75V12.17H18.1287C18.8049 12.1275 19.4087 12.3875 19.8837 12.8438C20.3537 13.2975 20.6237 13.9338 20.6237 14.5875C20.6237 14.8859 20.5052 15.1721 20.2942 15.383C20.0832 15.594 19.7971 15.7125 19.4987 15.7125C19.2003 15.7125 18.9142 15.594 18.7032 15.383C18.4922 15.1721 18.3737 14.8859 18.3737 14.5875C18.3741 14.5642 18.3697 14.541 18.3606 14.5195C18.3516 14.498 18.3382 14.4786 18.3212 14.4625H18.2749C17.0449 14.4625 15.2062 14.6938 15.1349 15.735C15.1062 16.1788 15.8337 16.585 17.2412 16.905C19.8537 17.4988 21.1574 18.645 21.1137 20.3138C21.0924 21.1238 20.7187 22.8138 18.1199 23.52Z" fill="white"/>
</svg>
