<svg width="24" height="36" viewBox="0 0 24 36" fill="none" xmlns="http://www.w3.org/2000/svg">
<path d="M19.5625 0.500033H4.5C3.50544 0.500033 2.55161 0.895121 1.84835 1.59838C1.14509 2.30164 0.75 3.25547 0.75 4.25003V31.75C0.75 32.7446 1.14509 33.6984 1.84835 34.4017C2.55161 35.1049 3.50544 35.5 4.5 35.5H19.625C20.6196 35.5 21.5734 35.1049 22.2767 34.4017C22.9799 33.6984 23.375 32.7446 23.375 31.75V4.25003C23.3751 3.75227 23.276 3.25948 23.0837 2.80039C22.8913 2.34129 22.6095 1.92509 22.2546 1.57604C21.8998 1.22699 21.479 0.952081 21.0168 0.767344C20.5546 0.582607 20.0602 0.491737 19.5625 0.500033ZM12 32.625C11.6564 32.625 11.3204 32.5231 11.0347 32.3322C10.749 32.1413 10.5263 31.8699 10.3948 31.5524C10.2633 31.235 10.2288 30.8856 10.2959 30.5486C10.3629 30.2115 10.5284 29.9019 10.7714 29.6589C11.0144 29.4159 11.324 29.2505 11.661 29.1834C11.9981 29.1164 12.3474 29.1508 12.6649 29.2823C12.9824 29.4138 13.2538 29.6365 13.4447 29.9222C13.6356 30.208 13.7375 30.5439 13.7375 30.8875C13.7375 31.3483 13.5544 31.7903 13.2286 32.1161C12.9028 32.442 12.4608 32.625 12 32.625ZM14.7625 4.56253H9.2375C8.98886 4.56253 8.7504 4.46376 8.57459 4.28795C8.39877 4.11213 8.3 3.87367 8.3 3.62503C8.3 3.37639 8.39877 3.13794 8.57459 2.96212C8.7504 2.7863 8.98886 2.68753 9.2375 2.68753H14.7625C15.0111 2.68753 15.2496 2.7863 15.4254 2.96212C15.6012 3.13794 15.7 3.37639 15.7 3.62503C15.7 3.87367 15.6012 4.11213 15.4254 4.28795C15.2496 4.46376 15.0111 4.56253 14.7625 4.56253Z" fill="white"/>
</svg>
