<svg width="36" height="36" viewBox="0 0 36 36" fill="none" xmlns="http://www.w3.org/2000/svg">
<path d="M34.2498 0.5H29.5373C25.7998 0.5 22.2998 2.15 19.9248 5.0375L5.78731 22.2C5.37481 22.7 5.41231 23.425 5.86231 23.8875L8.09981 26.125L11.4873 22.7375C11.9748 22.25 12.7748 22.25 13.2623 22.7375C13.7498 23.225 13.7498 24.025 13.2623 24.5125L9.87481 27.9L12.1123 30.1375C12.3623 30.375 12.6748 30.5 12.9998 30.5C13.2873 30.5 13.5623 30.4 13.7998 30.2125L30.9623 16.075C33.8498 13.7 35.4998 10.2 35.4998 6.4625V1.75C35.4998 1.0625 34.9373 0.5 34.2498 0.5ZM20.4998 18C19.1248 18 17.9998 16.875 17.9998 15.5C17.9998 14.125 19.1248 13 20.4998 13C21.8748 13 22.9998 14.125 22.9998 15.5C22.9998 16.875 21.8748 18 20.4998 18ZM26.7498 13C24.6873 13 22.9998 11.3125 22.9998 9.25C22.9998 7.1875 24.6873 5.5 26.7498 5.5C28.8123 5.5 30.4998 7.1875 30.4998 9.25C30.4998 11.3125 28.8123 13 26.7498 13Z" fill="white"/>
<path d="M26.75 10.5C27.4404 10.5 28 9.94036 28 9.25C28 8.55964 27.4404 8 26.75 8C26.0596 8 25.5 8.55964 25.5 9.25C25.5 9.94036 26.0596 10.5 26.75 10.5Z" fill="white"/>
<path d="M7.99981 29.775L5.76231 32.0125C5.51231 32.25 5.19981 32.375 4.87481 32.375C4.54981 32.375 4.23731 32.25 3.98731 32.0125C3.49981 31.525 3.49981 30.725 3.98731 30.2375L6.22481 28L7.99981 29.775ZM3.85481 20.6163L9.09731 14.25H5.49981C5.26752 14.2499 5.0398 14.3145 4.84219 14.4366C4.64458 14.5587 4.4849 14.7335 4.38106 14.9413L0.631063 22.4412C0.536175 22.6319 0.491521 22.8436 0.501328 23.0564C0.511135 23.2691 0.575079 23.4758 0.687105 23.6569C0.799132 23.8381 0.955533 23.9876 1.1415 24.0914C1.32747 24.1952 1.53685 24.2498 1.74981 24.25H3.22606C3.00623 23.6419 2.94859 22.987 3.05884 22.3498C3.1691 21.7126 3.44343 21.1152 3.85481 20.6163ZM15.3836 32.145C14.7117 32.6971 13.8694 32.9992 12.9998 33C12.5732 32.9961 12.1504 32.9191 11.7498 32.7725V34.25C11.7497 34.4631 11.8041 34.6727 11.9078 34.8588C12.0115 35.045 12.161 35.2016 12.3423 35.3137C12.5235 35.4258 12.7304 35.4897 12.9433 35.4993C13.1561 35.5089 13.3679 35.464 13.5586 35.3688L21.0586 31.6188C21.2664 31.5149 21.4411 31.3552 21.5632 31.1576C21.6853 30.96 21.7499 30.7323 21.7498 30.5V26.9025L15.3836 32.145Z" fill="white"/>
</svg>
