<svg width="36" height="33" viewBox="0 0 36 33" fill="none" xmlns="http://www.w3.org/2000/svg">
<path d="M19.425 14.8875C19.425 15.625 18.2 16.75 15.4875 17.45C14 17.8625 12.25 18.075 10.425 18.075C8.6125 18.075 6.8625 17.8625 5.3875 17.4625C2.65 16.75 1.4375 15.65 1.4375 14.8875C1.4375 13.5875 4.9375 11.7 10.425 11.7C15.925 11.7 19.425 13.5875 19.425 14.8875ZM34.5625 3.1875C34.5625 3.9375 33.325 5.0625 30.6 5.75C29.1 6.15 27.35 6.35 25.5625 6.35C23.775 6.35 22.0375 6.15 20.5375 5.75C17.8125 5.0625 16.575 3.9375 16.575 3.1875C16.575 1.8875 20.075 0 25.5625 0C31.1375 0 34.5625 1.85 34.5625 3.1875ZM16.205 27.1537C14.4738 27.6087 12.4762 27.85 10.4263 27.85C8.385 27.85 6.3925 27.61 4.6625 27.155C2.90875 26.6912 1.51625 26.0287 0.5 25.2287V28.8187C0.5 31.0937 4.94625 32.9425 10.4275 32.9425C15.9213 32.9425 20.3675 31.0937 20.3675 28.8187V25.2287C19.3512 26.0287 17.9587 26.6912 16.205 27.1537Z" fill="white"/>
<path d="M15.9562 19.2663C14.3525 19.71 12.4287 19.95 10.425 19.95C8.4425 19.95 6.53125 19.715 4.89625 19.2725C2.88125 18.7475 1.38875 17.9638 0.5 17.0175V21.8513C0.5 23.325 2.34875 24.605 5.14 25.3413C6.665 25.7425 8.4875 25.975 10.4263 25.975C12.3775 25.975 14.2 25.7425 15.7262 25.3413C18.5187 24.605 20.3662 23.3113 20.3662 21.8513V16.99C19.47 17.9488 17.9625 18.7488 15.9562 19.2663ZM31.0588 7.56751C29.4563 7.99501 27.5462 8.22501 25.5625 8.22501C23.5862 8.22501 21.6812 7.99501 20.055 7.56126C18.0475 7.05501 16.5338 6.25876 15.6338 5.29626V10.1488C15.6338 10.2388 15.6613 10.325 15.675 10.4125C18.4438 11.0913 20.4263 12.3088 21.0713 13.8088C22.4213 14.1025 23.945 14.2713 25.56 14.2713C27.5112 14.2713 29.3213 14.0388 30.86 13.625C33.6512 12.9025 35.5 11.6225 35.5 10.1488V5.30001C34.5975 6.26126 33.0788 7.05876 31.0588 7.56751ZM31.33 15.4413C29.615 15.9013 27.615 16.1475 25.56 16.1475C24.4163 16.1475 23.3112 16.0475 22.2425 15.9V20.9938C23.2837 21.1475 24.395 21.24 25.56 21.24C27.5112 21.24 29.3213 21.0075 30.86 20.6063C33.6512 19.87 35.5 18.59 35.5 17.1163V13.5288C34.4825 14.3275 33.0875 14.9863 31.33 15.4413ZM31.3375 22.4188C29.59 22.875 27.5938 23.115 25.5588 23.115C24.4225 23.115 23.31 23.0275 22.2412 22.8825V27.97C23.2787 28.1225 24.3938 28.2075 25.5588 28.2075C31.0525 28.2075 35.4987 26.3725 35.4987 24.0838V20.4938C34.4837 21.2938 33.0925 21.9563 31.3375 22.4188Z" fill="white"/>
</svg>
