<svg width="36" height="32" viewBox="0 0 36 32" fill="none" xmlns="http://www.w3.org/2000/svg">
<path d="M29.25 0.277466H6.75C5.0924 0.277466 3.50269 0.935946 2.33058 2.10805C1.15848 3.28015 0.5 4.86986 0.5 6.52747V19.6262C0.5 21.2838 1.15848 22.8735 2.33058 24.0456C3.50269 25.2177 5.0924 25.8762 6.75 25.8762H12.9525L16.5613 30.9775C16.7241 31.2076 16.9397 31.3953 17.19 31.5248C17.4404 31.6543 17.7181 31.7219 18 31.7219C18.2819 31.7219 18.5596 31.6543 18.81 31.5248C19.0603 31.3953 19.2759 31.2076 19.4387 30.9775L23.0475 25.8762H29.25C30.9076 25.8762 32.4973 25.2177 33.6694 24.0456C34.8415 22.8735 35.5 21.2838 35.5 19.6262V6.52747C35.5 4.86986 34.8415 3.28015 33.6694 2.10805C32.4973 0.935946 30.9076 0.277466 29.25 0.277466ZM9.78 15.2125C9.2136 15.2125 8.67039 14.9875 8.26989 14.587C7.86938 14.1864 7.64437 13.6432 7.64437 13.0768C7.64437 12.5104 7.86938 11.9672 8.26989 11.5667C8.67039 11.1662 9.2136 10.9412 9.78 10.9412C10.3464 10.9412 10.8896 11.1662 11.2901 11.5667C11.6906 11.9672 11.9156 12.5104 11.9156 13.0768C11.9156 13.6432 11.6906 14.1864 11.2901 14.587C10.8896 14.9875 10.3464 15.2125 9.78 15.2125ZM18 15.2125C17.4336 15.2125 16.8904 14.9875 16.4899 14.587C16.0894 14.1864 15.8644 13.6432 15.8644 13.0768C15.8644 12.5104 16.0894 11.9672 16.4899 11.5667C16.8904 11.1662 17.4336 10.9412 18 10.9412C18.5664 10.9412 19.1096 11.1662 19.5101 11.5667C19.9106 11.9672 20.1356 12.5104 20.1356 13.0768C20.1356 13.6432 19.9106 14.1864 19.5101 14.587C19.1096 14.9875 18.5664 15.2125 18 15.2125ZM26.22 15.2125C25.6536 15.2125 25.1104 14.9875 24.7099 14.587C24.3094 14.1864 24.0844 13.6432 24.0844 13.0768C24.0844 12.5104 24.3094 11.9672 24.7099 11.5667C25.1104 11.1662 25.6536 10.9412 26.22 10.9412C26.7864 10.9412 27.3296 11.1662 27.7301 11.5667C28.1306 11.9672 28.3556 12.5104 28.3556 13.0768C28.3556 13.6432 28.1306 14.1864 27.7301 14.587C27.3296 14.9875 26.7864 15.2125 26.22 15.2125Z" fill="white"/>
</svg>
