<svg width="26" height="37" viewBox="0 0 26 37" fill="none" xmlns="http://www.w3.org/2000/svg">
<path d="M21.5051 15.1925V8.88128C21.508 7.76359 21.2894 6.6564 20.8618 5.62374C20.4342 4.59108 19.8061 3.65344 19.0138 2.86503C18.2251 2.07329 17.2874 1.44562 16.2548 1.01825C15.2222 0.59087 14.1151 0.372258 12.9976 0.375026C10.7424 0.377673 8.58033 1.27471 6.98567 2.86937C5.39102 4.46403 4.49398 6.62609 4.49133 8.88128V15.1963C3.2751 16.3473 2.30648 17.7344 1.64472 19.2726C0.982951 20.8109 0.641952 22.468 0.642579 24.1425C0.642579 30.9675 6.17508 36.5 13.0001 36.5C19.8251 36.5 25.3576 30.9675 25.3576 24.1425C25.358 22.4671 25.0166 20.8092 24.3542 19.2703C23.6917 17.7314 22.7223 16.3438 21.5051 15.1925ZM14.1251 25.2475V27.5838C14.1251 27.8821 14.0066 28.1683 13.7956 28.3793C13.5846 28.5903 13.2984 28.7088 13.0001 28.7088C12.7017 28.7088 12.4156 28.5903 12.2046 28.3793C11.9936 28.1683 11.8751 27.8821 11.8751 27.5838V25.2475C11.396 24.9979 11.0146 24.5945 10.7924 24.1021C10.5702 23.6097 10.5199 23.0569 10.6497 22.5325C10.7795 22.0081 11.0818 21.5425 11.5081 21.2106C11.9344 20.8787 12.4599 20.6998 13.0001 20.7025C13.5403 20.6998 14.0658 20.8787 14.492 21.2106C14.9183 21.5425 15.2206 22.0081 15.3504 22.5325C15.4802 23.0569 15.43 23.6097 15.2078 24.1021C14.9855 24.5945 14.6042 24.9979 14.1251 25.2475ZM19.2538 13.4975C17.3594 12.3766 15.1985 11.7854 12.9972 11.7858C10.796 11.7862 8.63532 12.3783 6.74133 13.5V8.88128C6.74331 7.22262 7.40309 5.63248 8.57593 4.45963C9.74878 3.28679 11.3389 2.62701 12.9976 2.62503C14.6688 2.62503 16.2413 3.27628 17.4226 4.45628C18.0052 5.03618 18.467 5.72585 18.7813 6.48539C19.0957 7.24493 19.2563 8.05927 19.2538 8.88128V13.4975Z" fill="white"/>
</svg>
