<svg width="98" height="20" viewBox="0 0 98 20" fill="none" xmlns="http://www.w3.org/2000/svg">
<path d="M20.1539 12.4205C18.7874 17.7776 13.2357 21.0379 7.7538 19.702C2.27412 18.3664 -1.06172 12.9402 0.30548 7.58341C1.67141 2.22568 7.22304 -1.0349 12.7034 0.300709C18.185 1.63631 21.5205 7.0631 20.1539 12.4205Z" fill="#F7931A"/>
<path d="M14.7409 8.5767C14.9446 7.2461 13.908 6.5308 12.4906 6.05362L12.9504 4.25114L11.8278 3.97771L11.3802 5.73268C11.085 5.66081 10.7819 5.593 10.4807 5.52581L10.9316 3.75927L9.8096 3.48584L9.3495 5.28768C9.10522 5.23331 8.86541 5.17957 8.63264 5.12301L8.63392 5.11738L7.08575 4.73957L6.78712 5.91142C6.78712 5.91142 7.62003 6.09799 7.60245 6.10955C8.05712 6.22048 8.13928 6.51454 8.12554 6.74766L7.6018 8.80107C7.63314 8.80888 7.67375 8.82013 7.71851 8.83763C7.68111 8.82857 7.64114 8.81857 7.59989 8.80888L6.86576 11.6854C6.81013 11.8204 6.66913 12.0229 6.35131 11.946C6.3625 11.962 5.53534 11.747 5.53534 11.747L4.97803 13.0029L6.43891 13.3588C6.71069 13.4254 6.97703 13.4951 7.23922 13.5607L6.77465 15.3838L7.89597 15.6572L8.35607 13.8535C8.66238 13.9347 8.95974 14.0097 9.2507 14.0804L8.7922 15.8756L9.9148 16.1491L10.3794 14.3294C12.2937 14.6835 13.7331 14.5407 14.339 12.8485C14.8273 11.486 14.3147 10.7001 13.3075 10.1876C14.041 10.0223 14.5935 9.55075 14.7409 8.5767ZM12.176 12.092C11.8291 13.4544 9.48187 12.7179 8.72089 12.5332L9.33735 10.1179C10.0983 10.3035 12.5386 10.671 12.176 12.092ZM12.5232 8.55701C12.2067 9.79637 10.2531 9.16669 9.61936 9.01232L10.1783 6.82173C10.812 6.9761 12.8529 7.26422 12.5232 8.55701Z" fill="white"/>
<path d="M29.9828 6.0518C30.8125 6.0518 31.5293 6.1971 32.1317 6.48241C32.737 6.77053 33.2364 7.15866 33.637 7.64677C34.0322 8.13739 34.3264 8.71082 34.5163 9.368C34.705 10.027 34.7996 10.7355 34.7996 11.4939C34.7996 12.6589 34.5812 13.7595 34.1403 14.797C33.6994 15.836 33.1012 16.7373 32.3402 17.506C31.5798 18.2738 30.682 18.8791 29.6467 19.3263C28.613 19.7738 27.4891 19.9975 26.2824 19.9975C26.1264 19.9975 25.852 19.9931 25.4645 19.9853C25.077 19.9775 24.6316 19.9385 24.1328 19.8725C23.6308 19.8041 23.1001 19.7028 22.5395 19.5672C21.9794 19.4341 21.4473 19.2475 20.9463 19.0107L25.4265 0.6122L29.4392 0.00439453L27.8351 6.53336C28.1785 6.38211 28.5244 6.26492 28.8697 6.17961C29.2154 6.09555 29.5863 6.0518 29.9828 6.0518ZM26.6169 16.8863C27.2212 16.8863 27.7906 16.741 28.3255 16.4557C28.8621 16.1701 29.325 15.7845 29.7129 15.3042C30.1007 14.8217 30.4077 14.2782 30.6315 13.6711C30.8553 13.0639 30.9685 12.4305 30.9685 11.7714C30.9685 10.9617 30.8301 10.3302 30.5541 9.87362C30.2782 9.41894 29.7676 9.19019 29.0261 9.19019C28.7831 9.19019 28.4701 9.2355 28.0819 9.31643C27.6925 9.40237 27.3439 9.58081 27.0316 9.84924L25.3235 16.7829C25.4265 16.8007 25.5176 16.8176 25.5953 16.8335C25.6714 16.8507 25.7555 16.8629 25.8392 16.8713C25.9278 16.881 26.0292 16.886 26.1516 16.886C26.2741 16.886 26.4273 16.8863 26.6169 16.8863Z" fill="#4D4D4D"/>
<path d="M38.9611 19.6455H35.1284L38.3651 6.33418H42.2241L38.9611 19.6455ZM40.8262 4.71233C40.2912 4.71233 39.8062 4.55671 39.3758 4.24484C38.9419 3.93484 38.7271 3.45767 38.7271 2.81455C38.7271 2.46081 38.8006 2.12893 38.9464 1.81581C39.0945 1.50332 39.2879 1.23426 39.5303 1.00552C39.7723 0.778644 40.0527 0.597394 40.3712 0.460833C40.6916 0.32646 41.0324 0.259277 41.3956 0.259277C41.9302 0.259277 42.4127 0.414901 42.8447 0.726771C43.275 1.0402 43.4915 1.51738 43.4915 2.15706C43.4915 2.51205 43.4183 2.84517 43.2712 3.15767C43.1251 3.47016 42.9316 3.73922 42.6893 3.96796C42.4492 4.19515 42.1662 4.37577 41.8484 4.51108C41.5277 4.64764 41.1881 4.71233 40.8262 4.71233Z" fill="#4D4D4D"/>
<path d="M45.5827 3.01747L49.597 2.40967L48.6113 6.33336H52.9105L52.1342 9.42018H47.8608L46.7226 14.0764C46.6177 14.4645 46.5582 14.827 46.5416 15.1638C46.5227 15.5023 46.5665 15.7929 46.6701 16.0376C46.7731 16.2829 46.9582 16.472 47.2268 16.6057C47.4941 16.7416 47.8768 16.8101 48.3788 16.8101C48.7922 16.8101 49.1951 16.7716 49.5846 16.6954C49.9718 16.6204 50.3641 16.516 50.7612 16.3795L51.047 19.2657C50.5291 19.4513 49.9682 19.611 49.3639 19.7453C48.7587 19.8816 48.0421 19.9472 47.214 19.9472C46.0233 19.9472 45.1002 19.7744 44.4425 19.4303C43.7858 19.0838 43.3215 18.6104 43.0437 18.011C42.7696 17.4138 42.6472 16.7254 42.6814 15.9498C42.7169 15.1723 42.8368 14.3551 43.0437 13.4945L45.5827 3.01747Z" fill="#4D4D4D"/>
<path d="M52.7417 14.3299C52.7417 13.1833 52.9316 12.1021 53.3112 11.0899C53.69 10.0768 54.2358 9.19089 54.9441 8.43059C55.6497 7.67403 56.5095 7.07467 57.5215 6.63467C58.5287 6.19718 59.6564 5.97656 60.8992 5.97656C61.6771 5.97656 62.3719 6.04844 62.9833 6.1925C63.5972 6.33781 64.1525 6.52562 64.6549 6.76124L63.3331 9.6987C62.9877 9.56182 62.6293 9.4412 62.2587 9.33182C61.8878 9.22026 61.4351 9.16652 60.8995 9.16652C59.6202 9.16652 58.6089 9.59744 57.8562 10.4565C57.1065 11.3162 56.7288 12.4733 56.7288 13.9249C56.7288 14.7852 56.9188 15.4808 57.2999 16.013C57.6791 16.5451 58.3797 16.8098 59.3967 16.8098C59.8987 16.8098 60.3831 16.7586 60.8471 16.6586C61.3145 16.5573 61.7273 16.4298 62.0909 16.2792L62.377 19.2904C61.8923 19.4742 61.3577 19.6401 60.7713 19.7854C60.1836 19.9257 59.484 19.9985 58.6729 19.9985C57.602 19.9985 56.6956 19.8454 55.9541 19.5439C55.2123 19.2376 54.5994 18.831 54.1166 18.3161C53.6312 17.7998 53.2827 17.197 53.0672 16.5052C52.8517 15.8139 52.7417 15.0877 52.7417 14.3299Z" fill="#4D4D4D"/>
<path d="M69.7679 19.9985C68.8531 19.9985 68.0585 19.8623 67.3845 19.5926C66.7124 19.3229 66.1558 18.9445 65.7155 18.4539C65.2746 17.9658 64.9446 17.3873 64.7186 16.7208C64.4925 16.0545 64.3838 15.3167 64.3838 14.5083C64.3838 13.4943 64.5504 12.4805 64.8871 11.4696C65.2221 10.4565 65.7193 9.5462 66.3774 8.73715C67.0303 7.92685 67.8357 7.26435 68.784 6.7478C69.7314 6.23468 70.8211 5.97656 72.0451 5.97656C72.9432 5.97656 73.7336 6.11312 74.4169 6.3828C75.097 6.65186 75.6571 7.03342 76.1 7.52154C76.538 8.01216 76.8709 8.58809 77.0947 9.25558C77.3201 9.92057 77.4314 10.6602 77.4314 11.4693C77.4314 12.4802 77.267 13.4939 76.9409 14.508C76.6144 15.517 76.13 16.4295 75.4906 17.2405C74.8524 18.0495 74.0543 18.7117 73.0957 19.226C72.1384 19.7404 71.0283 19.9985 69.7679 19.9985ZM71.6834 9.16683C71.1153 9.16683 70.6129 9.32807 70.1829 9.6465C69.7512 9.96868 69.3887 10.3737 69.0964 10.8621C68.801 11.3527 68.582 11.8877 68.4339 12.4693C68.2872 13.0521 68.2152 13.603 68.2152 14.1264C68.2152 14.9711 68.3546 15.6289 68.6286 16.1023C68.9065 16.5733 69.4056 16.8101 70.1311 16.8101C70.7012 16.8101 71.2009 16.6501 71.6336 16.3283C72.0626 16.0086 72.4256 15.6033 72.72 15.1139C73.0136 14.6258 73.2345 14.0893 73.3825 13.5068C73.5274 12.9258 73.6012 12.3718 73.6012 11.8493C73.6012 11.0068 73.4625 10.3474 73.1859 9.87463C72.9096 9.4037 72.4083 9.16683 71.6834 9.16683Z" fill="#4D4D4D"/>
<path d="M81.6079 19.6455H77.772L81.0087 6.33418H84.8695L81.6079 19.6455ZM83.47 4.71233C82.9354 4.71233 82.4507 4.55671 82.021 4.24484C81.5893 3.93484 81.3725 3.45767 81.3725 2.81455C81.3725 2.46081 81.447 2.12893 81.5932 1.81581C81.7393 1.50332 81.934 1.23426 82.1764 1.00552C82.4171 0.778644 82.7001 0.597394 83.0179 0.460833C83.3364 0.32646 83.6772 0.259277 84.0392 0.259277C84.575 0.259277 85.0591 0.414901 85.4901 0.726771C85.9215 1.0402 86.1392 1.51738 86.1392 2.15706C86.1392 2.51205 86.0618 2.84517 85.917 3.15767C85.7722 3.47016 85.5774 3.73922 85.336 3.96796C85.093 4.19515 84.8136 4.37577 84.4951 4.51108C84.1741 4.64764 83.8339 4.71233 83.47 4.71233Z" fill="#4D4D4D"/>
<path d="M87.6316 6.93903C87.9226 6.85591 88.2474 6.75591 88.6008 6.64716C88.9553 6.53841 89.3515 6.43717 89.794 6.34592C90.2317 6.25186 90.7257 6.17561 91.269 6.11655C91.8122 6.05624 92.4312 6.02686 93.119 6.02686C95.1404 6.02686 96.5338 6.60217 97.3031 7.74934C98.0717 8.89651 98.2047 10.4665 97.706 12.4564L95.9429 19.6438H92.0849L93.7936 12.6077C93.8979 12.1683 93.9797 11.7436 94.0402 11.3286C94.1012 10.9174 94.0977 10.5549 94.0264 10.2412C93.9583 9.93118 93.7978 9.67743 93.5487 9.48087C93.2958 9.28743 92.9137 9.19025 92.3954 9.19025C91.8957 9.19025 91.3873 9.24275 90.8683 9.344L88.3561 19.6435H84.4966L87.6316 6.93903Z" fill="#4D4D4D"/>
</svg>
