<svg width="112" height="29" viewBox="0 0 112 29" fill="none" xmlns="http://www.w3.org/2000/svg">
<path d="M31.754 16.6864C31.7524 16.7872 31.7122 16.8833 31.6422 16.9535C31.5723 17.0238 31.4782 17.0626 31.3807 17.0615H24.5051C24.6814 18.8191 25.957 20.4266 27.7614 20.4266C28.9955 20.4266 29.9081 19.9443 30.5925 18.9262C30.6244 18.8727 30.6685 18.8282 30.7209 18.7964C30.7733 18.7646 30.8325 18.7466 30.8933 18.744C30.9385 18.7427 30.9836 18.7509 31.0257 18.7682C31.0678 18.7856 31.1061 18.8116 31.1381 18.8447C31.1702 18.8778 31.1953 18.9173 31.2121 18.9608C31.2288 19.0043 31.2368 19.0509 31.2355 19.0977C31.2357 19.1624 31.2177 19.2257 31.1836 19.2799C30.4888 20.5231 29.1096 21.1339 27.7614 21.1339C25.4488 21.1339 23.7896 18.9905 23.7896 16.7078C23.7896 14.4251 25.4384 12.2817 27.7614 12.2817C30.0844 12.2817 31.7436 14.4037 31.754 16.6864ZM31.0177 16.3542C30.8725 14.5966 29.5658 12.9891 27.7614 12.9891C25.957 12.9891 24.6814 14.5966 24.5051 16.3542H31.0177Z" fill="#3B3B3B"/>
<path d="M40.1124 12.4532C40.2023 12.4559 40.2878 12.4941 40.3515 12.5598C40.4151 12.6256 40.452 12.714 40.4546 12.8069C40.4559 12.8537 40.4479 12.9003 40.4312 12.9438C40.4144 12.9873 40.3893 13.0268 40.3572 13.0599C40.3252 13.0931 40.2869 13.1191 40.2448 13.1364C40.2027 13.1537 40.1577 13.1619 40.1124 13.1606H38.2664V20.6517C38.2656 20.7452 38.2293 20.8347 38.1653 20.9008C38.1013 20.967 38.0147 21.0045 37.9242 21.0053C37.8343 21.0027 37.7487 20.9645 37.6851 20.8988C37.6215 20.833 37.5846 20.7446 37.582 20.6517V13.1606H35.8087C35.7634 13.1619 35.7183 13.1537 35.6762 13.1364C35.6341 13.1191 35.5958 13.0931 35.5638 13.0599C35.5318 13.0268 35.5066 12.9873 35.4899 12.9438C35.4731 12.9003 35.4652 12.8537 35.4664 12.8069C35.4673 12.7134 35.5036 12.6239 35.5676 12.5578C35.6316 12.4916 35.7182 12.4541 35.8087 12.4532H37.582V9.72043C37.5822 9.62987 37.6136 9.54235 37.6706 9.4736C37.7277 9.40484 37.8065 9.35937 37.8931 9.34534C37.9415 9.33869 37.9907 9.34293 38.0374 9.35774C38.084 9.37256 38.127 9.39762 38.1635 9.43119C38.1999 9.46477 38.2289 9.50608 38.2485 9.5523C38.268 9.59852 38.2777 9.64856 38.2768 9.69899V12.4532H40.1124Z" fill="#3B3B3B"/>
<path d="M51.3644 16.0753V20.6086C51.3618 20.7015 51.3249 20.7899 51.2613 20.8557C51.1977 20.9214 51.1122 20.9595 51.0222 20.9622C50.9769 20.9636 50.9319 20.9553 50.8898 20.938C50.8476 20.9207 50.8094 20.8947 50.7774 20.8616C50.7453 20.8285 50.7202 20.789 50.7034 20.7455C50.6867 20.702 50.6787 20.6554 50.68 20.6086V16.0753C50.68 14.5428 49.84 13.021 48.1911 13.021C46.0756 13.021 45.163 14.9286 45.2874 16.8898C45.2874 16.9434 45.3081 17.1684 45.3081 17.2006V20.5979C45.308 20.6884 45.2765 20.7759 45.2195 20.8447C45.1625 20.9134 45.0836 20.9589 44.997 20.973C44.9486 20.9796 44.8994 20.9754 44.8528 20.9605C44.8061 20.9457 44.7631 20.9207 44.7267 20.8871C44.6902 20.8535 44.6613 20.8122 44.6417 20.766C44.6221 20.7198 44.6125 20.6697 44.6133 20.6193V5.71206C44.6141 5.61852 44.6505 5.52905 44.7145 5.46291C44.7785 5.39677 44.865 5.35924 44.9556 5.3584C45.0455 5.36109 45.131 5.39922 45.1947 5.46497C45.2583 5.53072 45.2952 5.61911 45.2978 5.71206V14.1356C45.8889 13.0424 46.9467 12.303 48.1807 12.303C50.2133 12.303 51.3644 14.1356 51.3644 16.0753Z" fill="#3B3B3B"/>
<path d="M63.7154 16.6864C63.7138 16.7872 63.6736 16.8833 63.6036 16.9535C63.5337 17.0238 63.4397 17.0626 63.3421 17.0615H56.4665C56.6428 18.8191 57.9184 20.4266 59.7228 20.4266C60.9569 20.4266 61.8695 19.9443 62.5539 18.9262C62.5858 18.8727 62.6299 18.8282 62.6823 18.7964C62.7348 18.7646 62.794 18.7466 62.8547 18.744C62.9 18.7427 62.9451 18.7509 62.9872 18.7682C63.0293 18.7856 63.0675 18.8116 63.0995 18.8447C63.1316 18.8778 63.1567 18.9173 63.1735 18.9608C63.1902 19.0043 63.1982 19.0509 63.1969 19.0977C63.1971 19.1624 63.1791 19.2257 63.1451 19.2799C62.4502 20.5231 61.071 21.1339 59.7228 21.1339C57.4102 21.1339 55.751 18.9905 55.751 16.7078C55.751 14.4251 57.3999 12.2817 59.7228 12.2817C62.0251 12.2817 63.7051 14.4037 63.7154 16.6864ZM62.9688 16.3542C62.8236 14.5966 61.5169 12.9891 59.7125 12.9891C57.908 12.9891 56.6325 14.5966 56.4562 16.3542H62.9688Z" fill="#3B3B3B"/>
<path d="M72.1675 12.7854C72.1741 12.8805 72.1439 12.9745 72.0837 13.0468C72.0235 13.119 71.938 13.1638 71.846 13.1712C69.8238 13.482 68.9112 15.1859 68.9112 17.1686V20.5658C68.911 20.6564 68.8796 20.7439 68.8226 20.8127C68.7655 20.8814 68.6866 20.9269 68.6001 20.9409C68.5517 20.9476 68.5025 20.9433 68.4558 20.9285C68.4091 20.9137 68.3661 20.8887 68.3297 20.8551C68.2933 20.8215 68.2643 20.7802 68.2447 20.734C68.2252 20.6877 68.2155 20.6377 68.2164 20.5873V12.8389C68.2165 12.7484 68.248 12.6609 68.305 12.5921C68.362 12.5234 68.4409 12.4779 68.5275 12.4638C68.5759 12.4572 68.6251 12.4614 68.6717 12.4763C68.7184 12.4911 68.7614 12.5161 68.7978 12.5497C68.8343 12.5833 68.8633 12.6246 68.8828 12.6708C68.9024 12.717 68.9121 12.7671 68.9112 12.8175V14.3929C69.4815 13.3962 70.6119 12.4531 71.7941 12.4531C71.9704 12.4531 72.1675 12.5817 72.1675 12.7854Z" fill="#3B3B3B"/>
<path d="M83.4713 16.6864C83.4696 16.7872 83.4295 16.8833 83.3595 16.9535C83.2895 17.0238 83.1955 17.0626 83.0979 17.0615H76.2224C76.3987 18.8191 77.6742 20.4266 79.4787 20.4266C80.7128 20.4266 81.6254 19.9443 82.3098 18.9262C82.3417 18.8727 82.3858 18.8282 82.4382 18.7964C82.4906 18.7646 82.5498 18.7466 82.6105 18.744C82.6558 18.7427 82.7009 18.7509 82.743 18.7682C82.7851 18.7856 82.8234 18.8116 82.8554 18.8447C82.8874 18.8778 82.9126 18.9173 82.9293 18.9608C82.9461 19.0043 82.9541 19.0509 82.9528 19.0977C82.953 19.1624 82.935 19.2257 82.9009 19.2799C82.2061 20.5231 80.8268 21.1339 79.4787 21.1339C77.1661 21.1339 75.5068 18.9905 75.5068 16.7078C75.5068 14.4251 77.1557 12.2817 79.4787 12.2817C81.8017 12.2817 83.4609 14.4037 83.4713 16.6864ZM82.735 16.3542C82.5898 14.5966 81.2831 12.9891 79.4787 12.9891C77.6742 12.9891 76.3987 14.5966 76.2224 16.3542H82.735Z" fill="#3B3B3B"/>
<path d="M94.5882 12.8711V20.6516C94.5856 20.7445 94.5487 20.8329 94.485 20.8987C94.4214 20.9644 94.3359 21.0025 94.2459 21.0052C94.2006 21.0066 94.1556 20.9983 94.1135 20.981C94.0714 20.9637 94.0331 20.9377 94.0011 20.9046C93.969 20.8715 93.9439 20.832 93.9271 20.7885C93.9104 20.745 93.9024 20.6984 93.9037 20.6516V19.1726C93.3333 20.3408 92.3274 21.1874 91.0415 21.1874C88.9985 21.1874 87.8682 19.3548 87.8682 17.4151V12.8604C87.869 12.7668 87.9053 12.6774 87.9693 12.6112C88.0333 12.5451 88.1199 12.5076 88.2104 12.5067C88.3003 12.5094 88.3859 12.5475 88.4495 12.6133C88.5131 12.679 88.55 12.7674 88.5526 12.8604V17.4151C88.5526 18.9476 89.3926 20.4694 91.0415 20.4694C93.3541 20.4694 93.9037 18.2296 93.9037 15.7539V12.8497C93.9045 12.7923 93.9185 12.736 93.9447 12.6854C93.9708 12.6349 94.0083 12.5915 94.054 12.559C94.0997 12.5264 94.1523 12.5057 94.2073 12.4985C94.2624 12.4912 94.3183 12.4977 94.3704 12.5174C94.4356 12.5487 94.4907 12.5987 94.5293 12.6614C94.5679 12.724 94.5883 12.7968 94.5882 12.8711Z" fill="#3B3B3B"/>
<path d="M112 16.0434V20.5981C111.997 20.6911 111.961 20.7795 111.897 20.8452C111.833 20.911 111.748 20.9491 111.658 20.9518C111.613 20.9531 111.568 20.9449 111.525 20.9276C111.483 20.9103 111.445 20.8843 111.413 20.8512C111.381 20.8181 111.356 20.7785 111.339 20.735C111.322 20.6915 111.314 20.6449 111.316 20.5981V16.0434C111.316 14.5109 110.476 13.0105 108.827 13.0105C106.753 13.0105 105.965 15.304 105.965 17.083V20.5981C105.962 20.6911 105.925 20.7795 105.861 20.8452C105.798 20.911 105.712 20.9491 105.622 20.9518C105.577 20.9531 105.532 20.9449 105.49 20.9276C105.448 20.9103 105.41 20.8843 105.377 20.8512C105.345 20.8181 105.32 20.7785 105.304 20.735C105.287 20.6915 105.279 20.6449 105.28 20.5981V16.0434C105.28 14.5109 104.44 13.0105 102.791 13.0105C100.696 13.0105 99.8357 14.7145 99.9082 16.9865C99.9082 17.0401 99.929 17.1366 99.9082 17.1687V20.5874C99.9081 20.678 99.8766 20.7655 99.8196 20.8342C99.7626 20.903 99.6837 20.9485 99.5971 20.9625C99.5487 20.9691 99.4995 20.9649 99.4529 20.9501C99.4062 20.9353 99.3632 20.9102 99.3268 20.8766C99.2903 20.8431 99.2614 20.8018 99.2418 20.7555C99.2222 20.7093 99.2126 20.6593 99.2134 20.6088V12.8391C99.2136 12.7485 99.245 12.661 99.3021 12.5922C99.3591 12.5235 99.438 12.478 99.5245 12.464C99.5729 12.4573 99.6221 12.4616 99.6688 12.4764C99.7155 12.4912 99.7585 12.5163 99.7949 12.5498C99.8313 12.5834 99.8603 12.6247 99.8799 12.6709C99.8994 12.7172 99.9091 12.7672 99.9082 12.8176V14.1144C100.499 13.0213 101.557 12.3032 102.791 12.3032C104.191 12.3032 105.28 13.2249 105.726 14.5645C106.296 13.2356 107.406 12.3032 108.827 12.3032C110.849 12.3032 112 14.1144 112 16.0434Z" fill="#3B3B3B"/>
<path opacity="0.6" d="M8.60741 10.7275L0 14.7678L8.60741 20.0298L17.2252 14.7678L8.60741 10.7275Z" fill="black"/>
<path opacity="0.45" d="M0 14.7679L8.60741 20.0299V0L0 14.7679Z" fill="black"/>
<path opacity="0.8" d="M8.60742 0V20.0299L17.2252 14.7679L8.60742 0Z" fill="black"/>
<path opacity="0.45" d="M0 16.4614L8.60741 29.0002V21.7127L0 16.4614Z" fill="black"/>
<path opacity="0.8" d="M8.60742 21.7127V29.0002L17.2252 16.4614L8.60742 21.7127Z" fill="black"/>
</svg>
