<svg width="84" height="38" viewBox="0 0 84 38" fill="none" xmlns="http://www.w3.org/2000/svg">
<path d="M56.5653 12.1431V26.0336C56.5666 26.0845 56.5576 26.1351 56.5386 26.1823C56.5197 26.2296 56.4913 26.2725 56.4552 26.3085C56.419 26.3444 56.3759 26.3727 56.3285 26.3916C56.281 26.4104 56.2302 26.4194 56.1791 26.4181H53.3328C53.2817 26.4194 53.2309 26.4104 53.1834 26.3916C53.1359 26.3727 53.0928 26.3444 53.0567 26.3085C53.0205 26.2725 52.9921 26.2296 52.9732 26.1823C52.9543 26.1351 52.9452 26.0845 52.9465 26.0336V12.1431C52.9452 12.0919 52.9543 12.041 52.9735 11.9936C52.9926 11.9461 53.0213 11.903 53.0578 11.867C53.0943 11.831 53.1378 11.8028 53.1856 11.7841C53.2335 11.7655 53.2847 11.7568 53.336 11.7586H56.1791C56.2304 11.7568 56.2816 11.7655 56.3295 11.7841C56.3773 11.8028 56.4208 11.831 56.4573 11.867C56.4938 11.903 56.5225 11.9461 56.5416 11.9936C56.5607 12.041 56.5699 12.0919 56.5686 12.1431H56.5653ZM78.7777 11.7586C78.8881 11.7586 79.0276 11.8135 79.1672 11.9233C79.2483 12.0041 79.2483 12.1431 79.2224 12.2529L74.5228 26.1725C74.4942 26.2439 74.445 26.3052 74.3815 26.3489C74.318 26.3926 74.243 26.4166 74.1658 26.4181H71.6246C71.4558 26.4181 71.3195 26.3373 71.2643 26.1725L68.5283 18.056L65.7924 26.1693C65.7642 26.2412 65.7152 26.3033 65.6517 26.3475C65.5882 26.3918 65.5129 26.4164 65.4353 26.4181H62.8876C62.7253 26.4181 62.5858 26.3373 62.5306 26.1693L57.8311 12.2529C57.8051 12.1431 57.8051 12.0332 57.8862 11.9233C57.9447 11.8135 58.081 11.7586 58.1913 11.7586H61.3687C61.5342 11.7586 61.6738 11.8684 61.7257 12.0332L64.241 20.2564L67.0062 12.0332C67.0344 11.9613 67.0833 11.8993 67.1468 11.855C67.2104 11.8107 67.2857 11.7861 67.3632 11.7844H69.6026C69.7649 11.7844 69.9045 11.8684 69.9596 12.0332L72.7248 20.2564L75.2401 12.0332C75.2623 11.9554 75.3089 11.8868 75.3732 11.8374C75.4374 11.7879 75.5159 11.7603 75.5971 11.7586H78.7777ZM83.5844 11.7586C83.7791 11.7586 83.9446 11.9233 83.9738 12.1431V26.0336C83.9752 26.0847 83.966 26.1356 83.9469 26.1831C83.9278 26.2306 83.8991 26.2736 83.8626 26.3097C83.8261 26.3457 83.7826 26.3739 83.7347 26.3925C83.6869 26.4112 83.6357 26.4199 83.5844 26.4181H80.7413C80.6899 26.4199 80.6388 26.4112 80.5909 26.3925C80.5431 26.3739 80.4996 26.3457 80.4631 26.3097C80.4266 26.2736 80.3979 26.2306 80.3788 26.1831C80.3596 26.1356 80.3505 26.0847 80.3518 26.0336V12.1431C80.3505 12.0919 80.3596 12.041 80.3788 11.9936C80.3979 11.9461 80.4266 11.903 80.4631 11.867C80.4996 11.831 80.5431 11.8028 80.5909 11.7841C80.6388 11.7655 80.6899 11.7568 80.7413 11.7586H83.5844ZM51.2913 25.9237C51.4536 26.1176 51.3173 26.3923 51.0674 26.3923H47.5849C47.5164 26.3935 47.4486 26.379 47.3867 26.3499C47.3247 26.3207 47.2704 26.2777 47.2279 26.2242L46.647 25.5134C45.4028 26.3109 43.9562 26.739 42.4765 26.7477C40.4708 26.6897 38.5669 25.8558 37.1689 24.423C35.7708 22.9902 34.9888 21.0713 34.9888 19.0738C34.9888 17.0763 35.7708 15.1574 37.1689 13.7246C38.5669 12.2918 40.4708 11.4579 42.4765 11.3999C43.8613 11.3994 45.2206 11.7702 46.4118 12.4733C47.603 13.1764 48.582 14.1859 49.2461 15.3957C49.9101 16.6055 50.2347 17.971 50.1857 19.3488C50.1367 20.7265 49.7159 22.0658 48.9675 23.2258L51.2913 25.9237ZM44.3816 22.8445L42.8627 21.0028C42.6971 20.8089 42.8335 20.5052 43.0834 20.5052H46.2867C46.4522 20.0657 46.5366 19.5682 46.5366 19.0738C46.5366 16.7926 44.823 14.8087 42.4765 14.8087C40.1267 14.8087 38.413 16.7926 38.413 19.0738C38.413 21.355 40.1267 23.3098 42.4765 23.3098C43.1385 23.3389 43.8006 23.1482 44.3816 22.8445Z" fill="#FF8C00"/>
<path d="M25.6239 23.5902C25.5874 23.2785 25.4049 22.5599 24.9282 22.376C24.692 22.2829 24.4902 22.3565 24.4 22.5232C24.2518 22.7807 24.3613 23.2785 24.6362 23.7201C24.911 24.1616 25.1666 24.3824 25.3491 24.3824C25.5316 24.3824 25.6969 24.1616 25.6239 23.5902Z" fill="#FF8C00"/>
<path d="M23.0644 24.8434C22.7724 24.588 22.4438 24.4581 22.1497 24.4581C22.0389 24.4523 21.9284 24.4707 21.827 24.5158C21.7255 24.5609 21.636 24.6294 21.5656 24.7157C21.2371 25.1204 21.3831 25.8563 21.8941 26.3C22.1131 26.5035 22.4417 26.6117 22.753 26.6117C23.0644 26.6117 23.3392 26.484 23.5024 26.2806C23.7945 25.8758 23.6313 25.3239 23.0644 24.8434Z" fill="#FF8C00"/>
<path d="M8.76777 27.6456C10.8353 29.0385 13.2661 29.7821 15.7529 29.7825L15.7551 29.7804C17.6017 29.7804 19.4291 29.4319 22.1153 29.4124C24.5116 29.4124 27.1421 30.2609 30.0301 32.8408C30.3222 33.0984 30.7087 32.7673 30.451 32.4534C27.6187 28.8237 24.9862 28.1419 22.3536 27.5532C19.137 26.8346 17.4922 25.0274 16.3391 23.0188C16.1201 22.6141 16.0128 22.6876 15.9913 23.2049C15.9701 23.9639 16.0247 24.7231 16.1545 25.4711H15.7723C11.1835 25.4711 7.45374 21.7093 7.45374 17.0862C7.45374 12.463 11.1835 8.70131 15.7701 8.70131C16.944 8.70223 18.1044 8.95338 19.1752 9.43828C20.246 9.92318 21.2029 10.6309 21.9832 11.5149C22.7635 12.3989 23.3495 13.4392 23.7027 14.5676C24.056 15.6961 24.1685 16.887 24.0328 18.0623C23.4122 17.9519 22.2227 17.9346 21.3831 18.0082C21.0717 18.045 21.1104 18.1922 21.3466 18.229C24.0886 18.7463 25.9718 20.4583 26.4098 23.5729C26.427 23.6465 26.5193 23.6638 26.5558 23.6097C27.7154 21.6414 28.328 19.3948 28.3295 17.1057C28.3291 14.599 27.5913 12.1488 26.2094 10.0648C24.8276 7.98077 22.8637 6.35655 20.5661 5.3975C18.2685 4.43845 15.7404 4.18763 13.3014 4.67676C10.8624 5.16588 8.62206 6.37299 6.86363 8.14545C5.1052 9.91791 3.90764 12.1761 3.42239 14.6346C2.93713 17.093 3.18597 19.6413 4.13743 21.9572C5.08889 24.2731 6.70025 26.2527 8.76777 27.6456Z" fill="#FF8C00"/>
</svg>
