<svg width="95" height="30" viewBox="0 0 95 30" fill="none" xmlns="http://www.w3.org/2000/svg">
<path d="M13.5613 27.8038C20.5494 27.8038 26.2144 22.1969 26.2144 15.2803C26.2144 8.36379 20.5494 2.75684 13.5613 2.75684C6.57319 2.75684 0.908203 8.36379 0.908203 15.2803C0.908203 22.1969 6.57319 27.8038 13.5613 27.8038Z" fill="#26A17B"/>
<path d="M14.9103 16.4361V16.4341C14.8228 16.4402 14.3712 16.4663 13.3663 16.4663C12.5627 16.4663 11.9992 16.4442 11.7999 16.4341V16.4361C8.70984 16.3012 6.40502 15.7697 6.40502 15.1315C6.40502 14.4952 8.71188 13.9617 11.7999 13.8268V15.9066C12.0013 15.9207 12.581 15.9549 13.3805 15.9549C14.3407 15.9549 14.8208 15.9147 14.9103 15.9066V13.8288C17.9942 13.9657 20.2929 14.4972 20.2929 15.1335C20.2929 15.7697 17.9922 16.3012 14.9103 16.4382M14.9103 13.6133V11.7529H19.2127V8.91602H7.49946V11.7529H11.8019V13.6133C8.30502 13.7724 5.67676 14.457 5.67676 15.2784C5.67676 16.0999 8.30706 16.7845 11.8019 16.9455V22.9093H14.9123V16.9455C18.4031 16.7865 21.0273 16.1019 21.0273 15.2804C21.0273 14.461 18.4031 13.7744 14.9123 13.6153" fill="white"/>
<path d="M36.9626 9.69144V12.6995H39.9163V14.9565H36.9422V19.533C36.9422 20.5438 37.5057 21.0371 38.3316 21.0371C38.7446 21.0371 39.2226 20.9082 39.6132 20.7149L40.3517 22.9498C39.5929 23.2498 38.9623 23.3787 38.1587 23.4008C35.8356 23.4874 34.316 22.1767 34.316 19.533V14.9565H32.3184V12.6995H34.316V9.9713L36.9626 9.69144ZM87.8862 12.5586L88.0815 13.7827C88.9074 12.472 90.0141 12.2787 91.1004 12.2787C92.207 12.2787 93.2709 12.7075 93.8568 13.2874L92.6627 15.5646C92.1195 15.1136 91.6211 14.876 90.7525 14.876C89.3631 14.876 88.0815 15.6069 88.0815 17.5619V23.1492H85.4329V12.5545L87.8862 12.5586ZM81.3949 16.6196C81.222 15.2445 80.1357 14.5559 78.6161 14.5559C77.184 14.5559 76.0102 15.2445 75.6197 16.6196H81.3949ZM75.5769 18.7901C75.7498 20.1008 76.9012 21.0471 78.7687 21.0471C79.7451 21.0471 81.0267 20.6807 81.635 20.0586L83.3275 21.7136C82.1984 22.8733 80.3534 23.433 78.7239 23.433C75.0338 23.433 72.8388 21.176 72.8388 17.7814C72.8388 14.5579 75.0541 12.2364 78.5286 12.2364C82.111 12.2364 84.3487 14.429 83.9357 18.7901H75.5769ZM63.8962 8.10889V13.9961C64.8523 12.772 66.024 12.4055 67.2405 12.4055C70.2797 12.4055 71.6264 14.4471 71.6264 17.5639V23.1512H68.9778V17.5861C68.9778 15.6512 67.9566 14.8357 66.5448 14.8357C64.9805 14.8357 63.8962 16.1465 63.8962 17.7371V23.1532H61.2476V8.1109L63.8962 8.10889ZM56.8617 9.57063V12.5787H59.8155V14.8357H56.8414V19.4122C56.8414 20.423 57.4069 20.9163 58.2308 20.9163C58.6437 20.9163 59.1218 20.7874 59.5124 20.5941L60.2508 22.829C59.492 23.129 58.8614 23.2579 58.0579 23.28C55.7347 23.3666 54.2152 22.0539 54.2152 19.4122V14.8357H52.2175V12.5787H54.2152V9.8505L56.8617 9.57063ZM49.5445 16.6196C49.3716 15.2445 48.2853 14.5559 46.7657 14.5559C45.3336 14.5559 44.1598 15.2445 43.7692 16.6196H49.5445ZM43.7265 18.7901C43.8994 20.1008 45.0508 21.0471 46.9183 21.0471C47.8947 21.0471 49.1763 20.6807 49.7845 20.0586L51.477 21.7136C50.348 22.8733 48.5029 23.433 46.8735 23.433C43.1813 23.433 40.9884 21.176 40.9884 17.7814C40.9884 14.5579 43.2037 12.2364 46.6762 12.2364C50.2585 12.2364 52.4942 14.429 52.0832 18.7901H43.7265Z" fill="#5B5A5D"/>
</svg>
