<svg width="101" height="34" viewBox="0 0 101 34" fill="none" xmlns="http://www.w3.org/2000/svg">
<path d="M7.46523 17.2178C4.25958 9.19732 1.75653 2.4845 1.88827 2.31014C2.06392 2.17937 7.28958 2.96399 13.4813 4.05373L24.8109 6.10245L27.7531 9.02296L30.6513 11.9871L22.4835 21.8819C17.9604 27.3307 14.0522 31.7768 13.7887 31.7768C13.5252 31.8204 10.7148 25.2383 7.46523 17.2178ZM14.3157 20.1383C14.7109 16.9563 14.9744 14.2973 14.8865 14.2101C14.7987 14.1666 13.0422 12.7281 10.9783 11.0717C5.13784 6.3204 5.53306 6.53835 6.23566 8.28194C6.58697 9.11014 8.34349 13.4691 10.1439 17.9589C11.9444 22.405 13.4374 26.023 13.4813 25.9794C13.5252 25.9358 13.9204 23.3204 14.3157 20.1383ZM21.21 19.8332C24.0205 16.4768 26.2161 13.6871 26.1722 13.5999C26.0405 13.4691 17.4774 14.9076 17.2139 15.0819C16.9944 15.2127 15.8526 23.8435 15.8087 25.2383C15.8087 25.805 15.8965 26.1973 15.9844 26.1101C16.0722 26.023 18.4435 23.1896 21.21 19.8332ZM23.8448 11.7691L26.8748 11.2024L25.5574 9.89476C24.0644 8.4127 23.9326 8.45629 20.6391 11.3332C19.4974 12.3358 19.3218 12.6409 19.9805 12.4666C20.4635 12.3794 22.22 12.0307 23.8448 11.7691ZM18.9265 9.93835C20.4196 8.67424 21.4735 7.62809 21.2539 7.54091C19.8048 7.19219 8.16784 5.23065 7.90436 5.31783C7.55306 5.4486 15.3257 12.1178 15.8965 12.1614C16.0283 12.205 17.3896 11.2024 18.9265 9.93835Z" fill="#D61719"/>
<path d="M93.7105 19.6151L88.4849 13.5125L88.3531 18.9612C88.2653 24.0612 88.1775 24.4099 87.387 24.4099C86.5527 24.4099 86.5088 24.0612 86.5088 16.3458C86.5088 11.8997 86.5966 8.28174 86.6844 8.28174C86.8162 8.28174 89.2314 10.9407 92.0857 14.2099L97.2675 20.1381L97.3992 14.8638C97.487 9.93815 97.5749 9.58943 98.3653 9.58943C99.1997 9.58943 99.2436 9.93815 99.2436 17.6535C99.2436 22.0997 99.1997 25.7176 99.1118 25.7176C99.024 25.7176 96.6088 22.9715 93.7105 19.6151Z" fill="#D61719"/>
<path d="M39.9609 19.1795C39.9609 14.2539 40.0049 13.9487 40.8392 13.9487C41.6735 13.9487 41.7175 14.2539 41.7175 19.1795C41.7175 24.1051 41.6735 24.4103 40.8392 24.4103C40.0049 24.4103 39.9609 24.1051 39.9609 19.1795Z" fill="#D61719"/>
<path d="M42.5957 19.1795C42.5957 14.2539 42.6396 13.9487 43.474 13.9487C44.3083 13.9487 44.3522 14.2539 44.3522 19.1795C44.3522 24.1051 44.3083 24.4103 43.474 24.4103C42.6396 24.4103 42.5957 24.1051 42.5957 19.1795Z" fill="#D61719"/>
<path d="M51.8174 17.0001V9.58984H56.9113C59.6778 9.58984 62.3565 9.80779 62.8396 10.0257C63.2787 10.2873 63.9813 11.0719 64.3326 11.7693C65.3865 13.7745 65.1669 15.4745 63.6739 17.1745L62.3126 18.7001L63.6739 21.3155C64.3765 22.7539 64.9913 24.0616 64.9913 24.1924C64.9913 24.3232 64.5522 24.4104 64.0252 24.4104C63.2348 24.4104 62.6639 23.7565 61.4783 21.577C60.0291 18.8745 59.8535 18.7437 58.3165 18.7437H56.6478V21.577C56.6478 24.1052 56.56 24.4104 55.7696 24.4104C54.9791 24.4104 54.8913 24.1052 54.8913 20.7488V17.1309L58.2287 16.9129C61.6539 16.695 62.4443 16.2591 63.0152 14.5155C63.1909 13.7745 62.9713 13.2514 62.1809 12.4232C61.1709 11.4206 60.7317 11.3334 57.3065 11.3334H53.5739V17.8719C53.5739 24.1052 53.53 24.4104 52.6956 24.4104C51.8613 24.4104 51.8174 24.1052 51.8174 17.0001Z" fill="#D61719"/>
<path d="M73.1151 23.7565C68.5481 22.1437 66.7477 16.6078 69.5142 12.6411C70.8316 10.6796 73.0711 9.58984 75.7937 9.58984C81.239 9.58984 84.6642 15.3001 82.249 20.3565C80.8437 23.3642 76.5403 24.977 73.1151 23.7565ZM79.2629 20.9232C81.6781 18.6565 81.7659 15.2129 79.4385 13.0334C75.9255 9.7642 70.2168 12.0745 70.2607 16.695C70.3046 18.918 71.0072 20.2693 72.7198 21.4027C74.4324 22.5796 77.7698 22.318 79.2629 20.9232Z" fill="#D61719"/>
<path d="M74.6523 16.8257C74.6523 15.9103 74.8719 15.6924 75.7941 15.6924C76.7163 15.6924 76.8919 15.8667 76.7602 16.6949C76.6723 17.3052 76.2771 17.6975 75.6623 17.7847C74.828 17.9155 74.6523 17.7411 74.6523 16.8257Z" fill="#D61719"/>
<path d="M89.1436 21.3589C89.1436 18.6127 89.2314 18.3076 90.0218 18.3076C90.8123 18.3076 90.9001 18.6127 90.9001 21.3589C90.9001 24.1051 90.8123 24.4102 90.0218 24.4102C89.2314 24.4102 89.1436 24.1051 89.1436 21.3589Z" fill="#D61719"/>
<path d="M35.5693 10.4616C35.5693 9.63343 35.8767 9.58984 42.1563 9.58984C48.4359 9.58984 48.7432 9.63343 48.7432 10.4616C48.7432 11.2898 48.4359 11.3334 42.1563 11.3334C35.8767 11.3334 35.5693 11.2898 35.5693 10.4616Z" fill="#D61719"/>
</svg>
