<svg width="26" height="26" viewBox="0 0 26 26" fill="none" xmlns="http://www.w3.org/2000/svg">
<path d="M12.0004 19.0734C11.7034 18.5803 12.4366 18.1302 12.7442 18.614L13.3392 19.5765L14.9181 18.2903L13.9425 12.8661L11.2567 15.7843L8.97338 16.042C8.84651 16.0551 8.72838 16.1295 8.65838 16.2345L7.36338 18.1988L8.43526 20.4292C8.47463 20.5123 8.48776 20.6086 8.47026 20.7005L8.13338 22.5467C8.01963 23.1093 7.1757 22.9619 7.27151 22.3892L7.58651 20.683L6.69838 18.8498L3.42676 20.1142C3.33051 20.1536 3.25176 20.2192 3.20363 20.3111L0.810945 24.5981C0.64207 24.8733 0.86782 25.2597 1.19157 25.25H10.7098L12.7398 20.2717L12.0004 19.0734Z" fill="white"/>
<path d="M17.2581 14.7513C17.2325 14.679 17.1852 14.6163 17.1225 14.572L14.8125 12.7611L15.8231 18.3909C15.8538 18.544 15.7925 18.7059 15.67 18.8065L13.5923 20.4996L11.6546 25.25H18.1331C18.2688 25.25 18.3956 25.1888 18.4788 25.0838C18.5619 24.9788 18.5925 24.8431 18.5619 24.7119L17.91 21.9819L19.0256 19.3971C19.0738 19.2878 19.0738 19.1653 19.03 19.0559L17.2581 14.7513ZM8.05883 13.9643C8.25133 14.029 8.46396 13.9433 8.57071 13.7674C9.7596 11.711 11.1661 9.78839 12.7659 8.03264L13.2996 8.56202C13.619 8.89102 14.1471 8.8827 14.4673 8.56202L14.7648 8.26451C14.9503 8.07639 15.3835 7.64764 15.5655 7.46389C15.877 7.15108 15.8866 6.61777 15.5611 6.30014L15.0317 5.76639C16.7875 4.16672 18.7101 2.76039 20.7665 1.57164C21.1602 1.35727 20.9633 0.694016 20.5083 0.753516C17.2193 1.03384 14.1352 2.46777 11.801 4.80193C9.46684 7.13608 8.03291 10.2202 7.75258 13.5093C7.73508 13.7149 7.86196 13.903 8.05883 13.9643ZM24.76 15.5388L21.358 12.3215L16.4711 7.70014C16.3967 7.84014 16.2961 7.97139 16.1823 8.08514C15.9133 8.32839 15.016 9.31714 14.7036 9.47202L17.0831 11.9911L22.5379 17.7609C22.831 18.0715 23.2291 18.2421 23.6535 18.2509C25.0544 18.3078 25.7986 16.4799 24.76 15.5388Z" fill="white"/>
</svg>
