<svg width="28" height="28" viewBox="0 0 28 28" fill="none" xmlns="http://www.w3.org/2000/svg">
<g clip-path="url(#clip0_70_791)">
<path d="M12.2815 16.1388H11.0958V14.953C11.0958 14.4999 10.7285 14.1326 10.2755 14.1326C9.82238 14.1326 9.45506 14.4999 9.45506 14.953V16.1388H8.26932C7.81625 16.1388 7.44893 16.5061 7.44893 16.9592V20.9713C7.44893 21.4243 7.81625 21.7916 8.26932 21.7916H9.45506V23.0443C9.45506 23.4974 9.82238 23.8647 10.2755 23.8647C10.7285 23.8647 11.0958 23.4974 11.0958 23.0443V21.7916H12.2815C12.7346 21.7916 13.1019 21.4243 13.1019 20.9713V16.9592C13.1019 16.5061 12.7346 16.1388 12.2815 16.1388ZM19.7306 12.1264H18.5449V10.9406C18.5449 10.4875 18.1776 10.1202 17.7245 10.1202C17.2714 10.1202 16.9041 10.4875 16.9041 10.9406V12.1264H15.7184C15.2653 12.1264 14.898 12.4937 14.898 12.9468V16.9588C14.898 17.4119 15.2653 17.7792 15.7184 17.7792H16.9041V23.0444C16.9041 23.4975 17.2714 23.8648 17.7245 23.8648C18.1776 23.8648 18.5449 23.4975 18.5449 23.0444V17.7792H19.7306C20.1836 17.7792 20.551 17.4119 20.551 16.9588V12.9468C20.551 12.4937 20.1836 12.1264 19.7306 12.1264ZM27.1796 6.14143H25.9939V4.95558C25.9939 4.50251 25.6266 4.13519 25.1735 4.13519C24.7204 4.13519 24.3531 4.50251 24.3531 4.95558V6.14138H23.1674C22.7143 6.14138 22.347 6.50869 22.347 6.96177V12.9467C22.347 13.3998 22.7143 13.7671 23.1674 13.7671H24.3531V17.0256C24.3531 17.4787 24.7204 17.846 25.1735 17.846C25.6266 17.846 25.9939 17.4787 25.9939 17.0256V13.7671H27.1796C27.6327 13.7671 28 13.3998 28 12.9467V6.96182C28 6.50875 27.6327 6.14143 27.1796 6.14143ZM4.83254 10.0535H3.64691V4.95564C3.64691 4.50256 3.2796 4.13525 2.82652 4.13525C2.37345 4.13525 2.00613 4.50256 2.00613 4.95564V10.0535H0.820391C0.367316 10.0535 0 10.4209 0 10.8739V17.0257C0 17.4787 0.367316 17.8461 0.820391 17.8461H2.00613V19.0319C2.00613 19.4849 2.37345 19.8522 2.82652 19.8522C3.2796 19.8522 3.64691 19.4849 3.64691 19.0319V17.8461H4.8326C5.28567 17.8461 5.65299 17.4787 5.65299 17.0257V10.8739C5.65293 10.4209 5.28567 10.0535 4.83254 10.0535Z" fill="white"/>
</g>
<defs>
<clipPath id="clip0_70_791">
<rect width="28" height="28" fill="white"/>
</clipPath>
</defs>
</svg>
