<svg width="444" height="345" viewBox="0 0 444 345" fill="none" xmlns="http://www.w3.org/2000/svg">
<g clip-path="url(#clip0_707_110)">
<path d="M224.019 340.983C281.957 340.983 328.924 313.796 328.924 280.26C328.924 246.723 281.957 219.537 224.019 219.537C166.082 219.537 119.115 246.723 119.115 280.26C119.115 313.796 166.082 340.983 224.019 340.983Z" fill="#3E64F0"/>
<path d="M129.534 332.165L111.913 342.366L189.509 219.652L235.326 239.063L301.509 134.398L320.2 142.317L379.377 48.7348L396.993 38.5334L320.2 159.984L301.509 152.06L235.326 256.73L189.509 237.315L129.534 332.165Z" fill="#E3DFEA"/>
<path d="M134.069 334.803L116.452 345L194.049 222.286L239.861 241.697L306.045 137.032L324.735 144.951L383.912 51.3685L401.533 41.1716L324.735 162.618L306.045 154.699L239.861 259.363L194.049 239.953L134.069 334.803Z" fill="url(#paint0_linear_707_110)"/>
<path d="M384.081 31.1038L401.533 41.1716L383.912 51.3685L324.735 144.951L306.045 137.032L239.861 241.697L194.049 222.286L116.452 345L99 334.937L176.597 212.223L222.409 231.633L288.592 126.969L307.283 134.888L366.46 41.3051L384.081 31.1038Z" fill="url(#paint1_linear_707_110)"/>
<path d="M314.751 71.433V91.4085L401.493 41.0692V127.689L420.973 116.54V34.9787V10.0471V9.94922L314.751 71.433Z" fill="url(#paint2_linear_707_110)"/>
<path d="M314.778 71.4552L302.016 64.3859L408.238 3L421 10.0693L314.778 71.4552Z" fill="url(#paint3_linear_707_110)"/>
<path d="M314.751 91.364L302.016 84.317V64.3904L314.751 71.4374V91.364Z" fill="url(#paint4_linear_707_110)"/>
<path d="M401.498 127.338L388.407 120.139V61.6096L401.498 41.2292V127.338Z" fill="url(#paint5_linear_707_110)"/>
<path d="M278.99 98.3175L280.933 95.537L271.113 89.9447C270.927 89.8335 270.745 89.7312 270.559 89.6288C261.919 84.8997 249.335 86.0697 235.321 94.1667C209.274 109.244 188.156 142.66 188.156 168.752C188.156 179.715 191.879 187.651 198.123 192.056C199.052 192.709 200.034 193.282 201.06 193.769L209.571 198.751L211.457 196.029C218.45 196.095 226.597 193.742 235.299 188.706C261.347 173.628 282.46 140.235 282.46 114.12C282.46 107.829 281.226 102.526 278.99 98.3175Z" fill="#FF9D4D"/>
<path d="M258.844 87.5869C262.786 87.5122 266.683 88.4381 270.173 90.2785H270.213C270.386 90.3719 270.55 90.4698 270.728 90.5721L279.824 95.7551L278.369 97.8638L278.107 98.242L278.324 98.6513C280.565 102.869 281.706 108.074 281.706 114.116C281.706 139.95 260.717 173.112 234.922 188.047C226.757 192.768 218.748 195.268 211.75 195.268H211.062L210.823 195.637L209.336 197.786L201.411 193.137H201.384H201.358C200.37 192.66 199.421 192.103 198.522 191.473L198.487 191.446C193.246 187.732 190.007 181.521 189.128 173.482C189.093 173.184 189.062 172.881 189.039 172.592C188.933 171.382 188.88 170.105 188.88 168.806C188.878 166.497 189.026 164.191 189.323 161.901C189.359 161.639 189.394 161.372 189.434 161.105C189.92 157.836 190.639 154.607 191.587 151.442L191.808 150.703C192.756 147.642 193.873 144.636 195.154 141.699L195.456 141.009C196.712 138.175 198.145 135.319 199.72 132.53C199.84 132.312 199.96 132.085 200.089 131.876C201.642 129.157 203.346 126.457 205.156 123.868L205.6 123.249C207.437 120.642 209.398 118.097 211.444 115.686L211.936 115.103C214.058 112.625 216.294 110.236 218.593 107.985L219.156 107.438C221.572 105.125 224.107 102.939 226.749 100.889L227.396 100.395C230.038 98.3662 232.802 96.5015 235.672 94.8119L236.222 94.496L236.981 94.0734C240.368 92.1767 243.936 90.6238 247.631 89.4376L247.742 89.402L248.723 89.1084C252.004 88.1345 255.404 87.6224 258.826 87.5869H258.844ZM258.844 86.8306C255.354 86.8654 251.886 87.388 248.541 88.3832L247.547 88.6769C243.76 89.882 240.105 91.4664 236.635 93.406L235.863 93.8509L235.313 94.1668C232.421 95.8486 229.635 97.7073 226.97 99.7324L226.318 100.231C223.654 102.296 221.099 104.5 218.664 106.833L218.1 107.38C215.77 109.645 213.529 112.038 211.4 114.534C211.231 114.725 211.067 114.921 210.898 115.117C208.83 117.572 206.865 120.126 205.019 122.747C204.872 122.951 204.726 123.16 204.575 123.369C202.747 126.003 201.025 128.708 199.472 131.449C199.343 131.667 199.219 131.893 199.099 132.107C197.515 134.919 196.077 137.779 194.804 140.649C194.702 140.885 194.595 141.116 194.497 141.347C193.206 144.309 192.08 147.34 191.125 150.428C191.05 150.677 190.974 150.926 190.903 151.175C189.942 154.38 189.214 157.651 188.724 160.963C188.684 161.234 188.649 161.505 188.613 161.772C188.304 164.092 188.145 166.43 188.139 168.77C188.139 170.105 188.196 171.382 188.303 172.623C188.329 172.935 188.361 173.246 188.396 173.553C189.328 182.059 192.807 188.337 198.105 192.074C199.042 192.72 200.03 193.287 201.06 193.769L209.571 198.751L211.457 196.029H211.75C218.681 196.029 226.722 193.671 235.299 188.706C261.342 173.629 282.46 140.235 282.46 114.12C282.46 107.812 281.226 102.504 278.99 98.2998L280.934 95.5371L271.118 89.9448L270.563 89.6289C266.962 87.727 262.94 86.7689 258.871 86.8439L258.844 86.8306Z" fill="#FFE840"/>
<path d="M273.21 168.352C294.027 140.604 298.211 108.539 282.555 96.7322C266.898 84.9252 237.331 97.8474 216.513 125.595C195.696 153.342 191.512 185.407 207.169 197.214C222.825 209.021 252.393 196.099 273.21 168.352Z" fill="#FFD071"/>
<path d="M273.21 168.352C294.027 140.604 298.211 108.539 282.555 96.7322C266.898 84.9252 237.331 97.8474 216.513 125.595C195.696 153.342 191.512 185.407 207.169 197.214C222.825 209.021 252.393 196.099 273.21 168.352Z" fill="#FFE840"/>
<path d="M246.069 188.283C235.064 194.654 224.716 196.349 216.933 193.052C209.15 189.756 204.863 181.859 204.863 170.808C204.863 159.757 209.15 146.917 216.933 134.607C224.716 122.297 235.064 112.011 246.069 105.641C257.074 99.2697 267.426 97.5969 275.209 100.876C282.993 104.155 287.275 112.069 287.275 123.12C287.275 134.171 282.988 147.011 275.209 159.321C267.431 171.631 257.078 181.912 246.069 188.283ZM246.069 107.932C224.601 120.362 207.131 147.972 207.131 169.513C207.131 191.055 224.601 198.431 246.069 186.01C267.537 173.588 285.007 145.97 285.007 124.433C285.007 102.896 267.542 95.5059 246.069 107.932Z" fill="#FF9D4D"/>
<path d="M251.837 139.986V146.286C251.707 146.348 251.574 146.419 251.438 146.499L247.99 148.479V142.611L249.929 141.485C250.633 141.079 251.276 140.574 251.837 139.986Z" fill="#D1975D"/>
<path d="M251.061 156.812C251.328 156.656 251.588 156.487 251.837 156.304V169.131L247.99 171.355V158.587L251.061 156.812Z" fill="#D1975D"/>
<path d="M261.48 140.916C260.205 139.981 258.473 139.823 256.284 140.44C258.011 138.711 259.399 136.672 260.375 134.429C261.25 132.522 261.727 130.455 261.777 128.356C261.796 127.266 261.584 126.183 261.156 125.18C260.811 124.29 260.185 123.537 259.373 123.036C258.562 122.536 257.609 122.315 256.661 122.408C255.378 122.524 254.141 122.945 253.053 123.636L251.837 124.335V118.106L247.99 120.331V126.559L243.313 129.268V123.04L239.461 125.264V131.493L232.592 135.47V173.838L239.461 169.834V176.284L243.313 174.06V167.609L251.061 163.125C251.323 162.969 251.58 162.818 251.837 162.657C253.245 161.787 254.581 160.803 255.831 159.717C257.279 158.466 258.597 157.071 259.762 155.553C260.852 154.138 261.748 152.584 262.425 150.93C263.059 149.401 263.389 147.763 263.397 146.108C263.394 143.592 262.755 141.862 261.48 140.916ZM253.244 131.204C254.052 131.598 254.455 132.534 254.455 134.011C254.445 135.552 253.982 137.056 253.124 138.335C252.75 138.929 252.316 139.482 251.828 139.986C251.267 140.574 250.624 141.079 249.92 141.485L243.304 145.32L240.016 147.22V137.557L250.244 131.635C250.732 131.338 251.268 131.13 251.828 131.021C252.308 130.93 252.803 130.994 253.244 131.204ZM255.529 151.202C255.276 151.967 254.933 152.701 254.509 153.386C254.074 154.09 253.558 154.741 252.973 155.326C252.62 155.681 252.241 156.008 251.837 156.304C251.587 156.487 251.328 156.656 251.061 156.812L240.025 163.2V153.106L243.313 151.202L251.438 146.499C251.577 146.419 251.71 146.348 251.837 146.286C252.266 146.064 252.733 145.925 253.213 145.876C253.7 145.822 254.191 145.925 254.615 146.17C255.032 146.435 255.359 146.819 255.556 147.273C255.805 147.832 255.924 148.441 255.906 149.053C255.897 149.785 255.77 150.51 255.529 151.202Z" fill="#FF9D4D"/>
<path d="M249.561 100.902L249.184 101.556L235.85 93.8375L236.622 93.3926L249.561 100.902Z" fill="#FFE840"/>
<path d="M237.78 105.988L237.403 106.659L226.309 100.235L226.961 99.7368L237.78 105.988Z" fill="#FFE840"/>
<path d="M229.579 113.146L229.202 113.8L218.086 107.367L218.65 106.819L229.579 113.146Z" fill="#FFE840"/>
<path d="M221.375 120.304L220.998 120.958L210.885 115.112C211.053 114.916 211.218 114.721 211.386 114.529L221.375 120.304Z" fill="#FFE840"/>
<path d="M216.742 129.527L216.365 130.185L204.57 123.356C204.712 123.147 204.859 122.938 205.014 122.733L216.742 129.527Z" fill="#FFE840"/>
<path d="M213.764 139.772L213.387 140.426L199.094 132.094C199.214 131.871 199.338 131.649 199.467 131.435L213.764 139.772Z" fill="#FFE840"/>
<path d="M207.947 148.248L207.57 148.906L194.493 141.343L194.799 140.645L207.947 148.248Z" fill="#FFE840"/>
<path d="M205.733 158.876L205.355 159.53L190.898 151.148C190.969 150.899 191.045 150.65 191.12 150.401L205.733 158.876Z" fill="#FFE840"/>
<path d="M201.997 168.615L201.619 169.273L188.609 161.741C188.644 161.474 188.68 161.203 188.72 160.931L201.997 168.615Z" fill="#FFE840"/>
<path d="M202.556 180.845L202.179 181.503L188.392 173.522C188.356 173.215 188.325 172.903 188.298 172.592L202.556 180.845Z" fill="#FFE840"/>
<path d="M260.89 95.5371L260.513 96.1955L247.538 88.6813L248.532 88.3877L260.89 95.5371Z" fill="#FFE840"/>
<path d="M216.693 177.294L216.516 177.05C216.281 176.728 215.954 176.486 215.577 176.357C215.201 176.228 214.794 176.218 214.412 176.329C214.337 176.35 214.268 176.388 214.209 176.44C214.15 176.492 214.104 176.556 214.074 176.629C214.043 176.701 214.03 176.779 214.034 176.857C214.038 176.936 214.06 177.012 214.097 177.081L215.016 178.78C215.056 178.853 215.112 178.915 215.18 178.963L218.442 181.223C218.546 181.296 218.674 181.328 218.801 181.313C218.927 181.298 219.044 181.238 219.129 181.143L220.052 180.119C220.104 180.062 220.143 179.994 220.165 179.92C220.188 179.846 220.194 179.768 220.183 179.692C220.172 179.615 220.144 179.542 220.101 179.478C220.059 179.413 220.003 179.359 219.937 179.319L216.831 177.432C216.776 177.396 216.73 177.349 216.693 177.294Z" fill="#FFD0A6"/>
<path d="M249.113 129.131L250.062 126.372L252.845 118.302L256.838 122.137L258.529 129.349C258.733 130.225 258.667 131.143 258.34 131.981C258.012 132.819 257.439 133.537 256.696 134.042L252.259 136.173L249.113 129.131Z" fill="#FFD0A6"/>
<path d="M121.52 141.245L173.495 178.754C174.77 179.674 175.812 180.882 176.536 182.28C177.261 183.679 177.647 185.228 177.664 186.803C177.681 188.379 177.329 189.936 176.636 191.35C175.942 192.764 174.927 193.995 173.672 194.943L140.507 220.022L130.745 212.129C130.745 212.129 151.157 191.353 149.875 190.53C149.147 190.085 133.833 178.638 120.588 168.73C118.427 167.114 116.688 164.996 115.52 162.56C114.352 160.123 113.79 157.439 113.882 154.737C113.973 152.035 114.716 149.395 116.046 147.043C117.376 144.692 119.254 142.698 121.52 141.232V141.245Z" fill="url(#paint6_linear_707_110)"/>
<path d="M146.378 219.59L143.525 222.642C142.797 223.416 142.391 224.439 142.391 225.503C142.391 226.566 142.797 227.59 143.525 228.363L147.368 232.425C147.911 232.998 148.305 233.697 148.514 234.459C148.724 235.221 148.743 236.023 148.57 236.794C148.401 237.553 148.051 238.259 147.551 238.853C147.05 239.447 146.414 239.911 145.696 240.204C144.978 240.498 144.199 240.613 143.427 240.54C142.655 240.467 141.912 240.207 141.262 239.784L139.123 238.391C135.104 235.776 131.783 232.216 129.449 228.021L122.997 216.396C122.509 215.518 122.232 214.537 122.191 213.532C122.149 212.527 122.343 211.527 122.758 210.611C123.172 209.695 123.795 208.89 124.577 208.259C125.358 207.629 126.276 207.191 127.257 206.982L140.712 204.112L146.378 219.59Z" fill="#281A10"/>
<path d="M174.436 160.309L160.396 226.975L139.775 280.451L119.882 271.713C123.127 254.074 128.68 236.942 136.398 220.76L140.969 151.718L141.027 150.917L174.436 160.309Z" fill="url(#paint7_linear_707_110)"/>
<path d="M167.931 159.294L153.864 225.961L133.856 277.844L119.882 271.713C123.127 254.074 128.68 236.942 136.398 220.76L137.357 150.703L167.931 159.294Z" fill="url(#paint8_linear_707_110)"/>
<path d="M185.92 74.3604C197.457 80.7179 202.338 95.9598 198.26 108.497C191.351 129.758 182.645 162.956 172.701 182.233C172.026 183.554 170.919 184.604 169.566 185.205C168.212 185.807 166.693 185.924 165.264 185.538L154.703 182.673C139.172 178.451 133.647 166.657 121.129 156.514C118.734 154.568 117.035 151.893 116.29 148.894C115.545 145.894 115.793 142.733 116.998 139.888L135.293 105.694L142.97 63.5629C143.726 61.2906 144.993 59.2232 146.674 57.5211C148.355 55.819 150.404 54.5279 152.663 53.7479C154.922 52.9679 157.33 52.72 159.7 53.0233C162.069 53.3266 164.338 54.1731 166.329 55.4971L185.92 74.3604Z" fill="url(#paint9_linear_707_110)"/>
<path d="M201.229 98.9583L209.846 142.397L194.928 135.577L248.838 127.845C249.853 127.701 250.886 127.92 251.755 128.465C252.624 129.009 253.274 129.844 253.59 130.821L253.666 131.053C254.052 132.252 253.957 133.555 253.402 134.686C252.847 135.816 251.876 136.687 250.692 137.112L204.756 153.573C203.453 154.425 201.964 154.948 200.415 155.1C198.866 155.251 197.304 155.026 195.861 154.443C194.418 153.86 193.136 152.937 192.124 151.752C191.113 150.566 190.402 149.153 190.051 147.634L189.842 146.744L179.894 103.545C179.568 102.132 179.525 100.667 179.769 99.2369C180.013 97.8068 180.539 96.4396 181.314 95.2149C182.09 93.9902 183.102 92.9325 184.289 92.1034C185.477 91.2742 186.817 90.6902 188.232 90.3853C189.647 90.0808 191.109 90.0618 192.532 90.3292C193.955 90.5967 195.311 91.1453 196.521 91.9431C197.73 92.741 198.769 93.7721 199.578 94.9765C200.386 96.1808 200.947 97.5344 201.229 98.9583Z" fill="url(#paint10_linear_707_110)"/>
<path d="M167.363 57.0185L172.688 50.9769V37.5057C171.937 33.7228 172.34 29.8009 173.844 26.2508C175.347 22.7006 177.882 19.6867 181.119 17.6013C184.144 15.651 187.653 14.5868 191.249 14.5286C194.845 14.4705 198.387 15.4207 201.473 17.2721L209.048 21.8189C209.8 22.2701 210.455 22.8681 210.974 23.5774C211.492 24.2867 211.863 25.093 212.066 25.9486C212.268 26.8042 212.297 27.6917 212.151 28.5588C212.006 29.4259 211.688 30.255 211.218 30.9969L211.164 31.0815C210.31 32.4192 209.708 33.9031 209.389 35.4592L207.921 42.702C207.854 45.3842 207.104 48.0047 205.742 50.3141L204.153 53.0101C202.635 55.026 200.384 56.3581 197.89 56.7157C195.396 57.0733 192.862 56.4273 190.841 54.9187L183.129 72.4028L167.363 57.0185Z" fill="#FFD0A6"/>
<path d="M209.598 34.5559L202.254 37.4165C200.84 39.6863 199.849 42.1947 199.33 44.8195C198.549 49.0193 189.035 51.5952 189.035 51.5952L182.645 55.7416C181.976 56.1751 181.209 56.4357 180.415 56.5001C179.621 56.5646 178.823 56.4308 178.092 56.1108L173.047 53.8864C171.694 53.2959 170.534 52.3348 169.702 51.1134C168.869 49.8921 168.396 48.46 168.339 46.9817C168.237 44.2456 168.21 41.1047 168.521 39.6143C168.831 38.1239 168.574 34.6805 168.246 31.7442C167.8 27.9177 168.676 24.0536 170.726 20.7955C171.969 18.8513 173.473 16.9071 175.057 15.8038C179.051 13.0321 180.963 9.31732 188.68 10.1137C196.397 10.91 207.969 14.3357 210.308 17.005C212.646 19.6743 211.856 20.5641 213.094 25.6848C214.333 30.8055 209.598 34.5559 209.598 34.5559Z" fill="#89603E"/>
<path d="M166.142 56.2711L170.207 53.7886L185.436 67.1486L183.878 73.2036L166.142 56.2711Z" fill="url(#paint11_linear_707_110)"/>
<path d="M197.75 48.4099L196.862 45.2378C196.512 43.9654 194.888 43.1424 193.534 43.5517C193.171 43.6392 192.847 43.8437 192.612 44.1339C192.376 44.424 192.242 44.7837 192.23 45.1577L192.208 52.8276L198.131 52.3827L197.75 48.4099Z" fill="#FFD0A6"/>
<path d="M142.26 274L139.775 280.451C137.792 282.636 135.844 285.122 138.768 284.762L142.588 287.97C143.131 288.544 143.524 289.243 143.734 290.006C143.944 290.769 143.963 291.571 143.791 292.343C143.059 295.617 140.787 295.795 140.787 295.795L134.002 298.055C133.279 298.291 132.51 298.343 131.762 298.208C131.014 298.073 130.311 297.755 129.716 297.281C126.628 294.859 124.053 291.845 122.141 288.415L115.676 276.79C115.187 275.912 114.91 274.931 114.869 273.926C114.827 272.921 115.021 271.921 115.436 271.005C115.85 270.089 116.473 269.284 117.255 268.653C118.036 268.023 118.955 267.585 119.936 267.376L122.181 261.837L142.26 274Z" fill="#281A10"/>
</g>
<rect y="195" width="60" height="60" rx="30" fill="white"/>
<path d="M20.1983 220.8V222.544H22.5663V232H24.6463V220.8H20.1983ZM29.3641 226.832C30.9641 226.832 32.0521 225.616 32.0521 223.76C32.0521 221.904 30.9641 220.688 29.3641 220.688C27.7641 220.688 26.6921 221.92 26.6921 223.76C26.6921 225.6 27.7641 226.832 29.3641 226.832ZM28.4361 232H30.0041L37.6521 220.8H36.0841L28.4361 232ZM29.3641 225.712C28.5321 225.712 27.9881 224.992 27.9881 223.76C27.9881 222.528 28.5321 221.808 29.3641 221.808C30.2281 221.808 30.7401 222.512 30.7401 223.76C30.7401 225.008 30.2281 225.712 29.3641 225.712ZM36.7081 232.112C38.3081 232.112 39.3961 230.88 39.3961 229.04C39.3961 227.2 38.3081 225.968 36.7081 225.968C35.1081 225.968 34.0361 227.2 34.0361 229.04C34.0361 230.88 35.1081 232.112 36.7081 232.112ZM36.7081 230.992C35.8601 230.992 35.3321 230.288 35.3321 229.04C35.3321 227.792 35.8601 227.088 36.7081 227.088C37.5561 227.088 38.0841 227.808 38.0841 229.04C38.0841 230.272 37.5561 230.992 36.7081 230.992Z" fill="#1111FF"/>
<rect x="44" width="72" height="72" rx="36" fill="white"/>
<path d="M72.5166 36.136L76.5966 31.288V29.2H65.1486V31.816H72.7806L68.9646 36.352V38.488H70.5006C73.0446 38.488 74.1486 39.472 74.1486 40.984C74.1486 42.544 72.8286 43.528 70.5966 43.528C68.7006 43.528 66.8766 42.88 65.6766 41.872L64.3326 44.296C65.8926 45.52 68.2686 46.24 70.6446 46.24C75.1566 46.24 77.2926 43.792 77.2926 40.96C77.2926 38.44 75.6846 36.544 72.5166 36.136ZM82.843 38.248C85.243 38.248 86.875 36.424 86.875 33.64C86.875 30.856 85.243 29.032 82.843 29.032C80.443 29.032 78.835 30.88 78.835 33.64C78.835 36.4 80.443 38.248 82.843 38.248ZM81.451 46H83.803L95.275 29.2H92.923L81.451 46ZM82.843 36.568C81.595 36.568 80.779 35.488 80.779 33.64C80.779 31.792 81.595 30.712 82.843 30.712C84.139 30.712 84.907 31.768 84.907 33.64C84.907 35.512 84.139 36.568 82.843 36.568ZM93.859 46.168C96.259 46.168 97.891 44.32 97.891 41.56C97.891 38.8 96.259 36.952 93.859 36.952C91.459 36.952 89.851 38.8 89.851 41.56C89.851 44.32 91.459 46.168 93.859 46.168ZM93.859 44.488C92.587 44.488 91.795 43.432 91.795 41.56C91.795 39.688 92.587 38.632 93.859 38.632C95.131 38.632 95.923 39.712 95.923 41.56C95.923 43.408 95.131 44.488 93.859 44.488Z" fill="#1111FF"/>
<rect x="364" y="189" width="80" height="80" rx="40" fill="white"/>
<path d="M385.153 219.4V225.812H388.541V222.48H396.241L388.877 239H392.769L400.385 221.836V219.4H385.153ZM407.141 229.956C409.941 229.956 411.845 227.828 411.845 224.58C411.845 221.332 409.941 219.204 407.141 219.204C404.341 219.204 402.465 221.36 402.465 224.58C402.465 227.8 404.341 229.956 407.141 229.956ZM405.517 239H408.261L421.645 219.4H418.901L405.517 239ZM407.141 227.996C405.685 227.996 404.733 226.736 404.733 224.58C404.733 222.424 405.685 221.164 407.141 221.164C408.653 221.164 409.549 222.396 409.549 224.58C409.549 226.764 408.653 227.996 407.141 227.996ZM419.993 239.196C422.793 239.196 424.697 237.04 424.697 233.82C424.697 230.6 422.793 228.444 419.993 228.444C417.193 228.444 415.317 230.6 415.317 233.82C415.317 237.04 417.193 239.196 419.993 239.196ZM419.993 237.236C418.509 237.236 417.585 236.004 417.585 233.82C417.585 231.636 418.509 230.404 419.993 230.404C421.477 230.404 422.401 231.664 422.401 233.82C422.401 235.976 421.477 237.236 419.993 237.236Z" fill="#1111FF"/>
<defs>
<linearGradient id="paint0_linear_707_110" x1="116.452" y1="275.557" x2="401.533" y2="275.557" gradientUnits="userSpaceOnUse">
<stop stop-color="#2E256B"/>
<stop offset="1" stop-color="#5A3087"/>
</linearGradient>
<linearGradient id="paint1_linear_707_110" x1="99" y1="188.052" x2="401.533" y2="188.052" gradientUnits="userSpaceOnUse">
<stop stop-color="#6A5EBF"/>
<stop offset="1" stop-color="#6E3AA5"/>
</linearGradient>
<linearGradient id="paint2_linear_707_110" x1="314.751" y1="68.817" x2="420.973" y2="68.817" gradientUnits="userSpaceOnUse">
<stop stop-color="#2E256B"/>
<stop offset="1" stop-color="#5A3087"/>
</linearGradient>
<linearGradient id="paint3_linear_707_110" x1="302.016" y1="37.2254" x2="421" y2="37.2254" gradientUnits="userSpaceOnUse">
<stop stop-color="#6A5EBF"/>
<stop offset="1" stop-color="#6E3AA5"/>
</linearGradient>
<linearGradient id="paint4_linear_707_110" x1="302.016" y1="77.8794" x2="314.751" y2="77.8794" gradientUnits="userSpaceOnUse">
<stop stop-color="#6A5EBF"/>
<stop offset="1" stop-color="#6E3AA5"/>
</linearGradient>
<linearGradient id="paint5_linear_707_110" x1="388.407" y1="84.2812" x2="401.498" y2="84.2812" gradientUnits="userSpaceOnUse">
<stop stop-color="#2E256B"/>
<stop offset="1" stop-color="#5A3087"/>
</linearGradient>
<linearGradient id="paint6_linear_707_110" x1="113.87" y1="180.636" x2="177.666" y2="180.636" gradientUnits="userSpaceOnUse">
<stop stop-color="#2E256B"/>
<stop offset="1" stop-color="#5A3087"/>
</linearGradient>
<linearGradient id="paint7_linear_707_110" x1="128.836" y1="213.887" x2="165.307" y2="219.525" gradientUnits="userSpaceOnUse">
<stop stop-color="#2E256B"/>
<stop offset="1" stop-color="#5A3087"/>
</linearGradient>
<linearGradient id="paint8_linear_707_110" x1="127.731" y1="213.049" x2="158.886" y2="217.865" gradientUnits="userSpaceOnUse">
<stop stop-color="#6A5EBF"/>
<stop offset="1" stop-color="#6E3AA5"/>
</linearGradient>
<linearGradient id="paint9_linear_707_110" x1="115.862" y1="119.321" x2="199.68" y2="119.321" gradientUnits="userSpaceOnUse">
<stop stop-color="#2E256B"/>
<stop offset="1" stop-color="#5A3087"/>
</linearGradient>
<linearGradient id="paint10_linear_707_110" x1="179.61" y1="122.64" x2="253.901" y2="122.64" gradientUnits="userSpaceOnUse">
<stop stop-color="#6A5EBF"/>
<stop offset="1" stop-color="#6E3AA5"/>
</linearGradient>
<linearGradient id="paint11_linear_707_110" x1="166.142" y1="63.4961" x2="185.436" y2="63.4961" gradientUnits="userSpaceOnUse">
<stop stop-color="#6A5EBF"/>
<stop offset="1" stop-color="#6E3AA5"/>
</linearGradient>
<clipPath id="clip0_707_110">
<rect width="322" height="342" fill="white" transform="translate(99 3)"/>
</clipPath>
</defs>
</svg>
