<svg width="14" height="14" viewBox="0 0 14 14" fill="none" xmlns="http://www.w3.org/2000/svg">
<path d="M7 14C10.866 14 14 10.866 14 7C14 3.13401 10.866 0 7 0C3.13401 0 0 3.13401 0 7C0 10.866 3.13401 14 7 14Z" fill="#1111FF"/>
<path d="M4.81177 10.4173L2.2598 7.66693C2.0905 7.48553 2.00007 7.24439 2.00833 6.9964C2.0166 6.74841 2.12289 6.51382 2.30389 6.3441C2.48601 6.1755 2.72757 6.08603 2.97557 6.09533C3.22357 6.10463 3.45775 6.21194 3.62673 6.39371L5.59996 8.50473L8.72515 5.58347C8.75307 5.55782 8.78252 5.5339 8.81334 5.51182L10.2795 4.13938C10.4609 3.97008 10.702 3.87964 10.95 3.88791C11.198 3.89618 11.4326 4.00247 11.6023 4.18347C11.7716 4.36487 11.862 4.60601 11.8538 4.854C11.8455 5.10199 11.7392 5.33658 11.5582 5.50631L7.0661 9.69528L5.50626 11.1449L4.81728 10.4063L4.81177 10.4173Z" fill="white"/>
</svg>
