<svg width="441" height="436" viewBox="0 0 441 436" fill="none" xmlns="http://www.w3.org/2000/svg">
<g clip-path="url(#clip0_70_999)">
<path opacity="0.8" d="M219.723 435.725C340.921 435.725 439.171 396.299 439.171 347.664C439.171 299.03 340.921 259.604 219.723 259.604C98.5255 259.604 0.275391 299.03 0.275391 347.664C0.275391 396.299 98.5255 435.725 219.723 435.725Z" stroke="#CADBFD" stroke-miterlimit="10"/>
<path opacity="0.5" d="M64.7622 68.2114V330.398C64.7622 330.398 76.1059 391.177 216.081 390.01C358.966 388.826 379.957 330.398 379.957 330.398V68.2114H64.7622Z" fill="url(#paint0_linear_70_999)"/>
<path opacity="0.1" d="M396.358 345.011C396.358 306.47 318.456 275.186 222.357 275.186C126.257 275.186 48.3608 306.448 48.3608 345.011V357.878C48.3608 396.419 126.263 427.703 222.357 427.703C318.45 427.703 396.358 396.419 396.358 357.878V345.011Z" fill="#1111FF"/>
<path d="M392.854 334.808C377.819 302.385 306.964 277.84 221.811 277.84C136.659 277.84 65.8035 302.385 50.7686 334.808H47.8101V347.665C47.8101 386.205 125.712 417.484 221.811 417.484C317.911 417.484 395.807 386.222 395.807 347.665V334.808H392.854Z" fill="url(#paint1_linear_70_999)"/>
<path d="M221.811 404.633C317.906 404.633 395.807 373.371 395.807 334.808C395.807 296.245 317.906 264.983 221.811 264.983C125.716 264.983 47.8154 296.245 47.8154 334.808C47.8154 373.371 125.716 404.633 221.811 404.633Z" fill="url(#paint2_linear_70_999)"/>
<g opacity="0.3">
<path d="M221.811 393.39C177.301 393.39 135.7 385.737 104.666 371.835C79.3617 360.504 63.6436 345.682 63.6436 333.151C63.6436 320.62 79.3617 305.804 104.666 294.467C135.7 280.565 177.301 272.912 221.811 272.912C266.321 272.912 307.922 280.565 338.956 294.467C364.255 305.804 379.973 320.626 379.973 333.151C379.973 345.677 364.255 360.504 338.956 371.835C307.916 385.737 266.315 393.39 221.811 393.39ZM221.811 273.479C177.378 273.479 135.865 281.116 104.897 294.985C79.8024 306.228 64.211 320.862 64.211 333.151C64.211 345.44 79.8024 360.08 104.897 371.318C135.86 385.187 177.4 392.823 221.811 392.823C266.222 392.823 307.757 385.187 338.725 371.318C363.82 360.08 379.405 345.44 379.405 333.151C379.405 320.862 363.82 306.228 338.725 294.985C307.757 281.116 266.238 273.479 221.811 273.479Z" fill="#4870F4"/>
</g>
<path d="M343.675 195.225C352.102 177.022 344.169 155.438 325.954 147.016C307.74 138.593 286.142 146.522 277.714 164.725C269.286 182.928 277.22 204.512 295.434 212.934C313.649 221.357 335.247 213.428 343.675 195.225Z" fill="#AAB7D5"/>
<path d="M341.276 196.104C349.704 177.901 341.77 156.317 323.556 147.894C305.341 139.472 283.743 147.4 275.316 165.603C266.888 183.806 274.821 205.39 293.036 213.813C311.25 222.235 332.848 214.307 341.276 196.104Z" fill="url(#paint3_linear_70_999)"/>
<path d="M339.398 181.896C339.968 164.734 326.508 150.36 309.335 149.791C292.163 149.222 277.779 162.673 277.21 179.834C276.64 196.996 290.1 211.37 307.272 211.94C324.445 212.509 338.828 199.058 339.398 181.896Z" fill="url(#paint4_linear_70_999)"/>
<path opacity="0.1" d="M280.607 192.395C278.463 186.573 278.112 180.243 279.599 174.22C281.086 168.196 284.343 162.756 288.95 158.598C293.558 154.441 299.305 151.757 305.452 150.892C311.599 150.027 317.865 151.02 323.442 153.744C319.812 151.706 315.81 150.417 311.673 149.953C307.536 149.49 303.348 149.861 299.357 151.046C295.366 152.23 291.654 154.203 288.44 156.848C285.227 159.493 282.577 162.756 280.649 166.444C278.722 170.131 277.554 174.168 277.217 178.315C276.879 182.462 277.378 186.634 278.684 190.585C279.991 194.535 282.077 198.183 284.821 201.312C287.564 204.442 290.909 206.989 294.656 208.802C288.154 205.196 283.167 199.372 280.607 192.395Z" fill="black"/>
<path d="M320.693 178.465C319.525 177.612 318.106 177.174 316.66 177.221C317.314 176.557 317.827 175.769 318.17 174.903C318.632 173.435 318.558 171.851 317.96 170.432C317.462 168.938 316.496 167.643 315.206 166.738C313.255 165.446 310.747 165.277 307.68 166.232L306.269 162.377L303.25 163.479L304.655 167.3L301.272 168.538L299.868 164.723L296.854 165.824L298.253 169.64L293.917 171.231L303.895 198.485L308.231 196.893L309.283 199.745L312.297 198.644L311.277 195.787L314.66 194.542L315.707 197.394L318.726 196.293L317.657 193.386C318.434 193.043 319.187 192.647 319.911 192.202C320.873 191.624 321.701 190.848 322.342 189.927C322.983 189.006 323.422 187.959 323.629 186.856C323.965 185.258 323.831 183.596 323.244 182.072C322.764 180.647 321.877 179.393 320.693 178.465ZM312.748 173.037C313.167 174.182 313.095 175.118 312.523 175.834C311.82 176.642 310.909 177.241 309.889 177.568L303.278 179.996L301.074 173.995L306.997 171.82C308.075 171.39 309.215 171.134 310.374 171.06C311.49 171.108 312.282 171.767 312.748 173.037ZM316.787 187.842C316.046 188.523 315.163 189.032 314.203 189.334L307.592 191.762L304.925 184.505L311.63 182.044C312.547 181.668 313.531 181.481 314.522 181.494C315.874 181.6 316.809 182.36 317.327 183.773C317.944 185.463 317.762 186.812 316.787 187.842Z" fill="#4870F4"/>
<path d="M178.329 135.592C190.664 123.265 190.664 103.28 178.329 90.9528C165.994 78.6259 145.996 78.6259 133.661 90.9528C121.326 103.28 121.326 123.265 133.661 135.592C145.996 147.919 165.994 147.919 178.329 135.592Z" fill="#AAB7D5"/>
<path d="M176.2 134.992C188.535 122.665 188.535 102.679 176.2 90.3522C163.865 78.0253 143.867 78.0253 131.532 90.3522C119.198 102.679 119.198 122.665 131.532 134.992C143.867 147.318 163.865 147.318 176.2 134.992Z" fill="url(#paint5_linear_70_999)"/>
<path d="M175.496 128.868C184.457 116.929 182.035 99.9911 170.088 91.0366C158.142 82.0821 141.193 84.5018 132.233 96.4411C123.272 108.38 125.694 125.318 137.641 134.273C149.588 143.227 166.536 140.808 175.496 128.868Z" fill="url(#paint6_linear_70_999)"/>
<path opacity="0.1" d="M128.494 106.609C129.97 101.423 132.964 96.7973 137.091 93.3261C141.219 89.8549 146.292 87.6972 151.656 87.1306C157.021 86.5639 162.433 87.6143 167.195 90.1465C171.958 92.6787 175.854 96.577 178.381 101.34C176.866 98.0635 174.709 95.1239 172.038 92.6945C169.368 90.2652 166.237 88.3954 162.83 87.1957C159.424 85.9959 155.812 85.4905 152.207 85.7094C148.602 85.9282 145.078 86.8667 141.842 88.4696C138.606 90.0725 135.724 92.3073 133.367 95.0418C131.01 97.7763 129.225 100.955 128.118 104.391C127.011 107.826 126.604 111.448 126.921 115.044C127.239 118.639 128.274 122.134 129.965 125.323C127.242 119.464 126.72 112.821 128.494 106.609Z" fill="black"/>
<path d="M163.792 117.306C163.408 116.109 162.632 115.075 161.589 114.372C162.385 114.24 163.148 113.949 163.831 113.518C164.91 112.723 165.67 111.57 165.974 110.265C166.383 108.954 166.362 107.548 165.913 106.251C165.201 104.338 163.524 102.936 160.883 102.044L161.853 98.6252L159.165 97.8654L158.2 101.263L155.187 100.409L156.156 97.0065L153.468 96.2412L152.509 99.6548L148.653 98.5537L141.75 122.779L145.606 123.88L144.895 126.43L147.584 127.195L148.306 124.657L151.319 125.51L150.597 128.054L153.286 128.814L154.019 126.226C154.745 126.383 155.481 126.49 156.223 126.545C157.271 126.636 158.327 126.486 159.308 126.105C160.146 125.782 160.915 125.302 161.572 124.69C162.625 123.736 163.38 122.499 163.748 121.127C164.136 119.885 164.151 118.557 163.792 117.306ZM160.988 109.433C160.915 109.856 160.728 110.252 160.447 110.578C160.167 110.903 159.804 111.147 159.396 111.283C158.484 111.496 157.53 111.453 156.641 111.156L150.741 109.505L152.267 104.159L157.545 105.662C158.52 105.911 159.449 106.313 160.299 106.851C161.087 107.435 161.313 108.304 160.988 109.433ZM156.25 121.904C155.381 122.003 154.5 121.909 153.672 121.629L147.782 119.977L149.622 113.513L155.594 115.209C156.43 115.419 157.214 115.793 157.903 116.31C158.336 116.67 158.646 117.157 158.79 117.701C158.934 118.246 158.905 118.822 158.707 119.349C158.285 120.828 157.466 121.68 156.25 121.904Z" fill="#4870F4"/>
<path opacity="0.1" d="M219.723 353.776C256.531 353.776 286.369 342.513 286.369 328.62C286.369 314.727 256.531 303.464 219.723 303.464C182.915 303.464 153.077 314.727 153.077 328.62C153.077 342.513 182.915 353.776 219.723 353.776Z" fill="#1111FF"/>
<path d="M286.37 300.298C286.37 300.028 286.37 299.747 286.331 299.494H286.37V162.421L153.071 165.62V299.516H153.11C154.212 313.038 183.626 323.868 219.723 323.868C255.82 323.868 285.207 313.016 286.331 299.516C286.331 299.786 286.37 300.067 286.37 300.32C286.37 302.968 285.268 305.518 283.284 307.907C285.29 305.495 286.37 302.946 286.37 300.298Z" fill="white"/>
<path d="M265.291 318.654C264.255 319.021 263.188 319.376 262.09 319.717C263.184 319.376 264.251 319.021 265.291 318.654Z" fill="white"/>
<path d="M271.125 316.309C270.216 316.722 269.279 317.129 268.304 317.52C269.279 317.135 270.216 316.722 271.125 316.309Z" fill="white"/>
<path d="M276.127 313.699C275.367 314.158 274.57 314.604 273.736 315.037C274.57 314.6 275.367 314.154 276.127 313.699Z" fill="white"/>
<path d="M230.962 325.096C229.493 325.188 228.024 325.265 226.555 325.327C228.035 325.265 229.504 325.188 230.962 325.096Z" fill="white"/>
<path d="M262.09 319.717C259.335 320.57 256.421 321.341 253.341 322.024C256.421 321.341 259.346 320.57 262.09 319.717Z" fill="white"/>
<path opacity="0.5" d="M219.723 182.909C182.915 182.909 153.06 194.686 153.06 209.215V297.165C153.06 309.328 182.904 324.111 219.723 323.847C260.167 323.56 286.386 309.328 286.386 297.165V209.221C286.369 194.686 256.531 182.909 219.723 182.909Z" fill="url(#paint7_linear_70_999)"/>
<path d="M252.267 300.298C230.779 296.033 208.662 296.033 187.174 300.298H153.071L153.143 321.115C153.097 321.494 153.073 321.874 153.071 322.255C153.071 336.146 182.915 347.411 219.734 347.411C256.553 347.411 286.397 336.146 286.397 322.255V300.298H252.267Z" fill="url(#paint8_linear_70_999)"/>
<path d="M219.723 325.454C256.531 325.454 286.369 314.191 286.369 300.298C286.369 286.405 256.531 275.142 219.723 275.142C182.915 275.142 153.077 286.405 153.077 300.298C153.077 314.191 182.915 325.454 219.723 325.454Z" fill="url(#paint9_linear_70_999)"/>
<path d="M219.723 323.846C183.626 323.846 154.261 313.016 153.11 299.516C153.11 299.786 153.071 300.067 153.071 300.32C153.071 314.217 182.915 325.476 219.734 325.476C256.553 325.476 286.397 314.217 286.397 300.32C286.397 300.05 286.397 299.769 286.359 299.516C285.207 313.016 255.815 323.846 219.723 323.846Z" fill="white"/>
<g opacity="0.3">
<path d="M219.723 319.893C251.337 319.893 276.965 311.12 276.965 300.298C276.965 289.476 251.337 280.703 219.723 280.703C188.109 280.703 162.481 289.476 162.481 300.298C162.481 311.12 188.109 319.893 219.723 319.893Z" fill="url(#paint10_linear_70_999)"/>
</g>
<g opacity="0.5">
<path d="M219.723 231.294C256.531 231.294 286.369 220.462 286.369 207.101C286.369 193.74 256.531 182.909 219.723 182.909C182.915 182.909 153.077 193.74 153.077 207.101C153.077 220.462 182.915 231.294 219.723 231.294Z" fill="url(#paint11_linear_70_999)"/>
</g>
<path d="M252.267 146.163C230.779 141.898 208.662 141.898 187.174 146.163H153.071L153.143 166.98C153.097 167.358 153.073 167.739 153.071 168.12C153.071 182.011 182.915 193.276 219.734 193.276C256.553 193.276 286.397 182.011 286.397 168.12V146.163H252.267Z" fill="url(#paint12_linear_70_999)"/>
<path d="M219.723 171.318C256.531 171.318 286.369 160.056 286.369 146.162C286.369 132.269 256.531 121.006 219.723 121.006C182.915 121.006 153.077 132.269 153.077 146.162C153.077 160.056 182.915 171.318 219.723 171.318Z" fill="url(#paint13_linear_70_999)"/>
<path d="M219.723 169.717C183.626 169.717 154.261 158.881 153.11 145.354C153.11 145.623 153.071 145.904 153.071 146.157C153.071 160.054 182.915 171.313 219.734 171.313C256.553 171.313 286.397 160.054 286.397 146.157C286.397 145.893 286.397 145.607 286.359 145.354C285.207 158.881 255.815 169.717 219.723 169.717Z" fill="white"/>
<path opacity="0.1" d="M120.445 345.149C141.068 345.149 157.787 342.834 157.787 339.979C157.787 337.123 141.068 334.809 120.445 334.809C99.8212 334.809 83.1025 337.123 83.1025 339.979C83.1025 342.834 99.8212 345.149 120.445 345.149Z" fill="#6989FE"/>
<path d="M143.303 343.469C168.065 343.469 188.138 323.409 188.138 298.663C188.138 273.917 168.065 253.856 143.303 253.856C118.542 253.856 98.4683 273.917 98.4683 298.663C98.4683 323.409 118.542 343.469 143.303 343.469Z" fill="#AAB7D5"/>
<path d="M171.878 330.015C189.387 312.517 189.387 284.147 171.878 266.649C154.369 249.151 125.981 249.151 108.472 266.649C90.963 284.147 90.963 312.517 108.472 330.015C125.981 347.513 154.369 347.513 171.878 330.015Z" fill="url(#paint14_linear_70_999)"/>
<path d="M173.821 316.793C184.024 298.223 177.231 274.904 158.65 264.707C140.068 254.511 116.733 261.299 106.53 279.869C96.3276 298.439 103.12 321.759 121.702 331.955C140.284 342.151 163.618 335.363 173.821 316.793Z" fill="url(#paint15_linear_70_999)"/>
<path opacity="0.1" d="M103.228 296.025C104.027 288.413 107.087 281.215 112.015 275.356C116.942 269.497 123.511 265.245 130.877 263.149C138.243 261.053 146.067 261.207 153.344 263.593C160.621 265.978 167.017 270.486 171.709 276.535C168.796 272.313 165.066 268.718 160.738 265.963C156.411 263.208 151.574 261.348 146.515 260.494C141.455 259.64 136.276 259.808 131.283 260.99C126.29 262.171 121.585 264.342 117.446 267.373C113.307 270.404 109.818 274.233 107.187 278.635C104.555 283.037 102.834 287.922 102.125 293.001C101.415 298.08 101.733 303.249 103.058 308.203C104.383 313.156 106.689 317.794 109.839 321.842C104.604 314.31 102.257 305.145 103.228 296.025Z" fill="black"/>
<path d="M155.192 302.407C154.367 300.828 153.037 299.572 151.413 298.839C152.497 298.46 153.494 297.867 154.344 297.094C155.578 295.893 156.316 294.203 156.548 292.034C156.805 290.101 156.434 288.136 155.49 286.429C154.021 283.937 151.334 282.384 147.43 281.771L147.98 276.755L144.036 276.342L143.485 281.331L139.077 280.863L139.628 275.874L135.684 275.461L135.16 280.45L129.469 279.855L125.717 315.439L131.364 316.034L130.968 319.761L134.912 320.18L135.309 316.452L139.716 316.915L139.325 320.642L143.27 321.061L143.672 317.256C144.718 317.301 145.765 317.274 146.807 317.173C148.189 317.058 149.531 316.652 150.745 315.981C151.958 315.31 153.016 314.39 153.848 313.281C155.099 311.696 155.864 309.784 156.052 307.775C156.3 305.94 156.001 304.073 155.192 302.407ZM149.358 292.078C149.196 293.576 148.605 294.567 147.584 295.051C146.368 295.565 145.033 295.732 143.727 295.536L135.072 294.627L135.904 286.781L143.645 287.596C145.073 287.708 146.475 288.044 147.799 288.593C149.014 289.268 149.534 290.43 149.358 292.078ZM145.766 310.666C144.574 311.019 143.319 311.104 142.091 310.913L133.447 310.005L134.428 300.518L143.187 301.438C144.407 301.529 145.597 301.862 146.686 302.418C148.122 303.273 148.743 304.624 148.548 306.47C148.335 308.661 147.408 310.06 145.766 310.666Z" fill="#4870F4"/>
<path d="M390.044 73.3844C402.506 60.9307 402.506 40.7393 390.044 28.2856C377.582 15.8319 357.378 15.8319 344.916 28.2856C332.455 40.7393 332.455 60.9307 344.916 73.3844C357.378 85.8381 377.582 85.8381 390.044 73.3844Z" fill="url(#paint16_linear_70_999)"/>
<path d="M401.977 34.6865C397.702 34.6882 393.498 35.7841 389.767 37.8696C386.036 39.9551 382.901 42.9609 380.662 46.6004C378.422 50.24 377.153 54.392 376.975 58.6607C376.796 62.9295 377.715 67.1729 379.642 70.9864H348.157C348.358 69.9265 348.46 68.8499 348.46 67.771C348.46 64.4222 347.466 61.1487 345.604 58.3644C343.742 55.5801 341.096 53.4101 338 52.1288C334.904 50.8475 331.498 50.5126 328.211 51.1663C324.925 51.82 321.906 53.433 319.537 55.8013C317.168 58.1696 315.555 61.1869 314.902 64.4714C314.249 67.7559 314.585 71.1602 315.868 74.2538C317.151 77.3473 319.324 79.9911 322.11 81.8507C324.897 83.7104 328.173 84.7024 331.524 84.7013H401.977C408.614 84.7013 414.979 82.0666 419.671 77.3768C424.364 72.687 427.001 66.3263 427.001 59.6939C427.001 53.0616 424.364 46.7008 419.671 42.011C414.979 37.3212 408.614 34.6865 401.977 34.6865Z" fill="url(#paint17_linear_70_999)"/>
<path d="M390.031 73.381C402.492 60.9273 402.492 40.7358 390.031 28.2821C377.569 15.8285 357.365 15.8284 344.903 28.2821C332.442 40.7358 332.442 60.9273 344.903 73.381C357.365 85.8346 377.569 85.8347 390.031 73.381Z" fill="url(#paint18_linear_70_999)"/>
<path d="M331.524 84.6793C340.877 84.6793 348.46 77.1018 348.46 67.7545C348.46 58.4071 340.877 50.8296 331.524 50.8296C322.171 50.8296 314.588 58.4071 314.588 67.7545C314.588 77.1018 322.171 84.6793 331.524 84.6793Z" fill="url(#paint19_linear_70_999)"/>
<path d="M419.671 77.3587C429.444 67.5927 429.444 51.7589 419.671 41.9929C409.899 32.2269 394.055 32.2269 384.283 41.9929C374.511 51.7589 374.511 67.5927 384.283 77.3587C394.055 87.1247 409.899 87.1247 419.671 77.3587Z" fill="url(#paint20_linear_70_999)"/>
<path d="M427.937 88.0928C426.005 83.7616 423.816 79.5495 421.381 75.479L421.266 75.6166C423.685 79.6644 425.862 83.8526 427.783 88.1589C434.257 102.848 434.747 113.877 429.166 119.217C426.769 121.502 423.403 122.587 419.299 122.587C403.592 122.587 377.07 106.691 352.884 81.4143C338.097 65.9594 326.384 49.3429 319.894 34.6148C313.404 19.8868 312.93 8.89717 318.511 3.56204C320.886 1.29364 324.235 0.16495 328.428 0.16495C334.08 0.16495 341.237 2.23514 349.518 6.33146C356.632 9.93535 363.407 14.1737 369.759 18.9948L370.073 19.0224C363.65 14.1287 356.796 9.82751 349.595 6.17179C335.127 -0.985765 324.059 -1.96029 318.417 3.41889C312.776 8.79807 313.233 19.9253 319.74 34.6864C326.246 49.4475 337.964 66.0696 352.763 81.5189C367.561 96.9682 383.67 109.444 398.104 116.585C406.407 120.693 413.591 122.779 419.26 122.779C423.475 122.779 426.869 121.64 429.271 119.344C434.923 113.937 434.444 102.837 427.937 88.0928Z" fill="#4870F4"/>
<path d="M429.282 3.43524C423.64 -1.95495 412.572 -0.969409 398.104 6.18815C383.637 13.3457 367.566 25.7889 352.763 41.2547C337.959 56.7205 326.235 73.3536 319.74 88.0927C313.244 102.832 312.754 113.97 318.395 119.338C320.798 121.634 324.186 122.774 328.406 122.774C334.086 122.774 341.27 120.704 349.573 116.596C363.01 109.945 377.891 98.6969 391.824 84.6956H391.587C368.294 108.057 343.391 122.587 328.378 122.587C324.268 122.587 320.908 121.485 318.511 119.217C312.925 113.876 313.415 102.848 319.894 88.1587C326.373 73.4692 338.075 56.8251 352.884 41.3593C367.693 25.8935 383.736 13.4668 398.182 6.3313C406.446 2.23498 413.608 0.16479 419.271 0.16479C423.442 0.16479 426.792 1.29348 429.188 3.56188C434.769 8.89701 434.279 19.9252 427.805 34.6147C426.196 38.2365 424.399 41.7723 422.423 45.2079L422.533 45.3565C424.518 41.8954 426.322 38.3339 427.938 34.6863C434.444 19.9252 434.923 8.80892 429.282 3.43524Z" fill="#4870F4"/>
<path d="M319.679 15.4162C319.679 16.563 319.268 17.6718 318.52 18.5415C317.772 19.4112 316.737 19.9842 315.602 20.1567C315.365 20.1917 315.126 20.2101 314.886 20.2118C313.688 20.211 312.534 19.7625 311.65 18.9544C310.766 18.1463 310.217 17.037 310.11 15.8446C310.003 14.6522 310.346 13.463 311.071 12.5106C311.797 11.5581 312.853 10.9115 314.032 10.6977C314.306 10.6467 314.585 10.6209 314.864 10.6206C315.496 10.6185 316.121 10.7409 316.705 10.9809C317.29 11.2209 317.82 11.5738 318.268 12.0194C318.715 12.4649 319.07 12.9943 319.312 13.5772C319.554 14.1601 319.679 14.785 319.679 15.4162Z" fill="url(#paint21_linear_70_999)"/>
<path opacity="0.2" d="M319.679 15.4162C319.679 16.563 319.267 17.6717 318.519 18.5414C317.771 19.4111 316.736 19.9842 315.602 20.1567C318.494 16.2145 315.673 12.388 314.054 10.6977C314.328 10.6467 314.607 10.6209 314.886 10.6206C316.157 10.6221 317.376 11.128 318.275 12.0271C319.174 12.9263 319.679 14.1453 319.679 15.4162Z" fill="url(#paint22_linear_70_999)"/>
<path d="M433.188 94.3475C433.187 95.1577 432.897 95.941 432.368 96.5552C431.839 97.1694 431.108 97.5738 430.306 97.695C430.138 97.7217 429.969 97.7346 429.799 97.7336C428.95 97.7366 428.13 97.4206 427.503 96.8482C426.875 96.2759 426.486 95.4888 426.412 94.6431C426.338 93.7974 426.584 92.9547 427.102 92.282C427.621 91.6093 428.373 91.1557 429.21 91.011C429.404 90.9779 429.602 90.9613 429.799 90.9614C430.698 90.9614 431.56 91.3182 432.195 91.9532C432.831 92.5882 433.188 93.4495 433.188 94.3475Z" fill="url(#paint23_linear_70_999)"/>
<path opacity="0.2" d="M433.188 94.3475C433.188 95.1577 432.897 95.941 432.368 96.5552C431.84 97.1694 431.108 97.5738 430.306 97.695C432.35 94.9091 430.356 92.1892 429.205 91.011C429.399 90.9779 429.597 90.9613 429.794 90.9614C430.24 90.9607 430.681 91.0477 431.092 91.2176C431.504 91.3874 431.878 91.6367 432.193 91.9512C432.509 92.2657 432.759 92.6393 432.929 93.0504C433.1 93.4616 433.188 93.9024 433.188 94.3475Z" fill="url(#paint24_linear_70_999)"/>
<path d="M369.406 28.4042C369.404 29.2727 369.092 30.1119 368.525 30.7702C367.958 31.4286 367.174 31.8626 366.315 31.994C366.133 32.0185 365.949 32.0313 365.764 32.0325C364.861 32.026 363.993 31.6831 363.329 31.071C362.665 30.4589 362.253 29.6215 362.174 28.7223C362.095 27.8231 362.354 26.9267 362.901 26.2082C363.447 25.4896 364.243 25.0006 365.131 24.8364C365.34 24.7969 365.552 24.7767 365.764 24.7759C366.242 24.7752 366.715 24.8684 367.156 25.0504C367.598 25.2323 367.999 25.4994 368.337 25.8363C368.675 26.1732 368.944 26.5734 369.127 27.014C369.31 27.4546 369.405 27.927 369.406 28.4042Z" fill="url(#paint25_linear_70_999)"/>
<path opacity="0.2" d="M369.406 28.4042C369.404 29.2727 369.092 30.1119 368.525 30.7702C367.958 31.4286 367.175 31.8626 366.316 31.994C368.519 29.0099 366.371 26.1138 365.142 24.8364C365.351 24.7969 365.563 24.7767 365.776 24.7759C366.738 24.7773 367.661 25.1601 368.341 25.8402C369.022 26.5203 369.405 27.4424 369.406 28.4042Z" fill="url(#paint26_linear_70_999)"/>
<path d="M326.852 120.181C326.852 121.71 326.304 123.189 325.306 124.349C324.308 125.508 322.928 126.272 321.414 126.501C321.095 126.55 320.773 126.574 320.45 126.573C318.865 126.554 317.343 125.946 316.18 124.868C315.018 123.79 314.298 122.319 314.161 120.74C314.023 119.161 314.478 117.588 315.437 116.325C316.396 115.063 317.79 114.202 319.348 113.91C319.712 113.844 320.081 113.81 320.45 113.811C322.144 113.809 323.769 114.479 324.969 115.673C326.169 116.867 326.846 118.488 326.852 120.181Z" fill="url(#paint27_linear_70_999)"/>
<path opacity="0.2" d="M326.852 120.181C326.852 121.71 326.304 123.189 325.306 124.349C324.308 125.508 322.927 126.272 321.414 126.501C325.271 121.249 321.502 116.145 319.343 113.893C319.706 113.827 320.075 113.794 320.445 113.794C321.285 113.793 322.118 113.957 322.895 114.277C323.671 114.597 324.378 115.067 324.973 115.66C325.568 116.254 326.04 116.958 326.362 117.734C326.685 118.509 326.851 119.341 326.852 120.181Z" fill="url(#paint28_linear_70_999)"/>
<path d="M385.102 93.2244C385.102 93.7672 384.908 94.292 384.554 94.704C384.2 95.116 383.711 95.3879 383.174 95.4707C383.06 95.4791 382.946 95.4791 382.833 95.4707C382.269 95.4646 381.728 95.2491 381.314 94.8661C380.901 94.4831 380.645 93.9601 380.596 93.3989C380.547 92.8376 380.709 92.2783 381.05 91.8298C381.391 91.3813 381.887 91.0757 382.441 90.9725C382.571 90.9503 382.701 90.9393 382.833 90.9395C383.132 90.9394 383.429 90.9987 383.705 91.1137C383.981 91.2287 384.232 91.3973 384.443 91.6097C384.654 91.8221 384.821 92.0741 384.934 92.3512C385.047 92.6283 385.105 92.9251 385.102 93.2244Z" fill="url(#paint29_linear_70_999)"/>
<path opacity="0.2" d="M385.102 93.2243C385.102 93.7671 384.908 94.2919 384.554 94.7039C384.2 95.1159 383.711 95.3879 383.174 95.4707C384.54 93.6042 383.207 91.7928 382.441 90.9945C382.571 90.9723 382.701 90.9613 382.833 90.9614C383.434 90.9614 384.01 91.1997 384.436 91.6239C384.861 92.0481 385.101 92.6237 385.102 93.2243Z" fill="url(#paint30_linear_70_999)"/>
<path d="M435.348 13.0045C435.346 13.5779 435.14 14.132 434.767 14.5671C434.393 15.0022 433.876 15.2896 433.309 15.3775C433.191 15.3951 433.071 15.4043 432.951 15.405C432.348 15.4107 431.765 15.1889 431.318 14.7839C430.871 14.3789 430.594 13.8204 430.541 13.2199C430.488 12.6195 430.664 12.0212 431.033 11.5444C431.402 11.0677 431.937 10.7476 432.532 10.648C432.67 10.6213 432.81 10.6084 432.951 10.6094C433.587 10.6094 434.196 10.8618 434.646 11.3109C435.095 11.7601 435.348 12.3693 435.348 13.0045Z" fill="url(#paint31_linear_70_999)"/>
<path opacity="0.2" d="M435.347 13.0045C435.346 13.5779 435.14 14.132 434.767 14.5671C434.393 15.0022 433.876 15.2896 433.309 15.3775C434.752 13.4064 433.342 11.4904 432.532 10.648C432.67 10.6213 432.81 10.6084 432.951 10.6094C433.587 10.6094 434.196 10.8618 434.646 11.3109C435.095 11.7601 435.347 12.3693 435.347 13.0045Z" fill="url(#paint32_linear_70_999)"/>
<path d="M50.0303 159.299L64.4757 167.184L79.4942 159.679L64.7622 151.696L50.0303 159.299Z" fill="url(#paint33_linear_70_999)"/>
<path d="M50.0303 159.299V176.632L64.7622 184.543L64.4757 167.184L50.0303 159.299Z" fill="url(#paint34_linear_70_999)"/>
<path d="M64.4756 167.184L64.7621 184.543L79.494 176.279V159.679L64.4756 167.184Z" fill="url(#paint35_linear_70_999)"/>
<path opacity="0.5" d="M50.0303 176.659L64.4757 184.544L79.4942 176.279L64.7622 169.056L50.0303 176.659Z" fill="url(#paint36_linear_70_999)"/>
<path d="M204.986 36.8669L214.253 41.9213L223.883 37.1092L214.434 31.9888L204.986 36.8669Z" fill="url(#paint37_linear_70_999)"/>
<path d="M204.986 36.8667V47.9829L214.434 53.0538L214.253 41.921L204.986 36.8667Z" fill="url(#paint38_linear_70_999)"/>
<path d="M214.252 41.921L214.434 53.0537L223.883 47.7516V37.1089L214.252 41.921Z" fill="url(#paint39_linear_70_999)"/>
<path opacity="0.5" d="M204.986 47.9996L214.253 53.0539L223.883 47.7518L214.434 43.127L204.986 47.9996Z" fill="url(#paint40_linear_70_999)"/>
<path d="M352.696 247.723L361.963 252.777L371.593 247.965L362.145 242.85L352.696 247.723Z" fill="url(#paint41_linear_70_999)"/>
<path d="M352.696 247.723V258.839L362.145 263.91L361.963 252.777L352.696 247.723Z" fill="url(#paint42_linear_70_999)"/>
<path d="M361.963 252.777L362.145 263.91L371.593 258.614V247.965L361.963 252.777Z" fill="url(#paint43_linear_70_999)"/>
<path opacity="0.5" d="M352.696 258.856L361.963 263.91L371.593 258.613L362.145 253.983L352.696 258.856Z" fill="url(#paint44_linear_70_999)"/>
<path d="M93.0417 62.0942H47.5181V117.235H93.0417V62.0942Z" fill="url(#paint45_linear_70_999)"/>
<path d="M64.2609 62.0942H47.5181V117.235H64.2609V62.0942Z" fill="url(#paint46_linear_70_999)"/>
<path d="M77.9623 5.52783L45.0771 65.3926L113.398 60.6961L77.9623 5.52783Z" fill="url(#paint47_linear_70_999)"/>
<path d="M29.9048 61.775L95.0967 55.9058L113.399 60.6958L45.0775 65.3923L29.9048 61.775Z" fill="url(#paint48_linear_70_999)"/>
<path d="M77.9627 5.52783H61.914L29.9048 61.7752L45.0775 65.3926" fill="url(#paint49_linear_70_999)"/>
<path opacity="0.5" d="M77.9627 5.52783L70.9658 18.2903L95.7633 55.906L114.065 60.6961L77.9627 5.52783Z" fill="url(#paint50_linear_70_999)"/>
<path d="M427.96 216.758H399.719V250.96H427.96V216.758Z" fill="url(#paint51_linear_70_999)"/>
<path d="M410.104 216.758H399.719V250.96H410.104V216.758Z" fill="url(#paint52_linear_70_999)"/>
<path d="M418.605 181.669L398.204 218.801L440.581 215.888L418.605 181.669Z" fill="url(#paint53_linear_70_999)"/>
<path d="M388.793 216.56L429.226 212.915L440.581 215.888L398.203 218.801L388.793 216.56Z" fill="url(#paint54_linear_70_999)"/>
<path d="M418.604 181.669H408.644L388.793 216.56L398.203 218.801" fill="url(#paint55_linear_70_999)"/>
<path opacity="0.5" d="M418.605 181.669L414.263 189.587L429.645 212.915L441 215.888L418.605 181.669Z" fill="url(#paint56_linear_70_999)"/>
</g>
<defs>
<linearGradient id="paint0_linear_70_999" x1="222.357" y1="337.732" x2="222.357" y2="92.5967" gradientUnits="userSpaceOnUse">
<stop stop-color="#FBFAFD"/>
<stop offset="1" stop-color="#4870F4" stop-opacity="0"/>
</linearGradient>
<linearGradient id="paint1_linear_70_999" x1="104.534" y1="351.398" x2="369.659" y2="342.941" gradientUnits="userSpaceOnUse">
<stop stop-color="#E5E8F7"/>
<stop offset="1" stop-color="#FBFAFD"/>
</linearGradient>
<linearGradient id="paint2_linear_70_999" x1="104.468" y1="338.547" x2="369.296" y2="330.095" gradientUnits="userSpaceOnUse">
<stop stop-color="#FBFAFD"/>
<stop offset="1" stop-color="#E5E8F7"/>
</linearGradient>
<linearGradient id="paint3_linear_70_999" x1="310.28" y1="213.16" x2="306.325" y2="148.99" gradientUnits="userSpaceOnUse">
<stop stop-color="#DCE8FC"/>
<stop offset="1" stop-color="#E8EDFC"/>
</linearGradient>
<linearGradient id="paint4_linear_70_999" x1="298.69" y1="155.559" x2="315.696" y2="200.381" gradientUnits="userSpaceOnUse">
<stop stop-color="#DCE8FC"/>
<stop offset="1" stop-color="#E8EDFC"/>
</linearGradient>
<linearGradient id="paint5_linear_70_999" x1="138.735" y1="136.393" x2="168.772" y2="89.2546" gradientUnits="userSpaceOnUse">
<stop stop-color="#DCE8FC"/>
<stop offset="1" stop-color="#E8EDFC"/>
</linearGradient>
<linearGradient id="paint6_linear_70_999" x1="160.06" y1="89.9425" x2="149.107" y2="130.144" gradientUnits="userSpaceOnUse">
<stop stop-color="#DCE8FC"/>
<stop offset="1" stop-color="#E8EDFC"/>
</linearGradient>
<linearGradient id="paint7_linear_70_999" x1="173.836" y1="254.826" x2="277.411" y2="251.518" gradientUnits="userSpaceOnUse">
<stop stop-color="#4870F4"/>
<stop offset="1" stop-color="#E8EDFC"/>
</linearGradient>
<linearGradient id="paint8_linear_70_999" x1="174.888" y1="323.681" x2="276.855" y2="320.429" gradientUnits="userSpaceOnUse">
<stop stop-color="#E8EDFC"/>
<stop offset="1" stop-color="#DCE8FC"/>
</linearGradient>
<linearGradient id="paint9_linear_70_999" x1="174.778" y1="301.73" x2="276.216" y2="298.494" gradientUnits="userSpaceOnUse">
<stop stop-color="#DCE8FC"/>
<stop offset="1" stop-color="#E8EDFC"/>
</linearGradient>
<linearGradient id="paint10_linear_70_999" x1="181.119" y1="301.531" x2="268.238" y2="298.747" gradientUnits="userSpaceOnUse">
<stop stop-color="#4870F4"/>
<stop offset="1" stop-color="#E8EDFC"/>
</linearGradient>
<linearGradient id="paint11_linear_70_999" x1="174.778" y1="208.533" x2="276.216" y2="205.297" gradientUnits="userSpaceOnUse">
<stop stop-color="#4870F4"/>
<stop offset="1" stop-color="#E8EDFC"/>
</linearGradient>
<linearGradient id="paint12_linear_70_999" x1="174.888" y1="169.551" x2="276.855" y2="166.293" gradientUnits="userSpaceOnUse">
<stop stop-color="#E8EDFC"/>
<stop offset="1" stop-color="#DCE8FC"/>
</linearGradient>
<linearGradient id="paint13_linear_70_999" x1="174.778" y1="147.599" x2="276.216" y2="144.358" gradientUnits="userSpaceOnUse">
<stop stop-color="#DCE8FC"/>
<stop offset="1" stop-color="#E8EDFC"/>
</linearGradient>
<linearGradient id="paint14_linear_70_999" x1="124.762" y1="335.186" x2="155.31" y2="261.977" gradientUnits="userSpaceOnUse">
<stop stop-color="#DCE8FC"/>
<stop offset="1" stop-color="#E8EDFC"/>
</linearGradient>
<linearGradient id="paint15_linear_70_999" x1="144.146" y1="264.461" x2="138.82" y2="323.318" gradientUnits="userSpaceOnUse">
<stop stop-color="#DCE8FC"/>
<stop offset="1" stop-color="#E8EDFC"/>
</linearGradient>
<linearGradient id="paint16_linear_70_999" x1="335.568" y1="50.8328" x2="399.388" y2="50.8327" gradientUnits="userSpaceOnUse">
<stop stop-color="#4870F4"/>
<stop offset="1" stop-color="#E8EDFC"/>
</linearGradient>
<linearGradient id="paint17_linear_70_999" x1="314.583" y1="59.6774" x2="427.001" y2="59.6774" gradientUnits="userSpaceOnUse">
<stop stop-color="#4870F4"/>
<stop offset="1" stop-color="#E8EDFC"/>
</linearGradient>
<linearGradient id="paint18_linear_70_999" x1="339.307" y1="30.3461" x2="382.415" y2="61.7499" gradientUnits="userSpaceOnUse">
<stop stop-color="#4870F4"/>
<stop offset="1" stop-color="#E8EDFC"/>
</linearGradient>
<linearGradient id="paint19_linear_70_999" x1="316.814" y1="58.1303" x2="345.859" y2="77.1589" gradientUnits="userSpaceOnUse">
<stop stop-color="#4870F4"/>
<stop offset="1" stop-color="#E8EDFC" stop-opacity="0"/>
</linearGradient>
<linearGradient id="paint20_linear_70_999" x1="382.102" y1="41.6083" x2="413.873" y2="70.534" gradientUnits="userSpaceOnUse">
<stop stop-color="#4870F4"/>
<stop offset="1" stop-color="#E8EDFC" stop-opacity="0"/>
</linearGradient>
<linearGradient id="paint21_linear_70_999" x1="310.087" y1="15.4162" x2="319.679" y2="15.4162" gradientUnits="userSpaceOnUse">
<stop stop-color="#4870F4"/>
<stop offset="1" stop-color="#E8EDFC"/>
</linearGradient>
<linearGradient id="paint22_linear_70_999" x1="314.054" y1="15.3886" x2="319.679" y2="15.3886" gradientUnits="userSpaceOnUse">
<stop stop-color="#4870F4"/>
<stop offset="1" stop-color="#E8EDFC"/>
</linearGradient>
<linearGradient id="paint23_linear_70_999" x1="426.411" y1="94.3475" x2="433.188" y2="94.3475" gradientUnits="userSpaceOnUse">
<stop stop-color="#4870F4"/>
<stop offset="1" stop-color="#E8EDFC"/>
</linearGradient>
<linearGradient id="paint24_linear_70_999" x1="429.21" y1="94.3255" x2="433.188" y2="94.3255" gradientUnits="userSpaceOnUse">
<stop stop-color="#4870F4"/>
<stop offset="1" stop-color="#E8EDFC"/>
</linearGradient>
<linearGradient id="paint25_linear_70_999" x1="362.145" y1="28.4042" x2="369.406" y2="28.4042" gradientUnits="userSpaceOnUse">
<stop stop-color="#4870F4"/>
<stop offset="1" stop-color="#E8EDFC"/>
</linearGradient>
<linearGradient id="paint26_linear_70_999" x1="365.142" y1="28.3877" x2="369.406" y2="28.3877" gradientUnits="userSpaceOnUse">
<stop stop-color="#4870F4"/>
<stop offset="1" stop-color="#E8EDFC"/>
</linearGradient>
<linearGradient id="paint27_linear_70_999" x1="314.059" y1="120.186" x2="326.852" y2="120.186" gradientUnits="userSpaceOnUse">
<stop stop-color="#4870F4"/>
<stop offset="1" stop-color="#E8EDFC"/>
</linearGradient>
<linearGradient id="paint28_linear_70_999" x1="319.343" y1="120.148" x2="326.852" y2="120.148" gradientUnits="userSpaceOnUse">
<stop stop-color="#4870F4"/>
<stop offset="1" stop-color="#E8EDFC"/>
</linearGradient>
<linearGradient id="paint29_linear_70_999" x1="380.541" y1="93.2244" x2="385.08" y2="93.2244" gradientUnits="userSpaceOnUse">
<stop stop-color="#4870F4"/>
<stop offset="1" stop-color="#E8EDFC"/>
</linearGradient>
<linearGradient id="paint30_linear_70_999" x1="382.419" y1="93.2133" x2="385.08" y2="93.2133" gradientUnits="userSpaceOnUse">
<stop stop-color="#4870F4"/>
<stop offset="1" stop-color="#E8EDFC"/>
</linearGradient>
<linearGradient id="paint31_linear_70_999" x1="430.554" y1="13.0045" x2="435.348" y2="13.0045" gradientUnits="userSpaceOnUse">
<stop stop-color="#4870F4"/>
<stop offset="1" stop-color="#E8EDFC"/>
</linearGradient>
<linearGradient id="paint32_linear_70_999" x1="432.532" y1="12.9935" x2="435.347" y2="12.9935" gradientUnits="userSpaceOnUse">
<stop stop-color="#4870F4"/>
<stop offset="1" stop-color="#E8EDFC"/>
</linearGradient>
<linearGradient id="paint33_linear_70_999" x1="54.8289" y1="159.751" x2="77.2408" y2="159.034" gradientUnits="userSpaceOnUse">
<stop stop-color="#4870F4"/>
<stop offset="1" stop-color="#E8EDFC"/>
</linearGradient>
<linearGradient id="paint34_linear_70_999" x1="52.2781" y1="172.084" x2="63.5061" y2="171.725" gradientUnits="userSpaceOnUse">
<stop stop-color="#4870F4"/>
<stop offset="1" stop-color="#E8EDFC"/>
</linearGradient>
<linearGradient id="paint35_linear_70_999" x1="66.8942" y1="172.277" x2="78.7062" y2="171.902" gradientUnits="userSpaceOnUse">
<stop stop-color="#4870F4"/>
<stop offset="1" stop-color="#E8EDFC"/>
</linearGradient>
<linearGradient id="paint36_linear_70_999" x1="54.8344" y1="177.111" x2="77.2629" y2="176.394" gradientUnits="userSpaceOnUse">
<stop stop-color="#4870F4"/>
<stop offset="1" stop-color="#E8EDFC"/>
</linearGradient>
<linearGradient id="paint37_linear_70_999" x1="208.066" y1="37.1587" x2="222.439" y2="36.6957" gradientUnits="userSpaceOnUse">
<stop stop-color="#4870F4"/>
<stop offset="1" stop-color="#E8EDFC"/>
</linearGradient>
<linearGradient id="paint38_linear_70_999" x1="206.435" y1="45.0649" x2="213.63" y2="44.8333" gradientUnits="userSpaceOnUse">
<stop stop-color="#4870F4"/>
<stop offset="1" stop-color="#E8EDFC"/>
</linearGradient>
<linearGradient id="paint39_linear_70_999" x1="215.801" y1="45.1859" x2="223.381" y2="44.9434" gradientUnits="userSpaceOnUse">
<stop stop-color="#4870F4"/>
<stop offset="1" stop-color="#E8EDFC"/>
</linearGradient>
<linearGradient id="paint40_linear_70_999" x1="208.071" y1="48.2914" x2="222.456" y2="47.8283" gradientUnits="userSpaceOnUse">
<stop stop-color="#4870F4"/>
<stop offset="1" stop-color="#E8EDFC"/>
</linearGradient>
<linearGradient id="paint41_linear_70_999" x1="355.776" y1="248.015" x2="370.15" y2="247.557" gradientUnits="userSpaceOnUse">
<stop stop-color="#4870F4"/>
<stop offset="1" stop-color="#E8EDFC"/>
</linearGradient>
<linearGradient id="paint42_linear_70_999" x1="354.14" y1="255.921" x2="361.34" y2="255.69" gradientUnits="userSpaceOnUse">
<stop stop-color="#4870F4"/>
<stop offset="1" stop-color="#E8EDFC"/>
</linearGradient>
<linearGradient id="paint43_linear_70_999" x1="363.511" y1="256.048" x2="371.086" y2="255.805" gradientUnits="userSpaceOnUse">
<stop stop-color="#4870F4"/>
<stop offset="1" stop-color="#E8EDFC"/>
</linearGradient>
<linearGradient id="paint44_linear_70_999" x1="355.776" y1="259.147" x2="370.161" y2="258.69" gradientUnits="userSpaceOnUse">
<stop stop-color="#4870F4"/>
<stop offset="1" stop-color="#E8EDFC"/>
</linearGradient>
<linearGradient id="paint45_linear_70_999" x1="70.2771" y1="117.24" x2="70.2771" y2="62.0942" gradientUnits="userSpaceOnUse">
<stop stop-color="#E8EDFC" stop-opacity="0"/>
<stop offset="1" stop-color="#4870F4"/>
</linearGradient>
<linearGradient id="paint46_linear_70_999" x1="55.8923" y1="117.24" x2="55.8923" y2="62.0942" gradientUnits="userSpaceOnUse">
<stop stop-color="#4870F4" stop-opacity="0"/>
<stop offset="1" stop-color="#E8EDFC"/>
</linearGradient>
<linearGradient id="paint47_linear_70_999" x1="45.0771" y1="35.4574" x2="113.398" y2="35.4574" gradientUnits="userSpaceOnUse">
<stop stop-color="#4870F4"/>
<stop offset="1" stop-color="#E8EDFC"/>
</linearGradient>
<linearGradient id="paint48_linear_70_999" x1="29.9048" y1="60.6463" x2="113.399" y2="60.6463" gradientUnits="userSpaceOnUse">
<stop stop-color="#4870F4"/>
<stop offset="1" stop-color="#E8EDFC"/>
</linearGradient>
<linearGradient id="paint49_linear_70_999" x1="29.9048" y1="35.4574" x2="77.9627" y2="35.4574" gradientUnits="userSpaceOnUse">
<stop stop-color="#4870F4"/>
<stop offset="1" stop-color="#E8EDFC"/>
</linearGradient>
<linearGradient id="paint50_linear_70_999" x1="70.9658" y1="33.112" x2="114.065" y2="33.112" gradientUnits="userSpaceOnUse">
<stop stop-color="#E8EDFC"/>
<stop offset="1" stop-color="#4870F4"/>
</linearGradient>
<linearGradient id="paint51_linear_70_999" x1="413.834" y1="250.966" x2="413.834" y2="216.758" gradientUnits="userSpaceOnUse">
<stop stop-color="#E8EDFC" stop-opacity="0"/>
<stop offset="1" stop-color="#4870F4"/>
</linearGradient>
<linearGradient id="paint52_linear_70_999" x1="404.909" y1="250.966" x2="404.909" y2="216.758" gradientUnits="userSpaceOnUse">
<stop stop-color="#4870F4" stop-opacity="0"/>
<stop offset="1" stop-color="#E8EDFC"/>
</linearGradient>
<linearGradient id="paint53_linear_70_999" x1="398.204" y1="200.235" x2="440.581" y2="200.235" gradientUnits="userSpaceOnUse">
<stop stop-color="#4870F4"/>
<stop offset="1" stop-color="#E8EDFC"/>
</linearGradient>
<linearGradient id="paint54_linear_70_999" x1="388.788" y1="215.861" x2="440.581" y2="215.861" gradientUnits="userSpaceOnUse">
<stop stop-color="#4870F4"/>
<stop offset="1" stop-color="#E8EDFC"/>
</linearGradient>
<linearGradient id="paint55_linear_70_999" x1="388.788" y1="200.235" x2="418.604" y2="200.235" gradientUnits="userSpaceOnUse">
<stop stop-color="#4870F4"/>
<stop offset="1" stop-color="#E8EDFC"/>
</linearGradient>
<linearGradient id="paint56_linear_70_999" x1="414.263" y1="198.782" x2="441" y2="198.782" gradientUnits="userSpaceOnUse">
<stop stop-color="#E8EDFC"/>
<stop offset="1" stop-color="#4870F4"/>
</linearGradient>
<clipPath id="clip0_70_999">
<rect width="441" height="436" fill="white"/>
</clipPath>
</defs>
</svg>
