<svg width="152" height="120" viewBox="0 0 152 120" fill="none" xmlns="http://www.w3.org/2000/svg">
<path fill-rule="evenodd" clip-rule="evenodd" d="M19.0719 70.1546C18.8617 69.4792 18.609 68.6133 18.5104 68.2306L18.3311 67.5346H15.4174H12.5037L11.1435 72.0787C10.3953 74.578 9.61374 77.1754 9.40655 77.8509C8.6502 80.3166 6.55132 87.3634 6.55132 87.4367C6.55132 87.4782 6.10911 87.5121 5.56862 87.5121H4.58593V92.3427V97.1733H3.35755H2.12918V99.4068V102.097C2.12778 102.097 2.12918 102.098 2.12918 102.098V102.097C2.13989 102.093 2.31493 102.077 4.54498 102.081L7.53402 102.086V99.6295V97.1733H9.08996H10.6459V95.6995V94.1752C10.6459 94.1752 11.8825 94.1894 12.6932 94.1492C13.5039 94.1089 15.1807 94.1205 16.4193 94.1752L18.6713 94.2746V97.6889V101.103H21.865H25.0588V99.9642V98.8252L23.8714 98.7771C22.7115 98.7301 22.6021 98.7409 22.6021 98.7409L22.5803 97.8283H23.8196H25.0588V94.6403V91.2783V88.9039V86.5296H24.5165H23.9741L21.714 78.9562C20.4709 74.7909 19.282 70.8301 19.0719 70.1546ZM14.7418 79.5702C14.9344 78.5795 15.1851 77.5234 15.1851 77.5234L15.2318 77.3716L16.3944 82.3949L16.9515 86.3778C16.978 86.3778 17.4429 86.3778 17.4429 86.3778C17.4429 86.3778 17.5381 87.0328 17.6886 88.3308L17.9342 90.2958H17.1153L16.2964 90.3181L14.331 90.3186C13.2501 90.3189 12.2837 90.3078 12.2837 90.3078C12.2837 90.234 12.4921 89.5344 12.6463 88.9039C13.2628 86.3861 14.4113 81.2703 14.7418 79.5702Z" fill="url(#paint0_linear_533_111)"/>
<path d="M53.0595 93.1155V93.3372H52.3777V93.1155H53.0595ZM52.4754 92.0566V93.3372H52.1886V92.0566H52.4754ZM52.9715 92.572V92.7866H52.3777V92.572H52.9715ZM53.0604 92.0566V92.2791H52.3777V92.0566H53.0604Z" fill="url(#paint1_linear_533_111)"/>
<path d="M52.3935 93.6941L52.6443 94.264L52.8967 93.6941H53.2064L52.7903 94.5121V94.9747H52.4991V94.5121L52.0821 93.6941H52.3935Z" fill="url(#paint2_linear_533_111)"/>
<path d="M51.9982 95.3316H52.2358L52.5437 96.2472L52.8507 95.3316H53.0882L52.6395 96.6122H52.4469L51.9982 95.3316ZM51.861 95.3316H52.1029L52.1478 96.2806V96.6122H51.861V95.3316ZM52.9835 95.3316H53.2263V96.6122H52.9386V96.2806L52.9835 95.3316Z" fill="url(#paint3_linear_533_111)"/>
<path fill-rule="evenodd" clip-rule="evenodd" d="M94.0582 72.363C93.3392 70.0705 92.1396 68.8969 89.6712 68.0707L88.361 67.6322L81.7687 67.5705L75.1764 67.5088V75.8446V84.2371H75.6678H76.1591C76.1591 84.2371 76.1548 85.4649 76.1591 85.5471C76.1591 85.5471 77.6289 85.512 77.8379 85.512C78.6878 85.537 79.4348 85.5471 79.4348 85.5471V85.8805V86.2021H77.8789H76.3229V85.8746V85.5471H76.1591H75.1764H74.0299V85.8746V86.2021C74.0299 86.2021 74.3295 86.202 74.5622 86.2019L75.0126 86.2021V87.0208V87.8396H75.5461H76.3229V89.0677V92.5312V94.717H77.6332H78.9434V95.4539V96.1908H77.6332H76.3229V98.8614V101.532H77.2237H78.2883V102.016C78.2883 102.016 78.403 102.086 82.7105 102.086C86.948 102.086 87.1326 102.098 87.1326 102.098V101.525C87.1326 101.525 88.6802 101.499 91.3091 101.525L95.3219 101.513V100.743V99.8872H94.2572H93.1926L93.1708 98.9745H94.2464H95.3217V97.0914V95.2203H94.6666V92.1789V89.1496L91.9232 89.1275C88.7409 89.1019 88.2642 89.2429 88.1972 89.0797V88.4946H86.6003C85.1819 88.4946 85.0034 88.5066 85.0034 88.5066V89.0797H86.5594H88.1153C88.1153 89.0797 88.1972 90.1963 88.1972 92.336V95.536V95.9976H87.0916C86.6331 96.0082 85.8223 95.9976 85.8223 95.9976V96.6122C85.8223 96.6122 85.7131 96.682 83.8569 96.682H81.8915V91.715C81.8915 88.983 81.9222 86.7172 81.9593 86.6797C81.9967 86.6422 83.4155 86.6329 85.1122 86.6589L88.1972 86.7064V87.6005V88.4946L91.4319 88.5321L94.6666 88.5884V89.1496C94.6666 89.1496 95.138 89.1734 95.3217 89.1496L96.7139 89.1616L97.7785 89.1496V88.5066H96.7958C96.7958 87.4422 95.8784 86.2058 95.3178 85.588C95.0314 85.2723 94.6766 85.0558 94.4458 85.0558C94.2316 85.0558 93.7701 84.8251 93.4199 84.5431C93.0696 84.2613 92.5135 83.9076 92.1838 83.7575L91.5847 83.4842L92.4908 82.5916C93.0409 82.0497 93.5981 81.2807 93.909 80.6346C93.909 80.6346 94.2742 80.0075 94.4209 79.5702C94.7974 78.4486 94.6666 76.3891 94.6666 76.3891C94.6656 73.7277 94.3748 73.372 94.0582 72.363ZM81.9734 81.9829L82.0196 77.7063L82.066 73.4296L83.8212 73.4422C86.7952 73.4635 87.3496 73.8143 87.6544 75.8674C87.8591 77.2468 87.6339 79.8237 87.2423 80.5809C87.1095 80.8375 86.6817 81.2269 86.2917 81.446C85.6905 81.7838 85.3074 81.855 83.778 81.9138L81.9734 81.9829ZM75.3402 86.5296H75.8316H76.241V86.8571H75.3402V86.5296ZM76.1591 87.5121H75.7497H75.3402V87.1846H75.7497H76.1591V87.5121Z" fill="url(#paint4_linear_533_111)"/>
<path fill-rule="evenodd" clip-rule="evenodd" d="M94.5443 0.28225C94.6175 0.390652 94.6406 0.847677 94.5955 1.29799C94.5505 1.7483 94.4647 3.1852 94.4049 4.4911C94.3451 5.797 94.2339 7.03118 94.1579 7.23391C94.0282 7.57925 93.9244 7.60251 92.5006 7.60562C89.571 7.61168 86.087 8.24244 83.1939 9.29027C80.8222 10.1495 79.3052 10.9577 77.3561 12.4013C76.5403 13.0054 76.5059 13.0622 76.5108 13.7963C76.5136 14.2173 76.4908 14.6482 76.4603 14.7538C76.4299 14.8594 82.7263 21.2584 90.4528 28.9739C98.1791 36.6895 104.618 43.2285 104.761 43.5052C105.106 44.1732 104.992 45.611 104.546 46.213C103.719 47.3306 102.213 47.7268 100.997 47.1477C100.713 47.0124 94.1794 40.5992 86.4775 32.8957L72.474 18.8898L71.8567 18.9923C71.3932 19.0691 71.0668 19.0045 70.5464 18.733L69.8535 18.3717L68.9068 19.4141C67.7122 20.73 65.4508 24.0754 64.3836 26.106C62.8537 29.0165 61.6688 32.2289 60.9234 35.4864C60.5313 37.2001 60.2515 37.5804 59.6288 37.2474C59.1943 37.0147 59.0628 35.7897 59.1745 33.0108C59.2765 30.4713 59.5325 29.13 60.4328 26.4173C61.633 22.8016 64.0488 18.6199 66.3698 16.1411C67.0312 15.4348 67.0349 15.4235 66.7668 14.9696C66.4307 14.4009 66.423 13.8248 66.7414 13.0632C66.9797 12.4927 66.9727 12.4565 66.4958 11.8081C65.8881 10.982 65.8488 10.1744 66.378 9.38918C66.8068 8.75317 67.361 8.42698 68.0191 8.42354C68.5414 8.42076 69.4358 8.83963 69.7118 9.21642C69.8787 9.44419 69.9665 9.43928 70.5653 9.16926C71.0276 8.96081 71.4245 8.89907 71.8569 8.96818C72.3946 9.05414 72.56 8.9988 73.0507 8.56813C77.8865 4.32522 82.9583 1.71064 88.5686 0.568484C91.6627 -0.0612966 94.229 -0.184273 94.5443 0.28225ZM90.4901 1.63957C86.183 2.30554 81.3674 4.16164 77.8924 6.4949C76.6757 7.31218 74.2301 9.23722 73.789 9.72519L73.4664 10.0823L74.4823 11.055L75.4983 12.0277L77.016 10.9811C81.2683 8.04921 86.6637 6.3061 91.5189 6.29529C92.459 6.29333 92.8946 6.22947 92.9385 6.08766C92.9733 5.97516 93.0465 4.86985 93.1013 3.63142L93.2009 1.37986L92.5825 1.39575C92.2425 1.40442 91.3009 1.51414 90.4901 1.63957ZM67.6612 9.99832C67.2354 10.2965 67.2166 10.7377 67.6144 11.0976C68.0181 11.4629 68.1726 11.4408 68.632 10.9518C68.9296 10.6353 68.9836 10.4719 68.8575 10.2718C68.5906 9.84866 68.051 9.72535 67.6612 9.99832ZM69.575 11.9908C68.6022 12.9635 67.8062 13.8584 67.8062 13.9796C67.8062 14.1007 68.5571 14.9629 69.4751 15.8954C70.6229 17.0617 71.2604 17.5911 71.5169 17.5911C72.0015 17.5911 75.1773 14.3975 75.1745 13.9131C75.1723 13.5451 71.915 10.2223 71.5565 10.2223C71.4396 10.2223 70.5479 11.0182 69.575 11.9908ZM74.3544 17.0212L73.4615 17.9249L87.4626 31.9129C96.744 41.1857 101.611 45.9366 101.902 46.0068C102.887 46.2452 103.864 45.2236 103.54 44.2938C103.357 43.7702 75.799 16.1173 75.4596 16.1173C75.3428 16.1173 74.8454 16.5241 74.3544 17.0212ZM66.9232 17.5501C64.3649 20.5872 62.4525 24.1541 61.3587 27.9287C60.8629 29.6399 60.5953 31.0406 60.7868 30.9222C60.8641 30.8746 60.9273 30.7357 60.9273 30.614C60.9273 30.307 61.9283 27.9988 62.9533 25.9423C64.3145 23.2116 65.9397 20.7909 68.0771 18.3109L68.9384 17.3112L68.4862 16.8781C68.2374 16.6398 67.9936 16.4448 67.9441 16.4448C67.8948 16.4448 67.4354 16.9421 66.9232 17.5501ZM49.9538 25.7528C51.0921 26.5811 51.2012 28.0029 50.203 29.001C49.7263 29.4775 49.5536 29.5448 48.8074 29.5448C48.0612 29.5448 47.8884 29.4775 47.4118 29.001C46.652 28.2413 46.5146 27.4075 46.9987 26.4949C47.6067 25.3492 48.9394 25.0146 49.9538 25.7528ZM48.1773 27.0476C48.0146 27.3581 48.1806 27.968 48.4777 28.1516C48.7816 28.3394 49.4333 28.0931 49.5426 27.7493C49.5986 27.5729 49.564 27.2783 49.4658 27.0947C49.2383 26.6697 48.3917 26.6387 48.1773 27.0476ZM77.9752 27.9531C78.6436 28.4036 78.9387 28.941 78.9387 29.7085C78.9387 30.476 78.6436 31.0134 77.9752 31.4639C76.2289 32.6404 74.0339 30.7208 74.9407 28.8102C75.5035 27.6243 76.9011 27.2295 77.9752 27.9531ZM76.5276 29.0697C76.2579 29.1699 76.1591 29.3383 76.1591 29.6975C76.1591 30.3686 76.678 30.6542 77.2347 30.2895C77.6708 30.0038 77.7146 29.839 77.474 29.3895C77.2647 28.9985 76.979 28.902 76.5276 29.0697ZM53.7621 29.4021C55.0134 30.0403 57.3241 32.7703 57.3241 33.6107C57.3241 34.0333 56.9217 34.3438 56.5335 34.2206C56.3602 34.1656 55.9553 33.6945 55.6338 33.1735C54.9636 32.088 53.6755 30.8202 52.8358 30.4198C52.1741 30.1045 52.0141 29.8158 52.2532 29.3692C52.472 28.9602 52.9149 28.9698 53.7621 29.4021ZM73.6071 29.4804C73.7602 29.5392 73.8662 29.7724 73.8662 30.0504C73.8662 30.0761 73.8664 30.1004 73.8667 30.1235C73.8679 30.2353 73.8688 30.3171 73.8372 30.3834C73.7511 30.5637 73.4243 30.6292 72.2081 30.8728C72.116 30.8913 72.0188 30.9108 71.9162 30.9314C69.6995 31.3771 67.8914 32.4122 65.8013 34.4322C64.6185 35.5753 64.506 35.6449 64.1225 35.4702C63.4012 35.1416 63.5904 34.6295 64.899 33.3678C66.8741 31.4636 68.84 30.2934 71.0791 29.6889C72.1876 29.3895 73.1612 29.3093 73.6071 29.4804ZM72.2157 36.9261C75.0999 37.1961 78.4303 38.1588 78.6735 38.7925C78.7312 38.9428 78.6984 39.2153 78.6006 39.3981C78.3931 39.7858 78.0495 39.7554 76.6038 39.2215C74.7198 38.5258 73.4225 38.3357 70.2187 38.2862C68.5278 38.2602 67.0723 38.1942 66.984 38.1396C66.7544 37.9977 66.7857 37.2847 67.0282 37.1285C67.2259 37.0011 68.5894 36.8256 69.7716 36.7753C70.0869 36.7619 71.1867 36.8297 72.2157 36.9261ZM60.8177 39.2495L64.2295 40.7616L65.6246 43.4635C66.3918 44.9495 67.078 46.2274 67.1494 46.303C67.2208 46.3789 69.0745 46.8763 71.2687 47.4087C73.4631 47.9412 75.4288 48.4508 75.6372 48.5412C76.0058 48.7015 76.3039 49.2643 78.4447 53.8422C79.232 55.5261 79.2654 56.1264 78.5761 56.2058C78.1507 56.2548 78.0723 56.146 77.0979 54.1589C76.5321 53.0047 75.8327 51.5416 75.5438 50.9075L75.0185 49.7546L71.3714 48.8765C69.3656 48.3938 67.3792 47.898 66.9575 47.7748L66.1906 47.5511L64.6657 44.6066C63.8269 42.9873 63.0915 41.6622 63.0316 41.6622C62.9716 41.6622 61.8455 41.1842 60.5288 40.6C59.2122 40.0157 57.9673 39.4957 57.762 39.4441C57.4413 39.3637 57.1079 39.6848 55.3806 41.7379C54.1483 43.2028 52.6009 44.8042 51.3763 45.8822C50.2786 46.8485 48.92 48.0745 48.357 48.6067L47.3333 49.5741V53.4723C47.3333 57.203 47.3192 57.3782 47.0057 57.5459C46.773 57.6704 46.5833 57.6704 46.3506 57.5459C46.0358 57.3774 46.023 57.203 46.023 53.0507C46.023 50.6747 46.0879 48.7062 46.1672 48.6761C46.2464 48.6461 46.8914 48.0987 47.6003 47.4598C48.3093 46.8207 49.6554 45.6155 50.5918 44.7813C51.5281 43.9473 52.5865 42.9228 52.9439 42.5046C53.3012 42.0863 53.7511 41.5592 53.9438 41.3333C56.4097 38.4408 57.0535 37.7326 57.2153 37.7349C57.3201 37.7363 58.9413 38.4179 60.8177 39.2495ZM82.794 38.9505C83.4444 39.2222 84.0192 40.0596 84.0201 40.7369C84.0217 41.985 82.8805 43.0821 81.7395 42.929C80.8404 42.8085 80.3094 42.3919 79.9903 41.5569C79.7222 40.8549 79.7237 40.7909 80.0229 40.074C80.5197 38.8839 81.5928 38.4488 82.794 38.9505ZM81.523 40.2016C81.3538 40.3002 81.2364 40.564 81.2364 40.8459C81.2364 41.4004 81.6429 41.6866 82.1554 41.4929C82.7851 41.2548 82.8167 40.5083 82.2106 40.1839L82.174 40.1643C82.0228 40.0831 81.9463 40.0421 81.8704 40.0431C81.7928 40.0441 81.7158 40.0891 81.56 40.18L81.523 40.2016ZM118.579 76.0496V84.5646H118.169H117.76V93.3137V102.063L117.392 102.115C117.189 102.144 115.863 102.146 114.445 102.119L111.867 102.07L111.824 93.1126L111.782 84.1552H110.915C110.577 84.1552 110.062 84.1672 110.062 84.1672V83.0736H111.001H111.864V75.3042V67.5346H115.221H118.579V76.0496ZM151.008 70.4003V73.2659H147.65H144.293V85.2196V97.1733H145.74C146.535 97.1733 147.278 97.1733 147.278 97.1733V97.992C147.278 97.992 147.051 97.992 145.748 97.992H144.293V99.302V100.612H143.392C143.003 100.612 142.491 100.624 142.491 100.624V101V101.525H143.802V102.098C143.802 102.098 143.326 102.086 140.608 102.086H137.414V87.6758V73.2659H134.056H130.699V70.4003V67.5346H140.853H151.008V70.4003ZM53.3645 67.9473C56.4064 68.6643 58.1656 70.4947 59.0405 73.8526C59.3537 75.0547 59.5463 76.8955 59.3538 76.8471C59.2073 76.8101 56.7312 76.9722 55.0208 77.1307L54.1098 77.215L53.9177 76.1822C53.5125 74.0042 52.3644 73.1999 49.8395 73.3255C47.6851 73.4327 46.8962 74.1272 46.7198 76.0722C46.6074 77.3105 46.9011 78.3246 47.6124 79.1556C48.1742 79.8118 49.1708 80.3542 53.6064 82.419C54.3992 82.7881 55.5048 83.4034 56.0631 83.7864L57.0784 84.4827L54.0894 84.5274L51.1003 84.5719V84.9777V85.3833H55.113L59.1257 85.3953V85.8746V86.3778C59.1257 86.3778 59.3995 86.3658 59.6193 86.3658H60.113L60.0697 91.5649L60.0265 96.7639L59.1257 96.7759L58.2249 96.7878L58.1798 99.4368L58.1348 102.086H50.4411H42.7474V99.3957V96.7055L40.9867 96.7348L39.226 96.7639L39.1797 94.9217L39.1333 93.0796H37.9923H36.8512V92.5064V91.9333H37.9977H39.1442V92.5064V93.0796L39.9631 93.1041C40.4135 93.1175 41.2733 93.0916 41.2733 93.0916V92.5184V91.9333H40.2186H39.1442V91.5239V91.1146H42.6655H46.1868V93.9802V96.8458H49.7901H53.3933V92.5064V88.1671H50.6972H48.0012L47.9539 86.7508L47.9065 85.3345L44.6677 85.3614C41.8693 85.3846 41.2733 85.3614 41.2733 85.3614V84.5734H42.9112C42.9112 84.5734 44.3128 84.5783 44.3244 84.5734C44.3361 84.5685 43.7769 83.9936 43.082 83.2955C42.2251 82.4349 41.6513 81.6839 41.2991 80.9621C39.7126 77.7102 40.0283 73.0039 41.9946 70.5923C43.1485 69.1772 44.5655 68.4028 46.842 67.9438C48.3409 67.6416 52.0756 67.6435 53.3645 67.9473ZM59.1257 85.3953V84.974V84.5766C59.1257 84.5766 59.4547 84.5646 60.3541 84.5646C61.137 84.5646 61.5824 84.5766 61.5824 84.5766V85.3953C61.5824 85.3953 60.8772 85.3934 60.5997 85.3953C59.1906 85.4055 59.1278 85.3966 59.1257 85.3953ZM111.864 83.0736C111.864 83.0736 111.864 83.514 111.864 83.7643V84.1672C111.864 84.1672 112.846 84.1696 113.502 84.1672C114.157 84.1649 115.221 84.1552 115.221 84.1552V83.664V83.0736H113.665H111.864ZM4.50403 86.3658V87.3483H2.20141H0V86.8571V86.3658H2.2001L4.50403 86.3658ZM35.2134 99.3839V102.086H32.7566H30.2999V99.3839V96.682H32.7566H35.2134V99.3839ZM70.4267 99.3839V102.086H68.0519H65.677V99.3839V96.682H68.0519H70.4267V99.3839ZM106.459 99.3839V102.086H104.096H101.732L101.678 99.5067C101.648 98.0882 101.647 96.8725 101.676 96.8049C101.705 96.7372 102.793 96.682 104.094 96.682H106.459V99.3839ZM128.242 99.3839V102.086H125.785H123.329V99.3839V96.682H125.785H128.242V99.3839ZM141.918 97.1733V98.004C141.918 98.004 141.98 97.992 142.988 97.992C143.893 97.992 144.211 98.004 144.211 98.004V97.1733H141.918ZM26.3691 102.016H22.5202H18.6713V101.525H22.5202H26.3691V102.016ZM129.122 108.193C130.277 108.725 130.371 108.733 130.371 108.296C130.371 108.061 130.46 107.974 130.658 108.011C130.886 108.055 130.955 108.268 130.997 109.047C131.026 109.586 131.002 110.414 130.944 110.887C130.858 111.595 130.783 111.747 130.519 111.747C130.237 111.747 130.203 111.641 130.229 110.846C130.264 109.755 130.065 109.491 128.69 108.804C127.409 108.163 126.76 108.058 125.646 108.307C123.713 108.739 122.442 110.23 122.02 112.559C121.513 115.35 122.949 118.25 125.273 119.128C126.406 119.556 128.139 119.471 128.99 118.945C129.623 118.554 129.717 118.345 129.714 117.342C129.71 115.985 129.628 115.863 128.676 115.808C128.057 115.772 127.833 115.693 127.833 115.513C127.833 115.311 128.188 115.26 129.867 115.221C131.346 115.188 131.935 115.23 132.026 115.377C132.207 115.67 132.047 115.841 131.59 115.841C131.198 115.841 131.19 115.867 131.19 117.221V118.601L130.167 119.081C125.869 121.096 121.343 119.679 120.309 115.994C119.937 114.67 119.977 112.691 120.4 111.439C120.985 109.707 122.592 108.331 124.636 107.814C124.953 107.734 125.875 107.687 126.686 107.709C127.885 107.743 128.34 107.833 129.122 108.193ZM22.7246 108.349C22.8925 108.852 23.6665 110.756 24.1398 111.829C24.2589 112.099 24.5953 112.946 24.8872 113.712C25.179 114.478 25.5854 115.509 25.7901 116.004C25.9948 116.5 26.2112 117.046 26.2711 117.219C26.4673 117.785 26.6275 117.441 28.5883 112.238C28.9786 111.203 29.514 109.802 29.7779 109.127L30.2579 107.899L31.8348 107.852C33.1356 107.813 33.4117 107.847 33.4117 108.046C33.4117 108.199 33.2159 108.306 32.8795 108.339L32.3472 108.39L32.2965 112.238C32.2685 114.355 32.2936 116.764 32.3521 117.592L32.4582 119.098L33.0578 119.148C33.4594 119.181 33.6574 119.279 33.6574 119.443C33.6574 119.646 33.2958 119.697 31.5692 119.735C29.5648 119.779 29.481 119.767 29.481 119.448C29.481 119.177 29.5872 119.116 30.0542 119.116H30.6274V114.089C30.6274 110.997 30.569 109.121 30.4756 109.217C30.3921 109.303 29.9102 110.441 29.4048 111.747C28.8994 113.053 28.1525 114.978 27.745 116.026C27.0391 117.84 25.9978 119.771 25.7252 119.771C25.6553 119.771 25.2218 118.831 24.7617 117.683C22.7143 112.572 21.2528 109.035 21.1393 108.915C20.9849 108.753 20.7502 118.121 20.8941 118.695C20.9875 119.067 21.0833 119.116 21.7189 119.116C22.3331 119.116 22.4383 119.164 22.4383 119.449C22.4383 119.766 22.3541 119.78 20.6776 119.735C19.2424 119.697 18.9169 119.643 18.9169 119.443C18.9169 119.286 19.1073 119.179 19.4437 119.147C19.8951 119.103 19.9822 119.021 20.0528 118.574C20.1872 117.72 20.4811 108.589 20.3772 108.486C20.267 108.375 20.1617 108.357 19.4902 108.329C19.1718 108.315 18.9988 108.222 18.9988 108.063C18.9988 107.859 19.3051 107.817 20.7729 107.817H22.547L22.7246 108.349ZM48.4798 108.063C48.4798 108.239 48.3 108.308 47.8446 108.308C47.4955 108.308 47.1233 108.412 47.0179 108.539C46.8782 108.708 46.8393 110.16 46.875 113.902L46.9239 119.034L47.712 119.084C48.3494 119.125 48.4899 119.187 48.447 119.412C48.4004 119.655 48.0957 119.694 45.98 119.734C43.65 119.778 43.5663 119.768 43.5663 119.448C43.5663 119.158 43.6719 119.116 44.3875 119.116H45.2086L45.1655 113.753L45.1222 108.39L44.3443 108.34C43.7981 108.305 43.5663 108.22 43.5663 108.054C43.5663 107.858 43.9898 107.817 46.023 107.817C48.0977 107.817 48.4798 107.855 48.4798 108.063ZM63.7935 110.063C66.3333 113.219 69.4602 116.987 69.5403 116.987C69.5773 116.987 69.6078 115.034 69.6078 112.648V108.308H68.707C68.0155 108.308 67.8062 108.251 67.8062 108.063C67.8062 107.859 68.1246 107.817 69.6897 107.817C71.2178 107.817 71.5732 107.861 71.5732 108.052C71.5732 108.198 71.3706 108.307 71.0409 108.339L70.5086 108.39L70.4074 110.273C70.3515 111.309 70.2963 113.343 70.2846 114.793C70.2587 117.954 70.1083 119.934 69.8939 119.934C69.8076 119.934 69.5788 119.733 69.3857 119.487C69.0713 119.086 67.5338 117.22 65.8431 115.186C65.5062 114.78 64.3545 113.387 63.2836 112.09C62.2128 110.792 61.1733 109.54 60.9735 109.306L60.6101 108.881L60.605 113.999L60.5997 119.116H61.5005C62.2921 119.116 62.4014 119.155 62.4014 119.443C62.4014 119.753 62.2921 119.771 60.436 119.771C58.5798 119.771 58.4706 119.753 58.4706 119.443C58.4706 119.173 58.5798 119.116 59.1 119.116H59.7296L59.8365 116.537C59.8953 115.118 59.9438 112.696 59.9441 111.154C59.9446 108.593 59.9199 108.351 59.658 108.352C58.8684 108.355 58.6343 108.289 58.6343 108.063C58.6343 107.86 58.9287 107.817 60.3131 107.82L61.9919 107.823L63.7935 110.063ZM86.5368 108.063C86.609 108.251 86.502 108.308 86.0762 108.308C86.01 108.308 85.9479 108.307 85.8895 108.306H85.8889C85.6638 108.301 85.4957 108.298 85.3702 108.37C84.9998 108.581 85.0004 109.443 85.003 112.851C85.0032 113.151 85.0034 113.471 85.0034 113.811V119.116H85.7229C86.2192 119.116 86.4724 119.194 86.539 119.368C86.6845 119.746 86.4157 119.784 83.931 119.735C82.0293 119.697 81.6459 119.648 81.6459 119.443C81.6459 119.267 81.8621 119.184 82.4107 119.148L83.1754 119.099L83.2837 117.92C83.4211 116.423 83.3233 108.702 83.165 108.544C83.0996 108.479 82.8048 108.407 82.5098 108.385L82.4924 108.384C81.974 108.345 81.807 108.333 81.7533 108.248C81.7277 108.208 81.7277 108.152 81.7278 108.069V108.063C81.7278 107.856 82.0989 107.817 84.0851 107.817C86.0294 107.817 86.459 107.86 86.5368 108.063ZM102.77 111.116C104.214 112.885 105.561 114.543 105.765 114.8C106.939 116.279 107.538 116.972 107.649 116.979C107.718 116.983 107.755 115.053 107.731 112.689L107.687 108.39L106.746 108.341C106.055 108.305 105.804 108.229 105.804 108.054C105.804 107.86 106.162 107.817 107.769 107.817C109.345 107.817 109.735 107.863 109.735 108.046C109.735 108.176 109.469 108.338 109.12 108.421L108.506 108.566L108.376 114.208C108.305 117.311 108.187 119.91 108.115 119.982C107.982 120.115 106.887 118.875 104.318 115.681C103.559 114.737 102.826 113.84 102.691 113.686C102.555 113.533 101.67 112.449 100.725 111.277C99.7801 110.105 98.9129 109.142 98.798 109.136C98.6328 109.129 98.5918 110.17 98.6022 114.121L98.6153 119.116H99.5071C100.29 119.116 100.399 119.156 100.399 119.443C100.399 119.752 100.29 119.771 98.5155 119.771C96.7413 119.771 96.632 119.752 96.632 119.443C96.632 119.178 96.7413 119.116 97.2021 119.116C97.6614 119.116 97.7872 119.044 97.8489 118.747C97.891 118.545 97.9546 116.15 97.9901 113.425C98.0545 108.488 98.0535 108.472 97.7118 108.47C97.1057 108.466 96.632 108.276 96.632 108.038C96.632 107.849 96.9602 107.815 98.3891 107.852L100.146 107.899L102.77 111.116Z" fill="url(#paint5_linear_533_111)"/>
<path d="M16.695 88.7125V90.2259H16.3301V88.7125H16.695ZM17.5984 88.7125L17.0121 89.4796L16.669 89.8549L16.6025 89.5202L16.8218 89.1875L17.1483 88.7125H17.5984ZM17.167 90.2259L16.7761 89.5441L17.0599 89.3351L17.5984 90.2259H17.167Z" fill="url(#paint6_linear_533_111)"/>
<path d="M3.70167 95.5505L3.31077 96.776H2.94897L3.50934 95.2626H3.73806L3.70167 95.5505ZM4.02604 96.776L3.6341 95.5505L3.59355 95.2626H3.82539L4.38783 96.776H4.02604ZM4.00941 96.2126V96.4745H3.22032V96.2126H4.00941Z" fill="url(#paint7_linear_533_111)"/>
<path d="M11.4938 95.1715L12.6509 95.4865L12.6509 95.8949L11.1372 95.3846L11.1372 95.1206L11.4938 95.1715ZM12.6509 94.8857L11.4938 95.2006L11.1372 95.2536L11.1372 94.9865L12.6509 94.4792L12.6509 94.8857Z" fill="url(#paint8_linear_533_111)"/>
<path d="M5.31176 85.641L5.5779 86.1565L5.84405 85.641H6.2308L5.80039 86.3915L6.24223 87.1544H5.85237L5.5779 86.6295L5.30448 87.1544H4.91357L5.35646 86.3915L4.92501 85.641H5.31176Z" fill="url(#paint9_linear_533_111)"/>
<path d="M26.6297 88.0387V88.3006H25.5454V88.0387H26.6297ZM26.6183 86.9681L25.7045 88.3006H25.4633V88.1156L26.3854 86.7872H26.6183V86.9681ZM26.506 86.7872V87.0502H25.4612V86.7872H26.506Z" fill="url(#paint10_linear_533_111)"/>
<path d="M25.5154 88.7522H26.0965C26.2123 88.7522 26.3124 88.7695 26.397 88.8042C26.4822 88.8388 26.5477 88.8901 26.5935 88.958C26.6392 89.0259 26.6621 89.1098 26.6621 89.2095C26.6621 89.2927 26.6486 89.3634 26.6216 89.4216C26.5945 89.4798 26.5564 89.528 26.5072 89.5661C26.4587 89.6042 26.4018 89.635 26.3367 89.6586L26.2265 89.7189H25.7316L25.7295 89.4559H26.0976C26.1482 89.4559 26.1901 89.4469 26.2234 89.4289C26.2566 89.4108 26.2816 89.3856 26.2982 89.353C26.3156 89.3197 26.3242 89.2809 26.3242 89.2366C26.3242 89.1908 26.3156 89.1513 26.2982 89.1181C26.2809 89.0848 26.2553 89.0595 26.2213 89.0422C26.188 89.0242 26.1464 89.0152 26.0965 89.0152H25.8543V90.2656H25.5154V88.7522ZM26.3533 90.2656L26.0134 89.5931L26.371 89.5921L26.7162 90.25V90.2656H26.3533Z" fill="url(#paint11_linear_533_111)"/>
<path d="M26.2388 90.881V92.3944H25.8739V90.881H26.2388ZM26.6942 90.881V91.1627H25.429V90.881H26.6942Z" fill="url(#paint12_linear_533_111)"/>
<path d="M26.0789 94.1665L26.3939 93.0096H26.8025L26.292 94.523H26.0279L26.0789 94.1665ZM25.793 93.0096L26.108 94.1665L26.161 94.523H25.8938L25.3865 93.0096H25.793Z" fill="url(#paint13_linear_533_111)"/>
<path d="M26.7868 95.7012V95.7625C26.7868 95.8783 26.7706 95.9822 26.738 96.0744C26.7061 96.1658 26.6607 96.2441 26.6018 96.3093C26.5429 96.3737 26.4732 96.4233 26.3928 96.4579C26.3124 96.4919 26.2237 96.5088 26.1267 96.5088C26.0289 96.5088 25.9395 96.4919 25.8584 96.4579C25.778 96.4233 25.708 96.3737 25.6484 96.3093C25.5895 96.2441 25.5438 96.1658 25.5112 96.0744C25.4793 95.9822 25.4634 95.8783 25.4634 95.7625V95.7012C25.4634 95.5855 25.4793 95.4815 25.5112 95.3894C25.5438 95.2972 25.5892 95.2189 25.6474 95.1545C25.7063 95.0893 25.776 95.0398 25.8564 95.0058C25.9375 94.9712 26.0269 94.9539 26.1246 94.9539C26.2216 94.9539 26.3103 94.9712 26.3907 95.0058C26.4718 95.0398 26.5418 95.0893 26.6007 95.1545C26.6597 95.2189 26.7054 95.2972 26.738 95.3894C26.7706 95.4815 26.7868 95.5855 26.7868 95.7012ZM26.4167 95.7625V95.6991C26.4167 95.6243 26.4101 95.5585 26.397 95.5016C26.3845 95.4441 26.3658 95.396 26.3408 95.3572C26.3159 95.3183 26.285 95.2892 26.2483 95.2698C26.2123 95.2497 26.171 95.2397 26.1246 95.2397C26.0761 95.2397 26.0338 95.2497 25.9978 95.2698C25.9617 95.2892 25.9316 95.3183 25.9073 95.3572C25.883 95.396 25.8647 95.4441 25.8522 95.5016C25.8404 95.5585 25.8345 95.6243 25.8345 95.6991V95.7625C25.8345 95.8367 25.8404 95.9025 25.8522 95.96C25.8647 96.0168 25.883 96.065 25.9073 96.1045C25.9323 96.144 25.9628 96.1738 25.9988 96.1939C26.0355 96.214 26.0782 96.224 26.1267 96.224C26.1731 96.224 26.2143 96.214 26.2504 96.1939C26.2864 96.1738 26.3166 96.144 26.3408 96.1045C26.3658 96.065 26.3845 96.0168 26.397 95.96C26.4101 95.9025 26.4167 95.8367 26.4167 95.7625Z" fill="url(#paint14_linear_533_111)"/>
<path d="M95.5217 90.287V89.2434H95.8585V90.287C95.8585 90.3882 95.8357 90.4755 95.7899 90.5489C95.7449 90.6217 95.6835 90.6782 95.6059 90.7184C95.529 90.7579 95.442 90.7776 95.3449 90.7776C95.2451 90.7776 95.1564 90.761 95.0788 90.7277C95.0012 90.6938 94.9402 90.6421 94.8958 90.5728C94.8522 90.5028 94.8303 90.4138 94.8303 90.3057H95.1692C95.1692 90.3591 95.1758 90.4013 95.189 90.4325C95.2029 90.463 95.223 90.4845 95.2493 90.497C95.2756 90.5094 95.3075 90.5157 95.3449 90.5157C95.381 90.5157 95.4122 90.507 95.4385 90.4897C95.4648 90.4717 95.4853 90.4457 95.4998 90.4117C95.5144 90.3771 95.5217 90.3355 95.5217 90.287Z" fill="url(#paint15_linear_533_111)"/>
<path d="M95.3928 92.8856H95.0602L95.0622 92.6237H95.3928C95.4684 92.6237 95.5322 92.6063 95.5841 92.5717C95.6361 92.5363 95.6756 92.4844 95.7027 92.4158C95.7297 92.3465 95.7432 92.2623 95.7432 92.1632V92.0936C95.7432 92.0187 95.7356 91.9529 95.7203 91.8961C95.7051 91.8385 95.6826 91.7904 95.6528 91.7516C95.623 91.7128 95.5859 91.6837 95.5415 91.6643C95.4979 91.6449 95.4476 91.6352 95.3908 91.6352H95.0539V91.3722H95.3908C95.4933 91.3722 95.5869 91.3895 95.6715 91.4242C95.7567 91.4588 95.8302 91.5084 95.8919 91.5728C95.9543 91.6372 96.0024 91.7135 96.0364 91.8015C96.0703 91.8895 96.0873 91.9875 96.0873 92.0956V92.1632C96.0873 92.2706 96.0703 92.3687 96.0364 92.4574C96.0024 92.5454 95.9543 92.6216 95.8919 92.686C95.8302 92.7498 95.7571 92.799 95.6725 92.8336C95.588 92.8683 95.4947 92.8856 95.3928 92.8856ZM95.2525 91.3722V92.8856H94.9136V91.3722H95.2525Z" fill="url(#paint16_linear_533_111)"/>
<path d="M95.2525 93.3372V94.8506H94.9136V93.3372H95.2525ZM95.8482 93.9754V94.2373H95.1579V93.9754H95.8482ZM95.9147 93.3372V93.6001H95.1579V93.3372H95.9147Z" fill="url(#paint17_linear_533_111)"/>
<path d="M88.0443 95.5315V95.7934H86.9599V95.5315H88.0443ZM88.0329 94.4609L87.119 95.7934H86.8778V95.6084L87.8 94.28H88.0329V94.4609ZM87.9206 94.28V94.543H86.8757V94.28H87.9206Z" fill="url(#paint18_linear_533_111)"/>
<path d="M83.3574 95.7645L82.1794 95.4277L82.1794 95.0504L83.6932 95.5691L83.6932 95.8154L83.3574 95.7645ZM82.1794 96.0711L83.3574 95.7354L83.6932 95.6824L83.6932 95.9318L82.1794 96.4474L82.1794 96.0711Z" fill="url(#paint19_linear_533_111)"/>
<path d="M58.9824 97.8308H58.6534L58.6517 97.639H58.9235C58.9716 97.639 59.0106 97.6332 59.0405 97.6214C59.071 97.6097 59.0933 97.5927 59.1074 97.5704C59.1214 97.5475 59.1285 97.5194 59.1285 97.486C59.1285 97.4479 59.1214 97.4171 59.1074 97.3936C59.0933 97.3702 59.071 97.3532 59.0405 97.3426C59.0106 97.3315 58.9719 97.3259 58.9244 97.3259H58.7572V98.384H58.4705V97.1034H58.9244C59.0012 97.1034 59.0698 97.1104 59.1302 97.1245C59.1906 97.1386 59.242 97.1603 59.2842 97.1896C59.327 97.2189 59.3595 97.2555 59.3818 97.2995C59.4041 97.3435 59.4153 97.3954 59.4153 97.4552C59.4153 97.5074 59.4035 97.556 59.3801 97.6012C59.3572 97.6463 59.3202 97.683 59.2692 97.7111C59.2182 97.7393 59.1499 97.7545 59.0643 97.7569L58.9824 97.8308ZM58.971 98.384H58.5804L58.6842 98.1623H58.971C59.015 98.1623 59.0508 98.1553 59.0783 98.1412C59.1059 98.1271 59.1261 98.1081 59.139 98.0841C59.1519 98.06 59.1584 98.033 59.1584 98.0031C59.1584 97.968 59.1522 97.9375 59.1399 97.9117C59.1282 97.8859 59.1094 97.8659 59.0836 97.8519C59.0584 97.8378 59.0247 97.8308 58.9824 97.8308H58.7256L58.7273 97.639H59.0414L59.1082 97.7147C59.1898 97.7129 59.2549 97.7261 59.3035 97.7542C59.3528 97.7818 59.3883 97.8181 59.41 97.8633C59.4317 97.9084 59.4425 97.9562 59.4425 98.0067C59.4425 98.0899 59.4246 98.1597 59.3889 98.216C59.3531 98.2717 59.3 98.3136 59.2296 98.3417C59.1598 98.3699 59.0736 98.384 58.971 98.384Z" fill="url(#paint20_linear_533_111)"/>
<path d="M59.527 113.741V115.022H59.2411L58.7572 114.194V115.022H58.4705V113.741H58.7572L59.242 114.569V113.741H59.527Z" fill="url(#paint21_linear_533_111)"/>
<defs>
<linearGradient id="paint0_linear_533_111" x1="0" y1="0" x2="161.74" y2="16.8233" gradientUnits="userSpaceOnUse">
<stop stop-color="#60B7FF"/>
<stop offset="1" stop-color="#E255F3"/>
</linearGradient>
<linearGradient id="paint1_linear_533_111" x1="0" y1="0" x2="161.74" y2="16.8233" gradientUnits="userSpaceOnUse">
<stop stop-color="#60B7FF"/>
<stop offset="1" stop-color="#E255F3"/>
</linearGradient>
<linearGradient id="paint2_linear_533_111" x1="0" y1="0" x2="161.74" y2="16.8233" gradientUnits="userSpaceOnUse">
<stop stop-color="#60B7FF"/>
<stop offset="1" stop-color="#E255F3"/>
</linearGradient>
<linearGradient id="paint3_linear_533_111" x1="0" y1="0" x2="161.74" y2="16.8233" gradientUnits="userSpaceOnUse">
<stop stop-color="#60B7FF"/>
<stop offset="1" stop-color="#E255F3"/>
</linearGradient>
<linearGradient id="paint4_linear_533_111" x1="0" y1="0" x2="161.74" y2="16.8233" gradientUnits="userSpaceOnUse">
<stop stop-color="#60B7FF"/>
<stop offset="1" stop-color="#E255F3"/>
</linearGradient>
<linearGradient id="paint5_linear_533_111" x1="0" y1="0" x2="161.74" y2="16.8233" gradientUnits="userSpaceOnUse">
<stop stop-color="#60B7FF"/>
<stop offset="1" stop-color="#E255F3"/>
</linearGradient>
<linearGradient id="paint6_linear_533_111" x1="16.3301" y1="88.7125" x2="17.6967" y2="88.8072" gradientUnits="userSpaceOnUse">
<stop stop-color="#60B7FF"/>
<stop offset="1" stop-color="#E255F3"/>
</linearGradient>
<linearGradient id="paint7_linear_533_111" x1="2.94897" y1="95.2626" x2="4.4972" y2="95.3842" gradientUnits="userSpaceOnUse">
<stop stop-color="#60B7FF"/>
<stop offset="1" stop-color="#E255F3"/>
</linearGradient>
<linearGradient id="paint8_linear_533_111" x1="12.6509" y1="94.4792" x2="12.5331" y2="96.0029" gradientUnits="userSpaceOnUse">
<stop stop-color="#60B7FF"/>
<stop offset="1" stop-color="#E255F3"/>
</linearGradient>
<linearGradient id="paint9_linear_533_111" x1="4.91357" y1="85.641" x2="6.34452" y2="85.7448" gradientUnits="userSpaceOnUse">
<stop stop-color="#60B7FF"/>
<stop offset="1" stop-color="#E255F3"/>
</linearGradient>
<linearGradient id="paint10_linear_533_111" x1="25.4612" y1="86.7872" x2="26.7212" y2="86.8676" gradientUnits="userSpaceOnUse">
<stop stop-color="#60B7FF"/>
<stop offset="1" stop-color="#E255F3"/>
</linearGradient>
<linearGradient id="paint11_linear_533_111" x1="25.5154" y1="88.7522" x2="26.8098" y2="88.8371" gradientUnits="userSpaceOnUse">
<stop stop-color="#60B7FF"/>
<stop offset="1" stop-color="#E255F3"/>
</linearGradient>
<linearGradient id="paint12_linear_533_111" x1="25.429" y1="90.881" x2="26.7923" y2="90.9752" gradientUnits="userSpaceOnUse">
<stop stop-color="#60B7FF"/>
<stop offset="1" stop-color="#E255F3"/>
</linearGradient>
<linearGradient id="paint13_linear_533_111" x1="25.3865" y1="93.0096" x2="26.9104" y2="93.1275" gradientUnits="userSpaceOnUse">
<stop stop-color="#60B7FF"/>
<stop offset="1" stop-color="#E255F3"/>
</linearGradient>
<linearGradient id="paint14_linear_533_111" x1="25.4634" y1="94.9539" x2="26.8892" y2="95.0542" gradientUnits="userSpaceOnUse">
<stop stop-color="#60B7FF"/>
<stop offset="1" stop-color="#E255F3"/>
</linearGradient>
<linearGradient id="paint15_linear_533_111" x1="94.8303" y1="89.2434" x2="95.9401" y2="89.3049" gradientUnits="userSpaceOnUse">
<stop stop-color="#60B7FF"/>
<stop offset="1" stop-color="#E255F3"/>
</linearGradient>
<linearGradient id="paint16_linear_533_111" x1="94.9136" y1="91.3722" x2="96.1791" y2="91.4533" gradientUnits="userSpaceOnUse">
<stop stop-color="#60B7FF"/>
<stop offset="1" stop-color="#E255F3"/>
</linearGradient>
<linearGradient id="paint17_linear_533_111" x1="94.9136" y1="93.3372" x2="95.9943" y2="93.3963" gradientUnits="userSpaceOnUse">
<stop stop-color="#60B7FF"/>
<stop offset="1" stop-color="#E255F3"/>
</linearGradient>
<linearGradient id="paint18_linear_533_111" x1="86.8757" y1="94.28" x2="88.1357" y2="94.3604" gradientUnits="userSpaceOnUse">
<stop stop-color="#60B7FF"/>
<stop offset="1" stop-color="#E255F3"/>
</linearGradient>
<linearGradient id="paint19_linear_533_111" x1="82.1794" y1="96.4474" x2="82.2941" y2="94.9437" gradientUnits="userSpaceOnUse">
<stop stop-color="#60B7FF"/>
<stop offset="1" stop-color="#E255F3"/>
</linearGradient>
<linearGradient id="paint20_linear_533_111" x1="58.4705" y1="97.1034" x2="59.5187" y2="97.1692" gradientUnits="userSpaceOnUse">
<stop stop-color="#60B7FF"/>
<stop offset="1" stop-color="#E255F3"/>
</linearGradient>
<linearGradient id="paint21_linear_533_111" x1="58.4705" y1="113.741" x2="59.609" y2="113.819" gradientUnits="userSpaceOnUse">
<stop stop-color="#60B7FF"/>
<stop offset="1" stop-color="#E255F3"/>
</linearGradient>
</defs>
</svg>
