<svg width="32" height="32" viewBox="0 0 32 32" fill="none" xmlns="http://www.w3.org/2000/svg">
<path d="M14.8577 22.9412C14.5182 22.3777 15.3562 21.8632 15.7077 22.4162L16.3877 23.5162L18.1922 22.0462L17.0772 15.8472L14.0077 19.1822L11.3982 19.4767C11.2532 19.4917 11.1182 19.5767 11.0382 19.6967L9.55815 21.9417L10.7832 24.4907C10.8282 24.5857 10.8432 24.6957 10.8232 24.8007L10.4382 26.9107C10.3082 27.5537 9.34365 27.3852 9.45315 26.7307L9.81315 24.7807L8.79815 22.6857L5.05915 24.1307C4.94915 24.1757 4.85915 24.2507 4.80415 24.3557L2.06965 29.2552C1.87665 29.5697 2.13465 30.0112 2.50465 30.0002H13.3827L15.7027 24.3107L14.8577 22.9412Z" fill="#1111FF"/>
<path d="M20.8668 18.0016C20.8375 17.9189 20.7834 17.8473 20.7118 17.7966L18.0718 15.7271L19.2268 22.1611C19.2618 22.3361 19.1918 22.5211 19.0518 22.6361L16.6773 24.5711L14.4628 30.0001H21.8668C22.0218 30.0001 22.1668 29.9301 22.2618 29.8101C22.3568 29.6901 22.3918 29.5351 22.3568 29.3851L21.6118 26.2651L22.8868 23.3111C22.9418 23.1861 22.9418 23.0461 22.8918 22.9211L20.8668 18.0016ZM10.3533 17.1021C10.5733 17.1761 10.8163 17.0781 10.9383 16.8771C12.297 14.5269 13.9044 12.3296 15.7328 10.3231L16.3428 10.9281C16.7078 11.3041 17.3113 11.2946 17.6773 10.9281L18.0173 10.5881C18.2293 10.3731 18.7243 9.88305 18.9323 9.67305C19.2883 9.31555 19.2993 8.70605 18.9273 8.34305L18.3223 7.73305C20.3289 5.90486 22.5262 4.29763 24.8763 2.93905C25.3263 2.69405 25.1013 1.93605 24.5813 2.00405C20.8224 2.32442 17.2977 3.96321 14.6301 6.63081C11.9625 9.29842 10.3237 12.8231 10.0033 16.5821C9.9833 16.8171 10.1283 17.0321 10.3533 17.1021ZM29.4403 18.9016L25.5523 15.2246L19.9673 9.94305C19.8823 10.1031 19.7673 10.2531 19.6373 10.3831C19.3298 10.6611 18.3043 11.7911 17.9473 11.9681L20.6668 14.8471L26.9008 21.4411C27.2358 21.7961 27.6908 21.9911 28.1758 22.0011C29.7768 22.0661 30.6273 19.9771 29.4403 18.9016Z" fill="#1111FF"/>
</svg>
