<svg width="32" height="32" viewBox="0 0 32 32" fill="none" xmlns="http://www.w3.org/2000/svg">
<g clip-path="url(#clip0_70_984)">
<path d="M14.036 18.4445H12.681V17.0893C12.681 16.5715 12.2612 16.1517 11.7434 16.1517C11.2256 16.1517 10.8058 16.5715 10.8058 17.0893V18.4445H9.45065C8.93285 18.4445 8.51306 18.8643 8.51306 19.3821V23.9673C8.51306 24.4851 8.93285 24.9049 9.45065 24.9049H10.8058V26.3365C10.8058 26.8543 11.2256 27.2741 11.7434 27.2741C12.2612 27.2741 12.681 26.8543 12.681 26.3365V24.9049H14.036C14.5538 24.9049 14.9736 24.4851 14.9736 23.9673V19.3821C14.9736 18.8643 14.5538 18.4445 14.036 18.4445ZM22.5492 13.8589H21.1942V12.5037C21.1942 11.9859 20.7744 11.5661 20.2566 11.5661C19.7388 11.5661 19.319 11.9859 19.319 12.5037V13.8589H17.9638C17.446 13.8589 17.0263 14.2787 17.0263 14.7965V19.3817C17.0263 19.8995 17.446 20.3193 17.9638 20.3193H19.319V26.3366C19.319 26.8544 19.7388 27.2742 20.2566 27.2742C20.7744 27.2742 21.1942 26.8544 21.1942 26.3366V20.3193H22.5492C23.067 20.3193 23.4868 19.8995 23.4868 19.3817V14.7965C23.4868 14.2787 23.067 13.8589 22.5492 13.8589ZM31.0624 7.01892H29.7073V5.66366C29.7073 5.14586 29.2875 4.72607 28.7697 4.72607C28.2519 4.72607 27.8321 5.14586 27.8321 5.66366V7.01886H26.477C25.9592 7.01886 25.5394 7.43865 25.5394 7.95645V14.7964C25.5394 15.3142 25.9592 15.734 26.477 15.734H27.8321V19.458C27.8321 19.9758 28.2519 20.3956 28.7697 20.3956C29.2875 20.3956 29.7073 19.9758 29.7073 19.458V15.734H31.0624C31.5802 15.734 32 15.3142 32 14.7964V7.95651C32 7.43871 31.5802 7.01892 31.0624 7.01892ZM5.5229 11.4899H4.1679V5.66373C4.1679 5.14593 3.74811 4.72614 3.23031 4.72614C2.71251 4.72614 2.29272 5.14593 2.29272 5.66373V11.4899H0.93759C0.41979 11.4899 0 11.9097 0 12.4275V19.458C0 19.9758 0.41979 20.3956 0.93759 20.3956H2.29272V21.7508C2.29272 22.2686 2.71251 22.6884 3.23031 22.6884C3.74811 22.6884 4.1679 22.2686 4.1679 21.7508V20.3956H5.52297C6.04077 20.3956 6.46056 19.9758 6.46056 19.458V12.4275C6.46049 11.9097 6.04077 11.4899 5.5229 11.4899Z" fill="#1111FF"/>
</g>
<defs>
<clipPath id="clip0_70_984">
<rect width="32" height="32" fill="white"/>
</clipPath>
</defs>
</svg>
